<svg fill="#878a9e" xmlns="http://www.w3.org/2000/svg" xmlns:xlink="http://www.w3.org/1999/xlink"
    viewBox="0 0 24 24" focusable="false" aria-hidden="true" class="css-6qu7l6">
    <path fill-rule="evenodd" clip-rule="evenodd"
        d="M12.9806 2.80388C12.8871 2.33646 12.4767 2 12 2C11.5233 2 11.1129 2.33646 11.0194 2.80388L9.31226 11.3397L4.5547 8.16795C4.15808 7.90353 3.62996 7.95583 3.29289 8.29289C2.95583 8.62996 2.90353 9.15808 3.16795 9.5547L6.13148 14H3C2.63973 14 2.30731 14.1938 2.1298 14.5073C1.95229 14.8208 1.95715 15.2056 2.14251 15.5145L5.14251 20.5145C5.42666 20.9881 6.04092 21.1416 6.5145 20.8575C6.98808 20.5733 7.14164 19.9591 6.85749 19.4855L4.76619 16H8C8.3688 16 8.70766 15.797 8.88167 15.4719C9.05569 15.1467 9.03662 14.7522 8.83205 14.4453L7.60555 12.6056L9.4453 13.8321C9.72288 14.0171 10.0745 14.0515 10.3827 13.9239C10.6909 13.7962 10.9152 13.5232 10.9806 13.1961L12 8.09902L13.0194 13.1961C13.0848 13.5232 13.3091 13.7962 13.6173 13.9239C13.9255 14.0515 14.2771 14.0171 14.5547 13.8321L16.3944 12.6056L15.1679 14.4453C14.9634 14.7522 14.9443 15.1467 15.1183 15.4719C15.2923 15.797 15.6312 16 16 16H19.2338L17.1425 19.4855C16.8584 19.9591 17.0119 20.5733 17.4855 20.8575C17.9591 21.1416 18.5733 20.9881 18.8575 20.5145L21.8575 15.5145C22.0429 15.2056 22.0477 14.8208 21.8702 14.5073C21.6927 14.1938 21.3603 14 21 14H17.8685L20.8321 9.5547C21.0965 9.15808 21.0442 8.62996 20.7071 8.29289C20.37 7.95583 19.8419 7.90353 19.4453 8.16795L14.6877 11.3397L12.9806 2.80388ZM5.70711 4.29289C5.31658 3.90237 4.68342 3.90237 4.29289 4.29289C3.90237 4.68342 3.90237 5.31658 4.29289 5.70711L6.29289 7.70711C6.68342 8.09763 7.31658 8.09763 7.70711 7.70711C8.09763 7.31658 8.09763 6.68342 7.70711 6.29289L5.70711 4.29289ZM19.7071 5.70711C20.0976 5.31658 20.0976 4.68342 19.7071 4.29289C19.3166 3.90237 18.6834 3.90237 18.2929 4.29289L16.2929 6.29289C15.9024 6.68342 15.9024 7.31658 16.2929 7.70711C16.6834 8.09763 17.3166 8.09763 17.7071 7.70711L19.7071 5.70711ZM12.8321 16.4453C12.6466 16.1671 12.3344 16 12 16C11.6656 16 11.3534 16.1671 11.1679 16.4453L9.16795 19.4453C8.96338 19.7522 8.94431 20.1467 9.11833 20.4719C9.29234 20.797 9.6312 21 10 21H14C14.3688 21 14.7077 20.797 14.8817 20.4719C15.0557 20.1467 15.0366 19.7522 14.8321 19.4453L12.8321 16.4453Z"></path>
</svg>
