<svg xmlns="http://www.w3.org/2000/svg" xmlns:xlink="http://www.w3.org/1999/xlink" width="92" height="92" xmlns:v="https://vecta.io/nano"><defs><path d="M27.21 0h9.58c8.62 0 12.37 1.02 15.96 2.94a19.99 19.99 0 0 1 8.31 8.31C62.98 14.84 64 18.6 64 27.21v9.58c0 8.62-1.02 12.37-2.94 15.96a19.99 19.99 0 0 1-8.31 8.31C49.16 62.98 45.4 64 36.79 64H27.2c-8.62 0-12.37-1.02-15.96-2.94a19.99 19.99 0 0 1-8.31-8.31C1.02 49.16 0 45.4 0 36.79V27.2c0-8.62 1.02-12.37 2.94-15.96a19.99 19.99 0 0 1 8.31-8.31C14.84 1.02 18.6 0 27.21 0z" id="A"/><filter x="-37.5%" y="-28.1%" width="175%" height="175%" id="B"><feOffset dy="6" in="SourceAlpha"/><feGaussianBlur stdDeviation="7"/><feColorMatrix values="0 0 0 0 0 0 0 0 0 0 0 0 0 0 0 0 0 0 0.08 0" result="C"/><feMorphology radius="5" in="SourceAlpha"/><feOffset dy="10"/><feGaussianBlur stdDeviation="5"/><feColorMatrix values="0 0 0 0 0 0 0 0 0 0 0 0 0 0 0 0 0 0 0.06 0" result="G"/><feMerge><feMergeNode in="C"/><feMergeNode in="G"/></feMerge></filter></defs><g fill="none" fill-rule="evenodd"><g fill-rule="nonzero"><g transform="translate(14 8)"><use fill="#000" filter="url(#B)" xlink:href="#A"/><use fill="#cb7df6" xlink:href="#A"/></g><circle fill-opacity=".15" fill="#fff" cx="46" cy="40" r="15"/><path fill-opacity=".1" fill="#000" d="M50.88 48.33L31.24 30.52v-4.7l3.93 1.5L53.47 46z"/></g><path fill="#8424b9" d="M50.61 48.33L30.25 27.6 30 24l3.54.25L53.9 44.98z"/><path d="M50.59 48.33l3.3-3.35 2.61-2.67 2.91.1-4.02 4.1-.84.85 4.68 4.76c.58-.08 1.18.1 1.62.55.75.76.75 2 0 2.76a1.9 1.9 0 0 1-2.7 0 1.96 1.96 0 0 1-.54-1.65l-4.68-4.76-.84.84-4.02 4.1-.1-2.96 2.62-2.67z" fill="#fff"/><path d="M59.47 55.04a1 1 0 1 1 0-2 1 1 0 1 1 0 2z" fill="#8424b9"/><path fill-opacity=".1" fill="#000" fill-rule="nonzero" d="M40.83 48.33l19.64-17.81v-4.7l-3.93 1.5L38.24 46z"/><path fill="#fff" d="M40.83 48.33l-3.3-3.35L57.9 24.25l3.54-.25-.25 3.6z"/><path d="M40.83 48.33L43.45 51l-.1 2.96-4.86-4.94-4.68 4.76a1.98 1.98 0 0 1-.54 1.65 1.9 1.9 0 0 1-2.7 0c-.76-.76-.76-2 0-2.76a1.88 1.88 0 0 1 1.61-.55l4.68-4.76-.83-.85-4.03-4.1 2.91-.1 2.62 2.67 3.3 3.35z" fill="#8424b9"/><circle fill="#eee" fill-rule="nonzero" cx="31.94" cy="54.04" r="1"/></g></svg>