<svg xmlns="http://www.w3.org/2000/svg" xmlns:xlink="http://www.w3.org/1999/xlink" width="92" height="92" xmlns:v="https://vecta.io/nano"><defs><path d="M27.21 0h9.58c8.62 0 12.37 1.02 15.96 2.94a19.99 19.99 0 0 1 8.31 8.31C62.98 14.84 64 18.6 64 27.21v9.58c0 8.62-1.02 12.37-2.94 15.96a19.99 19.99 0 0 1-8.31 8.31C49.16 62.98 45.4 64 36.79 64H27.2c-8.62 0-12.37-1.02-15.96-2.94a19.99 19.99 0 0 1-8.31-8.31C1.02 49.16 0 45.4 0 36.79V27.2c0-8.62 1.02-12.37 2.94-15.96a19.99 19.99 0 0 1 8.31-8.31C14.84 1.02 18.6 0 27.21 0z" id="A"/><filter x="-37.5%" y="-28.1%" width="175%" height="175%" id="B"><feOffset dy="6" in="SourceAlpha"/><feGaussianBlur stdDeviation="7"/><feColorMatrix values="0 0 0 0 0 0 0 0 0 0 0 0 0 0 0 0 0 0 0.08 0" result="C"/><feMorphology radius="5" in="SourceAlpha"/><feOffset dy="10"/><feGaussianBlur stdDeviation="5"/><feColorMatrix values="0 0 0 0 0 0 0 0 0 0 0 0 0 0 0 0 0 0 0.06 0" result="G"/><feMerge><feMergeNode in="C"/><feMergeNode in="G"/></feMerge></filter><linearGradient x1="42.72%" y1="45.24%" x2="52.24%" y2="57.65%" id="C"><stop stop-color="#c91921" stop-opacity=".75" offset="0%"/><stop stop-color="#c91921" stop-opacity="0" offset="100%"/></linearGradient><linearGradient x1="100%" y1="100%" x2="0%" y2="23.07%" id="D"><stop stop-color="#ff86df" offset="0%"/><stop stop-color="#ec000a" offset="100%"/></linearGradient></defs><g fill="none" fill-rule="evenodd"><g fill-rule="nonzero" transform="translate(14 8)"><use fill="#000" filter="url(#B)" xlink:href="#A"/><use fill="#ff4a52" xlink:href="#A"/></g><g transform="translate(28 30)"><g fill-rule="nonzero"><path d="M2 17.49l8.1 10.66L42 18.96 34 7.02c.38 5.03.2 8.03-.56 8.98-2.55 3.21-7.44 2.47-8.62 1.49-.54-.45-1.83-1.16-2.34-2.4-.65-1.59-.5-3.7-1.07-3.54-2.68.82-4.03.95-5.69.95 0 0-1.72 3.5-4.47 4.99-1.83.99-4.91.99-9.25 0z" fill="url(#C)"/><g fill="url(#D)"><circle cx="8" cy="12" r="6"/><circle cx="28" cy="12" r="6"/></g></g><circle fill="#a3282d" cx="18" cy="9" r="3"/><g fill="#fff"><path d="M15.97 13.2c.59.3 1.28.52 2.01.52a3.9 3.9 0 0 0 2.01-.53c.48 3.77 3.88 6.74 7.97 6.74 4.42 0 8.04-3.46 8.04-7.68 0-2.16-.95-4.12-2.45-5.51l-.62-.53-3.03-2.44a8.14 8.14 0 0 0-4.06-1.4l.15.14L24.16.73a2.94 2.94 0 0 0-4.72 1.22 3.2 3.2 0 0 0-1.28-.38h-.21a2.8 2.8 0 0 0-1.43.38A2.83 2.83 0 0 0 13.78.07c-.73 0-1.43.28-1.94.73l-1.83 1.78.15-.14c-1.5.1-2.89.6-4.06 1.4L3.07 6.28c-.22.18-.44.35-.62.53A7.53 7.53 0 0 0 0 12.32C0 16.54 3.62 20 8.04 20c4.06-.07 7.46-3 7.93-6.8zm10.78-6.04l.7-.1c.18 0 .33-.04.5-.04a5.36 5.36 0 0 1 5.5 5.23c0 2.9-2.46 5.24-5.5 5.24a5.36 5.36 0 0 1-5.47-5.24 5.27 5.27 0 0 1 4.27-5.1zm-8.77.97c.99 0 1.8.77 1.8 1.71 0 .95-.81 1.71-1.8 1.71s-1.79-.76-1.79-1.7c0-.95.8-1.72 1.8-1.72zM8 17.5a5.36 5.36 0 0 1-5.48-5.24 5.36 5.36 0 0 1 6-5.2l.69.1a5.3 5.3 0 0 1 4.28 5.1c0 2.9-2.45 5.24-5.49 5.24z"/><path d="M7 9c-1.66 0-3 1.37-3 3.05 0 .5.11.97.33 1.4a1 1 0 0 0 1.35.44c.49-.26.68-.87.43-1.37A1.02 1.02 0 0 1 7 11.04a1 1 0 0 0 1-1.02A1 1 0 0 0 7 9zM27 9c-1.66 0-3 1.37-3 3.05 0 .5.11.97.33 1.4a1 1 0 0 0 1.35.44c.49-.26.68-.87.43-1.37a1.02 1.02 0 0 1 .89-1.48 1 1 0 0 0 1-1.02A1 1 0 0 0 27 9z" fill-rule="nonzero" opacity=".75"/></g></g></g></svg>