<svg fill="#878a9e" xmlns="http://www.w3.org/2000/svg" xmlns:xlink="http://www.w3.org/1999/xlink"
    viewBox="0 0 24 24" focusable="false" aria-hidden="true" class="css-6qu7l6">
    <path
        d="M12 4C7.58172 4 4 7.58172 4 12C4 16.4183 7.58172 20 12 20C16.4183 20 20 16.4183 20 12C20 7.58172 16.4183 4 12 4ZM2 12C2 6.47715 6.47715 2 12 2C17.5228 2 22 6.47715 22 12C22 17.5228 17.5228 22 12 22C6.47715 22 2 17.5228 2 12Z"></path>
    <path
        d="M12 2C12.5523 2 13 2.44772 13 3V5C13 5.55228 12.5523 6 12 6C11.4477 6 11 5.55228 11 5V3C11 2.44772 11.4477 2 12 2ZM2 12C2 11.4477 2.44772 11 3 11H5C5.55228 11 6 11.4477 6 12C6 12.5523 5.55228 13 5 13H3.00046C2.44818 13 2 12.5523 2 12ZM18 12C18 11.4477 18.4477 11 19 11H20.9995C21.5518 11 22 11.4477 22 12C22 12.5523 21.5523 13 21 13H19C18.4477 13 18 12.5523 18 12ZM12 18C12.5523 18 13 18.4477 13 19V20.9995C13 21.5518 12.5523 22 12 22C11.4477 22 11 21.5523 11 21V19C11 18.4477 11.4477 18 12 18Z"></path>
    <path
        d="M11.3064 11.3065L10.4544 13.5456L12.6935 12.6935L13.5455 10.4544L11.3064 11.3065ZM10.1758 9.59682C9.90898 9.69834 9.69831 9.90901 9.59679 10.1758L7.79256 14.9171C7.48559 15.7238 8.27614 16.5144 9.08283 16.2074L13.8242 14.4032C14.091 14.3017 14.3016 14.091 14.4031 13.8242L16.2074 9.08286C16.5143 8.27617 15.7238 7.48562 14.9171 7.79259L10.1758 9.59682Z"></path>
</svg>
