<svg xmlns="http://www.w3.org/2000/svg" xmlns:xlink="http://www.w3.org/1999/xlink" width="92" height="92" xmlns:v="https://vecta.io/nano"><defs><path d="M27.21 0h9.58c8.62 0 12.37 1.02 15.96 2.94a19.99 19.99 0 0 1 8.31 8.31C62.98 14.84 64 18.6 64 27.21v9.58c0 8.62-1.02 12.37-2.94 15.96a19.99 19.99 0 0 1-8.31 8.31C49.16 62.98 45.4 64 36.79 64H27.2c-8.62 0-12.37-1.02-15.96-2.94a19.99 19.99 0 0 1-8.31-8.31C1.02 49.16 0 45.4 0 36.79V27.2c0-8.62 1.02-12.37 2.94-15.96a19.99 19.99 0 0 1 8.31-8.31C14.84 1.02 18.6 0 27.21 0z" id="A"/><filter x="-37.5%" y="-28.1%" width="175%" height="175%" id="B"><feOffset dy="6" in="SourceAlpha"/><feGaussianBlur stdDeviation="7"/><feColorMatrix values="0 0 0 0 0 0 0 0 0 0 0 0 0 0 0 0 0 0 0.08 0" result="C"/><feMorphology radius="5" in="SourceAlpha"/><feOffset dy="10"/><feGaussianBlur stdDeviation="5"/><feColorMatrix values="0 0 0 0 0 0 0 0 0 0 0 0 0 0 0 0 0 0 0.06 0" result="G"/><feMerge><feMergeNode in="C"/><feMergeNode in="G"/></feMerge></filter><linearGradient x1="17.61%" y1="31.66%" x2="98.5%" y2="79.6%" id="C"><stop stop-color="#fff" stop-opacity=".9" offset="0%"/><stop stop-color="#87f4ff" offset="100%"/></linearGradient></defs><g fill="none" fill-rule="evenodd"><g fill-rule="nonzero" transform="translate(14 8)"><use fill="#000" filter="url(#B)" xlink:href="#A"/><use fill="#00c6db" xlink:href="#A"/></g><path d="M31 23h29a3 3 0 0 1 3 3v19a2.99 2.99 0 0 1-3 3H31V23z" fill="url(#C)"/><path d="M28 24.5a1.5 1.5 0 0 1 1.5-1.5H31v32.5a1.5 1.5 0 1 1-3 0v-31z" fill="#003a40" opacity=".4"/><path d="M54 39v7h-7v-7h7zm-14 0v7h-7v-7h7zm7-7v7h-7v-7h7zm14 0v7h-7v-7h7zm-21-7v7h-7v-7h7zm14 0v7h-7v-7h7z" fill="#008b99"/></g></svg>