<svg xmlns="http://www.w3.org/2000/svg" xmlns:xlink="http://www.w3.org/1999/xlink" width="92" height="92" xmlns:v="https://vecta.io/nano"><defs><path d="M27.21 0h9.58c8.62 0 12.37 1.02 15.96 2.94a19.99 19.99 0 0 1 8.31 8.31C62.98 14.84 64 18.6 64 27.21v9.58c0 8.62-1.02 12.37-2.94 15.96a19.99 19.99 0 0 1-8.31 8.31C49.16 62.98 45.4 64 36.79 64H27.2c-8.62 0-12.37-1.02-15.96-2.94a19.99 19.99 0 0 1-8.31-8.31C1.02 49.16 0 45.4 0 36.79V27.2c0-8.62 1.02-12.37 2.94-15.96a19.99 19.99 0 0 1 8.31-8.31C14.84 1.02 18.6 0 27.21 0z" id="A"/><filter x="-37.5%" y="-28.1%" width="175%" height="175%" id="B"><feOffset dy="6" in="SourceAlpha"/><feGaussianBlur stdDeviation="7"/><feColorMatrix values="0 0 0 0 0 0 0 0 0 0 0 0 0 0 0 0 0 0 0.08 0" result="C"/><feMorphology radius="5" in="SourceAlpha"/><feOffset dy="10"/><feGaussianBlur stdDeviation="5"/><feColorMatrix values="0 0 0 0 0 0 0 0 0 0 0 0 0 0 0 0 0 0 0.06 0" result="G"/><feMerge><feMergeNode in="C"/><feMergeNode in="G"/></feMerge></filter><linearGradient x1="50%" y1="0%" x2="50%" y2="100%" id="C"><stop stop-color="#088d75" offset="0%"/><stop stop-color="#067863" offset="100%"/></linearGradient><path d="M17.58 16.62a.84.84 0 0 0-.6.2c-1.2 1.37-1 2.15-2.9 2.15s-1.7-.84-2.9-2.14c-.16-.16-.38-.26-.6-.21h-.43c-.39 0-.77-.05-1.1-.1a.72.72 0 0 0-.7.25l-8.2 12c-.34.42-.06 1 .48 1.05l3.49.2c.27 0 .49.16.6.42l1.25 3.14c.22.47.87.58 1.2.16l6.31-8.26a.68.68 0 0 1 1.1 0l6.25 8.26c.33.42.98.31 1.2-.16l1.25-3.14c.11-.26.33-.41.6-.41l3.49-.21c.54-.05.82-.63.49-1.05l-8.1-12a.72.72 0 0 0-.7-.26c-.33.06-.72.1-1.04.1h-.44z" id="D"/><filter x="-3.6%" y="-5.7%" width="107.1%" height="122.9%" id="E"><feOffset dy="2" in="SourceAlpha"/><feColorMatrix values="0 0 0 0 0 0 0 0 0 0 0 0 0 0 0 0 0 0 0.0620629371 0"/></filter><linearGradient x1="13.67%" y1="18.65%" x2="86.65%" y2="80.67%" id="F"><stop stop-color="#fff" offset="0%"/><stop stop-color="#d8fff8" offset="100%"/></linearGradient><path d="M23.33 8c-.36-.15-.52-.55-.36-.85.57-1.25.31-2.8-.73-3.85a3.68 3.68 0 0 0-3.99-.7c-.36.15-.78 0-.88-.35A3.61 3.61 0 0 0 14 0c-1.56 0-2.85.95-3.37 2.25-.16.35-.57.5-.88.35a3.8 3.8 0 0 0-4 .7 3.37 3.37 0 0 0-.72 3.85c.16.35 0 .75-.36.85a3.5 3.5 0 0 0-2.34 3.25c0 1.5.99 2.75 2.34 3.25.36.15.52.55.36.85a3.47 3.47 0 0 0 .73 3.85 3.68 3.68 0 0 0 3.99.7c.36-.15.78 0 .88.35A3.61 3.61 0 0 0 14 22.5c1.56 0 2.85-.95 3.37-2.25.16-.35.57-.5.88-.35 1.3.55 2.9.3 4-.7a3.37 3.37 0 0 0 .72-3.85c-.16-.35 0-.75.36-.85a3.5 3.5 0 0 0 2.34-3.25A3.5 3.5 0 0 0 23.33 8z" id="G"/><filter x="-4.3%" y="-4.4%" width="108.6%" height="117.8%" id="H"><feOffset dy="2" in="SourceAlpha"/><feColorMatrix values="0 0 0 0 0 0 0 0 0 0 0 0 0 0 0 0 0 0 0.06 0"/></filter><linearGradient x1="50%" y1="0%" x2="50%" y2="100%" id="I"><stop stop-color="#55dcc3" offset="0%"/><stop stop-color="#57b4a8" offset="100%"/></linearGradient></defs><g fill="none" fill-rule="evenodd"><g fill-rule="nonzero" transform="translate(14 8)"><use fill="#000" filter="url(#B)" xlink:href="#A"/><use fill="#55dcc3" xlink:href="#A"/></g><g transform="translate(32 22)"><use fill="#000" filter="url(#E)" xlink:href="#D"/><use fill="url(#C)" xlink:href="#D"/><use fill="#000" filter="url(#H)" xlink:href="#G"/><use fill="url(#F)" xlink:href="#G"/></g><path d="M40.42 31.8a1.42 1.42 0 0 1 2.04 0l2.38 2.44 4.7-4.8a1.42 1.42 0 0 1 2.04 0c.56.57.56 1.5 0 2.08l-6.06 6.2a.95.95 0 0 1-1.36 0l-3.74-3.83a1.5 1.5 0 0 1 0-2.09z" fill="url(#I)" fill-rule="nonzero"/></g></svg>