<svg xmlns="http://www.w3.org/2000/svg" xmlns:xlink="http://www.w3.org/1999/xlink" width="92" height="92" xmlns:v="https://vecta.io/nano"><defs><path d="M27.21 0h9.58c8.62 0 12.37 1.02 15.96 2.94a19.99 19.99 0 0 1 8.31 8.31C62.98 14.84 64 18.6 64 27.21v9.58c0 8.62-1.02 12.37-2.94 15.96a19.99 19.99 0 0 1-8.31 8.31C49.16 62.98 45.4 64 36.79 64H27.2c-8.62 0-12.37-1.02-15.96-2.94a19.99 19.99 0 0 1-8.31-8.31C1.02 49.16 0 45.4 0 36.79V27.2c0-8.62 1.02-12.37 2.94-15.96a19.99 19.99 0 0 1 8.31-8.31C14.84 1.02 18.6 0 27.21 0z" id="A"/><filter x="-37.5%" y="-28.1%" width="175%" height="175%" id="B"><feOffset dy="6" in="SourceAlpha"/><feGaussianBlur stdDeviation="7"/><feColorMatrix values="0 0 0 0 0 0 0 0 0 0 0 0 0 0 0 0 0 0 0.08 0" result="C"/><feMorphology radius="5" in="SourceAlpha"/><feOffset dy="10"/><feGaussianBlur stdDeviation="5"/><feColorMatrix values="0 0 0 0 0 0 0 0 0 0 0 0 0 0 0 0 0 0 0.06 0" result="G"/><feMerge><feMergeNode in="C"/><feMergeNode in="G"/></feMerge></filter><linearGradient x1="37.44%" y1="29.69%" x2="93.65%" y2="94.91%" id="C"><stop stop-color="#fff" offset="0%"/><stop stop-color="#ffdfb1" offset="100%"/></linearGradient></defs><g fill="none" fill-rule="evenodd"><g fill-rule="nonzero" transform="translate(14 8)"><use fill="#000" filter="url(#B)" xlink:href="#A"/><use fill="#ffa300" xlink:href="#A"/></g><g transform="translate(28 22)"><g fill="#000"><circle fill-opacity=".1" cx="26.5" cy="29.5" r="3.5"/><path d="M23.4 8.23c-.52 0-1.03.05-1.52.14a8.02 8.02 0 0 0-6.4-3.12c-2.9 0-5.43 1.5-6.81 3.73l-.2-.01c-3.95 0-7.15 3.07-7.15 6.86 0 3.8 3.2 6.86 7.15 6.86.66 0 1.3-.09 1.9-.25a8.03 8.03 0 0 0 6.14 2.81c2.05 0 3.91-.74 5.32-1.96a8.04 8.04 0 0 0 1.57.15c4.38 0 7.92-3.4 7.92-7.6s-3.54-7.61-7.92-7.61z" fill-opacity=".1"/></g><path d="M31.77 31.58c1.23 0 2.23 1 2.23 2.21 0 1.22-1 2.21-2.23 2.21a2.22 2.22 0 0 1-2.22-2.2c0-1.23 1-2.22 2.22-2.22zm-5.85-9.08c2.5 0 4.54 2.01 4.54 4.5s-2.03 4.5-4.54 4.5A4.52 4.52 0 0 1 21.4 27c0-2.49 2.03-4.5 4.53-4.5zM15.41 0c2.86 0 5.39 1.38 6.96 3.5a8.59 8.59 0 0 1 10.28 8.4 8.59 8.59 0 0 1-10.34 8.4 8.63 8.63 0 0 1-12.47-.95A7.75 7.75 0 0 1 0 11.9a7.75 7.75 0 0 1 7.78-7.72h.21A8.63 8.63 0 0 1 15.41 0z" fill="url(#C)"/><path d="M5.26 17.06a.75.75 0 0 1 .72-1.32 4.23 4.23 0 0 0 4.71-.45.75.75 0 0 1 1.2.39 4.75 4.75 0 0 0 4.61 3.57h.05a.75.75 0 0 1 .01 1.5h-.06a6.25 6.25 0 0 1-6.06-4.7l1.2.4a5.72 5.72 0 0 1-6.38.6z" fill="#ddd" fill-rule="nonzero"/></g></g></svg>