<svg fill="#878a9e" xmlns="http://www.w3.org/2000/svg" xmlns:xlink="http://www.w3.org/1999/xlink" viewBox="0 0 24 24" focusable="false" aria-hidden="true" class="css-6qu7l6">
    <path fill-rule="evenodd" clip-rule="evenodd"
        d="M11 4.88889C11 3.24032 12.3978 2 14 2C15.6022 2 17 3.24032 17 4.88889V5.77778H20C21.0499 5.77778 22 6.59525 22 7.72222V10.5556C22 11.6825 21.0499 12.5 20 12.5H19C18.3931 12.5 18 12.9511 18 13.3889C18 13.8267 18.3931 14.2778 19 14.2778H20C21.0499 14.2778 22 15.0953 22 16.2222V20.0556C22 21.1825 21.0499 22 20 22H17C15.9501 22 15 21.1825 15 20.0556V18.1111C15 17.6733 14.6069 17.2222 14 17.2222C13.3931 17.2222 13 17.6733 13 18.1111V20.0556C13 21.1825 12.0499 22 11 22H8C6.95005 22 6 21.1825 6 20.0556V16.2778H5C3.39777 16.2778 2 15.0375 2 13.3889C2 11.7403 3.39777 10.5 5 10.5H6V7.72222C6 6.59525 6.95005 5.77778 8 5.77778H11V4.88889ZM14 4C13.3931 4 13 4.45105 13 4.88889V5.83333C13 6.9603 12.0499 7.77778 11 7.77778H8V10.5556C8 11.6825 7.04995 12.5 6 12.5H5C4.39309 12.5 4 12.9511 4 13.3889C4 13.8267 4.39309 14.2778 5 14.2778H6C7.04995 14.2778 8 15.0953 8 16.2222L8 20H11V18.1111C11 16.4625 12.3978 15.2222 14 15.2222C15.6022 15.2222 17 16.4625 17 18.1111V20H20V16.2778H19C17.3978 16.2778 16 15.0375 16 13.3889C16 11.7403 17.3978 10.5 19 10.5H20V7.77778H17C15.9501 7.77778 15 6.9603 15 5.83333V4.88889C15 4.45105 14.6069 4 14 4Z"></path>
</svg>
