<svg xmlns="http://www.w3.org/2000/svg" xmlns:xlink="http://www.w3.org/1999/xlink" width="92" height="92" xmlns:v="https://vecta.io/nano"><defs><path d="M27.21 0h9.58c8.62 0 12.37 1.02 15.96 2.94a19.99 19.99 0 0 1 8.31 8.31C62.98 14.84 64 18.6 64 27.21v9.58c0 8.62-1.02 12.37-2.94 15.96a19.99 19.99 0 0 1-8.31 8.31C49.16 62.98 45.4 64 36.79 64H27.2c-8.62 0-12.37-1.02-15.96-2.94a19.99 19.99 0 0 1-8.31-8.31C1.02 49.16 0 45.4 0 36.79V27.2c0-8.62 1.02-12.37 2.94-15.96a19.99 19.99 0 0 1 8.31-8.31C14.84 1.02 18.6 0 27.21 0z" id="A"/><filter x="-37.5%" y="-28.1%" width="175%" height="175%" id="B"><feOffset dy="6" in="SourceAlpha"/><feGaussianBlur stdDeviation="7"/><feColorMatrix values="0 0 0 0 0 0 0 0 0 0 0 0 0 0 0 0 0 0 0.08 0" result="C"/><feMorphology radius="5" in="SourceAlpha"/><feOffset dy="10"/><feGaussianBlur stdDeviation="5"/><feColorMatrix values="0 0 0 0 0 0 0 0 0 0 0 0 0 0 0 0 0 0 0.06 0" result="G"/><feMerge><feMergeNode in="C"/><feMergeNode in="G"/></feMerge></filter><linearGradient x1="50%" y1="50%" x2="89.73%" y2="89.02%" id="C"><stop stop-color="#fff" offset="0%"/><stop stop-color="#d1f694" offset="100%"/></linearGradient></defs><g fill="none" fill-rule="evenodd"><g fill-rule="nonzero" transform="translate(14 8)"><use fill="#000" filter="url(#B)" xlink:href="#A"/><use fill="#85c716" xlink:href="#A"/></g><g transform="translate(28 24)"><ellipse fill="#67a105" cx="18" cy="31" rx="18" ry="3"/><circle fill="#598b04" cx="23" cy="7" r="4"/><path d="M19.55 0a18.9 18.9 0 0 0-3.33.26 17.47 17.47 0 0 0-11.18 6.7c-5.46 7.24-3.36 17.3 4.63 22.2 7.98 5.02 18.78 3.22 24.23-4.13a.47.47 0 0 0-.14-.7l-13.43-8.4 11.6-10.32a.47.47 0 0 0 .01-.71 20.1 20.1 0 0 0-2.65-2.05v-.01C26.28.95 22.9.04 19.54 0zm3.09 4.57l.08.01c.86 0 2.14.84 2.14 2.35a2.2 2.2 0 0 1-2.22 2.21c-1.23 0-2.35-.93-2.35-2.21a2.37 2.37 0 0 1 2.35-2.36z" fill="url(#C)"/></g></g></svg>