<svg fill="#878a9e" xmlns="http://www.w3.org/2000/svg" xmlns:xlink="http://www.w3.org/1999/xlink"
    viewBox="0 0 24 24" focusable="false" aria-hidden="true" class="css-6qu7l6">
    <path fill-rule="evenodd" clip-rule="evenodd"
        d="M12 2C12.5523 2 13 2.44772 13 3V4.06189C16.6187 4.51314 19.4869 7.38128 19.9381 11H21C21.5523 11 22 11.4477 22 12C22 12.5523 21.5523 13 21 13H19.9381C19.4869 16.6187 16.6187 19.4869 13 19.9381V21C13 21.5523 12.5523 22 12 22C11.4477 22 11 21.5523 11 21V19.9381C7.38128 19.4869 4.51314 16.6187 4.06189 13H3C2.44772 13 2 12.5523 2 12C2 11.4477 2.44772 11 3 11H4.06189C4.51314 7.38128 7.38128 4.51314 11 4.06189V3C11 2.44772 11.4477 2 12 2ZM11.0033 6.0824C8.48814 6.5029 6.5029 8.48814 6.0824 11.0033C6.59614 11.0452 7 11.4755 7 12C7 12.5245 6.59614 12.9548 6.0824 12.9967C6.5029 15.5119 8.48814 17.4971 11.0033 17.9176C11.0452 17.4039 11.4755 17 12 17C12.5245 17 12.9548 17.4039 12.9967 17.9176C15.5119 17.4971 17.4971 15.5119 17.9176 12.9967C17.4039 12.9548 17 12.5245 17 12C17 11.4755 17.4039 11.0452 17.9176 11.0033C17.4971 8.48814 15.5119 6.5029 12.9967 6.0824C12.9548 6.59614 12.5245 7 12 7C11.4755 7 11.0452 6.59614 11.0033 6.0824ZM12 10C10.8954 10 10 10.8954 10 12C10 13.1046 10.8954 14 12 14C13.1046 14 14 13.1046 14 12C14 10.8954 13.1046 10 12 10ZM8 12C8 9.79086 9.79086 8 12 8C14.2091 8 16 9.79086 16 12C16 14.2091 14.2091 16 12 16C9.79086 16 8 14.2091 8 12Z"></path>
</svg>
