<svg xmlns="http://www.w3.org/2000/svg" xmlns:xlink="http://www.w3.org/1999/xlink" width="92" height="92" xmlns:v="https://vecta.io/nano"><defs><path d="M27.21 0h9.58c8.62 0 12.37 1.02 15.96 2.94a19.99 19.99 0 0 1 8.31 8.31C62.98 14.84 64 18.6 64 27.21v9.58c0 8.62-1.02 12.37-2.94 15.96a19.99 19.99 0 0 1-8.31 8.31C49.16 62.98 45.4 64 36.79 64H27.2c-8.62 0-12.37-1.02-15.96-2.94a19.99 19.99 0 0 1-8.31-8.31C1.02 49.16 0 45.4 0 36.79V27.2c0-8.62 1.02-12.37 2.94-15.96a19.99 19.99 0 0 1 8.31-8.31C14.84 1.02 18.6 0 27.21 0z" id="A"/><filter x="-37.5%" y="-28.1%" width="175%" height="175%" id="B"><feOffset dy="6" in="SourceAlpha"/><feGaussianBlur stdDeviation="7"/><feColorMatrix values="0 0 0 0 0 0 0 0 0 0 0 0 0 0 0 0 0 0 0.08 0" result="C"/><feMorphology radius="5" in="SourceAlpha"/><feOffset dy="10"/><feGaussianBlur stdDeviation="5"/><feColorMatrix values="0 0 0 0 0 0 0 0 0 0 0 0 0 0 0 0 0 0 0.06 0" result="G"/><feMerge><feMergeNode in="C"/><feMergeNode in="G"/></feMerge></filter><linearGradient x1="27.04%" y1="23.29%" x2="84.86%" y2="85.71%" id="C"><stop stop-color="#fff" offset="0%"/><stop stop-color="#efcab4" offset="100%"/></linearGradient><path d="M16 0c2.28 0 4.45.48 6.42 1.35L20.3 3.46l-.07.07A13.19 13.19 0 0 0 2.84 16C2.83 23.26 8.74 29.17 16 29.17S29.17 23.27 29.17 16c0-1.54-.27-3.01-.72-4.41l2.14-2.15A16.02 16.02 0 0 1 16 32C7.18 32 0 24.82 0 16S7.18 0 16 0zm0 6c1.56 0 3.03.37 4.35 1.01L18.2 9.16a7.2 7.2 0 1 0 4.64 4.64L25 11.65A10.01 10.01 0 1 1 6 16c0-5.51 4.48-10 10-10z" id="D"/><filter x="-1.6%" y="-1.6%" width="103.1%" height="106.2%" id="E"><feOffset dy="1" in="SourceAlpha"/><feColorMatrix values="0 0 0 0 0 0 0 0 0 0 0 0 0 0 0 0 0 0 0.0693564248 0"/></filter><linearGradient x1="97.14%" y1="50%" x2="9.61%" y2="50%" id="F"><stop stop-color="#805034" stop-opacity="0" offset="0%"/><stop stop-color="#805034" offset="100%"/></linearGradient></defs><g fill="none" fill-rule="evenodd"><g fill-rule="nonzero" transform="translate(14 8)"><use fill="#000" filter="url(#B)" xlink:href="#A"/><use fill="#d28558" xlink:href="#A"/></g><g transform="translate(30 24)"><use fill="#000" filter="url(#E)" xlink:href="#D"/><use fill="url(#C)" xlink:href="#D"/><circle fill="#805034" cx="15.9" cy="16.15" r="3.85"/><path d="M34.34 12.45l-1.76 3.73 1.79 3.74-7.2-.01L26 17.56l-10.32-.01v-2.7a155898.4 155898.4 0 0 0 10.32.02l1.15-2.43 7.2.01z" fill="url(#F)"/><path d="M26.7 0l1.39 3.89L32 5.26l-5.38 5.36-2.4-.85-4.79 4.77c-.05.07-.1.14-.17.2l-2.4 2.42a1.38 1.38 0 1 1-1.96-1.96l2.45-2.45 4.88-4.86-.9-2.53L26.7 0z" fill="#fff" fill-rule="nonzero"/></g></g></svg>