<svg xmlns="http://www.w3.org/2000/svg" xmlns:xlink="http://www.w3.org/1999/xlink" width="92" height="92" xmlns:v="https://vecta.io/nano"><defs><path d="M27.21 0h9.58c8.62 0 12.37 1.02 15.96 2.94a19.99 19.99 0 0 1 8.31 8.31C62.98 14.84 64 18.6 64 27.21v9.58c0 8.62-1.02 12.37-2.94 15.96a19.99 19.99 0 0 1-8.31 8.31C49.16 62.98 45.4 64 36.79 64H27.2c-8.62 0-12.37-1.02-15.96-2.94a19.99 19.99 0 0 1-8.31-8.31C1.02 49.16 0 45.4 0 36.79V27.2c0-8.62 1.02-12.37 2.94-15.96a19.99 19.99 0 0 1 8.31-8.31C14.84 1.02 18.6 0 27.21 0z" id="A"/><filter x="-37.5%" y="-28.1%" width="175%" height="175%" id="B"><feOffset dy="6" in="SourceAlpha"/><feGaussianBlur stdDeviation="7"/><feColorMatrix values="0 0 0 0 0 0 0 0 0 0 0 0 0 0 0 0 0 0 0.08 0" result="C"/><feMorphology radius="5" in="SourceAlpha"/><feOffset dy="10"/><feGaussianBlur stdDeviation="5"/><feColorMatrix values="0 0 0 0 0 0 0 0 0 0 0 0 0 0 0 0 0 0 0.06 0" result="G"/><feMerge><feMergeNode in="C"/><feMergeNode in="G"/></feMerge></filter><linearGradient x1="28.8%" y1="30.57%" x2="93.88%" y2="93.82%" id="C"><stop stop-color="#fff" offset="0%"/><stop stop-color="#d5d7ff" offset="100%"/></linearGradient><linearGradient x1="69.19%" y1="0%" x2="30.81%" y2="100%" id="D"><stop stop-color="#8084f7" offset="0%"/><stop stop-color="#5f62b9" offset="100%"/></linearGradient></defs><g fill="none" fill-rule="evenodd"><g fill-rule="nonzero" transform="translate(14 8)"><use fill="#000" filter="url(#B)" xlink:href="#A"/><use fill="#8181ff" xlink:href="#A"/></g><g transform="translate(28 22)"><ellipse fill="#6565e7" cx="18" cy="32.83" rx="18" ry="3.17"/><g fill-rule="nonzero"><path d="M22.22 9c4.27 2.77 8.56 9.1 10.81 14.37 2.26 5.27-.45 10.46-5.6 10.46H8.57c-5.16 0-7.87-5.19-5.61-10.46S9.09 11.77 13.36 9zM14 .03c1.61-.03 2.71.94 4 1.37 1.3.44 2.7-.5 4.32-.47 1.83.03 2.83.6 3.57 1.5.73.9-2.53.83-3.66 3.56h-8.65l-.1-.1c-1.14-2.72-4.1-3.5-3.37-4.4C10.85.6 12.17.05 14 .03z" fill="url(#C)"/><path d="M19.07 14.1v1.8a6 6 0 0 1 1.57.46 4.1 4.1 0 0 1 1.71 1.53L20.75 19a3.32 3.32 0 0 0-1.16-1.1 3.33 3.33 0 0 0-1.63-.36c-.69 0-1.24.13-1.64.4-.41.26-.61.64-.61 1.13 0 .25.05.45.16.61.11.17.28.31.5.43.24.13.52.24.87.33l1.23.3 1.07.27.99.33c.3.13.6.28.86.45a2.74 2.74 0 0 1 1.1 1.45c.11.32.17.69.17 1.11a3.02 3.02 0 0 1-1.37 2.72 4.3 4.3 0 0 1-1.47.59l-.75.12v1.34H17v-1.34a6.16 6.16 0 0 1-2.01-.6c-.38-.2-.7-.43-.96-.7-.26-.26-.5-.55-.69-.85l1.64-1.11c.15.21.31.42.5.61a2.96 2.96 0 0 0 1.46.85 5.02 5.02 0 0 0 2.03.05c.3-.06.57-.15.8-.28a1.66 1.66 0 0 0 .55-.5c.14-.2.21-.46.21-.77 0-.28-.06-.53-.2-.72-.13-.2-.31-.36-.53-.5a3.47 3.47 0 0 0-.8-.33l-.96-.26-1.76-.46c-.53-.16-1-.36-1.4-.6a2.91 2.91 0 0 1-.94-.94 2.77 2.77 0 0 1-.34-1.45c0-.52.1-1 .29-1.41.18-.42.46-.78.83-1.08s.83-.52 1.37-.68a5.97 5.97 0 0 1 .9-.18V14.1h2.08z" fill="url(#D)"/></g><path d="M13.58 6h8.64a8.95 8.95 0 0 0-.26 1.68c0 .35.09.78.26 1.32h-8.88l.24-1.5c.03-.33.03-.83 0-1.5z" fill="#5f62b9"/></g></g></svg>