<svg fill="#878a9e" xmlns="http://www.w3.org/2000/svg" xmlns:xlink="http://www.w3.org/1999/xlink"
    viewBox="0 0 24 24" focusable="false" aria-hidden="true" class="css-6qu7l6">
    <path fill-rule="evenodd" clip-rule="evenodd"
        d="M16.6063 16.5524C16.8319 16.8352 17.174 17 17.5358 17C18.8967 17 20 15.8967 20 14.5358V8.68421C20 7.75405 19.246 7 18.3158 7H5.68421C4.75405 7 4 7.75405 4 8.68421V14.5358C4 15.8967 5.10327 17 6.46423 17C6.82602 17 7.16813 16.8352 7.39368 16.5524L8.39547 15.2959C10.2411 12.9812 13.7589 12.9812 15.6045 15.2959L16.6063 16.5524ZM15.0426 17.7992C15.2166 18.0175 15.4166 18.2096 15.6362 18.3725C16.18 18.7757 16.8445 19 17.5358 19C20.0013 19 22 17.0013 22 14.5358V8.68421C22 6.64948 20.3505 5 18.3158 5H5.68421C3.64948 5 2 6.64948 2 8.68421V14.5358C2 17.0013 3.9987 19 6.46423 19C7.43473 19 8.3524 18.558 8.95744 17.7992L9.95923 16.5428C11.0042 15.2323 12.9958 15.2323 14.0408 16.5428L15.0426 17.7992ZM9 9.25C9 8.83579 8.66421 8.5 8.25 8.5C7.83579 8.5 7.5 8.83579 7.5 9.25V10H6.75C6.33579 10 6 10.3358 6 10.75C6 11.1642 6.33579 11.5 6.75 11.5H7.5V12.25C7.5 12.6642 7.83579 13 8.25 13C8.66421 13 9 12.6642 9 12.25V11.5H9.75C10.1642 11.5 10.5 11.1642 10.5 10.75C10.5 10.3358 10.1642 10 9.75 10H9V9.25ZM16.5 9.25C16.5 8.83579 16.1642 8.5 15.75 8.5C15.3358 8.5 15 8.83579 15 9.25C15 9.66421 15.3358 10 15.75 10C16.1642 10 16.5 9.66421 16.5 9.25ZM14.25 10C14.6642 10 15 10.3358 15 10.75C15 11.1642 14.6642 11.5 14.25 11.5C13.8358 11.5 13.5 11.1642 13.5 10.75C13.5 10.3358 13.8358 10 14.25 10ZM17.25 10C17.6642 10 18 10.3358 18 10.75C18 11.1642 17.6642 11.5 17.25 11.5C16.8358 11.5 16.5 11.1642 16.5 10.75C16.5 10.3358 16.8358 10 17.25 10ZM15.75 11.5C16.1642 11.5 16.5 11.8358 16.5 12.25C16.5 12.6642 16.1642 13 15.75 13C15.3358 13 15 12.6642 15 12.25C15 11.8358 15.3358 11.5 15.75 11.5Z"></path>
</svg>
