<svg xmlns="http://www.w3.org/2000/svg" xmlns:xlink="http://www.w3.org/1999/xlink" width="92" height="92" xmlns:v="https://vecta.io/nano"><defs><path d="M27.21 0h9.58c8.62 0 12.37 1.02 15.96 2.94a19.99 19.99 0 0 1 8.31 8.31C62.98 14.84 64 18.6 64 27.21v9.58c0 8.62-1.02 12.37-2.94 15.96a19.99 19.99 0 0 1-8.31 8.31C49.16 62.98 45.4 64 36.79 64H27.2c-8.62 0-12.37-1.02-15.96-2.94a19.99 19.99 0 0 1-8.31-8.31C1.02 49.16 0 45.4 0 36.79V27.2c0-8.62 1.02-12.37 2.94-15.96a19.99 19.99 0 0 1 8.31-8.31C14.84 1.02 18.6 0 27.21 0z" id="A"/><filter x="-37.5%" y="-28.1%" width="175%" height="175%" id="B"><feOffset dy="6" in="SourceAlpha"/><feGaussianBlur stdDeviation="7"/><feColorMatrix values="0 0 0 0 0 0 0 0 0 0 0 0 0 0 0 0 0 0 0.08 0" result="C"/><feMorphology radius="5" in="SourceAlpha"/><feOffset dy="10"/><feGaussianBlur stdDeviation="5"/><feColorMatrix values="0 0 0 0 0 0 0 0 0 0 0 0 0 0 0 0 0 0 0.06 0" result="G"/><feMerge><feMergeNode in="C"/><feMergeNode in="G"/></feMerge></filter><linearGradient x1="9.78%" y1="6.94%" x2="85.03%" y2="91.94%" id="C"><stop stop-color="#fff" stop-opacity=".75" offset="0%"/><stop stop-color="#377cb9" offset="100%"/></linearGradient><linearGradient x1="50%" y1="50%" x2="82.92%" y2="85.11%" id="D"><stop stop-color="#fff" offset="0%"/><stop stop-color="#b5d7f6" offset="100%"/></linearGradient></defs><g fill="none" fill-rule="evenodd"><g fill-rule="nonzero" transform="translate(14 8)"><use fill="#000" filter="url(#B)" xlink:href="#A"/><use fill="#50a9f9" xlink:href="#A"/></g><path d="M54.73 52.38c5.53.5 9.27 1.5 9.27 2.62 0 1.66-8.06 3-18 3h-.43C35.83 57.96 28 56.63 28 55c0-1.07 3.35-2 8.38-2.54 2.1 1.55 5.4 2.54 9.12 2.54 3.68 0 6.95-.98 9.06-2.5z" fill="#2c7fca"/><g transform="translate(29 22)"><circle fill="url(#C)" cx="17" cy="17" r="15"/><path d="M17 0a17 17 0 1 0 0 34 17 17 0 0 0 0-34zM6.35 14.6l4.92 1.6 1.56 4.8-3.05 4.19h-5a14.63 14.63 0 0 1-2.49-7.64l4.06-2.95zm-.9-6.71a14.79 14.79 0 0 1 6.52-4.73L16 6.1v5.17l-4.08 2.97L7 12.64 5.46 7.9zm9.06 14.33h5.04l3.04 4.19-1.54 4.74a14.69 14.69 0 0 1-8.04.02l-1.54-4.76 3.04-4.19zm3.56-10.96V6.09l4-2.91c2.58.95 4.81 2.6 6.49 4.71L27 12.65l-4.86 1.58-4.08-2.97zM21.23 21l1.56-4.8 4.86-1.58 4.06 2.95c-.1 2.8-1 5.42-2.48 7.62h-4.96L21.23 21z" fill="url(#D)"/></g></g></svg>
