<svg fill="#878a9e" xmlns="http://www.w3.org/2000/svg" xmlns:xlink="http://www.w3.org/1999/xlink"
    viewBox="0 0 24 24" focusable="false" aria-hidden="true" class="css-6qu7l6">
    <path fill-rule="evenodd" clip-rule="evenodd"
        d="M2 4C2 2.89543 2.89543 2 4 2H5.27924C6.1401 2 6.90438 2.55086 7.17661 3.36754L7.72076 5H9V4C9 2.89543 9.89543 2 11 2H13C14.1046 2 15 2.89543 15 4V5H16.2792L16.8234 3.36754C17.0956 2.55086 17.8599 2 18.7208 2H20C21.1046 2 22 2.89543 22 4V8.73444C22 9.08249 21.9092 9.42452 21.7365 9.72671L20 12.7656V20C20 21.1046 19.1046 22 18 22H14.0962C13.4908 22 13 21.5092 13 20.9038V18C13 17.4477 12.5523 17 12 17C11.4477 17 11 17.4477 11 18V20.9038C11 21.5092 10.5092 22 9.90385 22H6C4.89543 22 4 21.1046 4 20V12.7656L2.26351 9.72671C2.09083 9.42452 2 9.08249 2 8.73444V4ZM5.27924 4H4V8.73444L5.73649 11.7733C5.90917 12.0755 6 12.4175 6 12.7656V20H9V18C9 16.3431 10.3431 15 12 15C13.6569 15 15 16.3431 15 18V20H18V12.7656C18 12.4175 18.0908 12.0755 18.2635 11.7733L20 8.73444V4H18.7208L18.1766 5.63246C17.9044 6.44914 17.1401 7 16.2792 7H15C13.8954 7 13 6.10457 13 5V4H11V5C11 6.10457 10.1046 7 9 7H7.72076C6.8599 7 6.09562 6.44914 5.82339 5.63246L5.27924 4Z"></path>
</svg>
