<svg xmlns="http://www.w3.org/2000/svg" xmlns:xlink="http://www.w3.org/1999/xlink" width="92" height="92" xmlns:v="https://vecta.io/nano"><defs><path d="M27.21 0h9.58c8.62 0 12.37 1.02 15.96 2.94a19.99 19.99 0 0 1 8.31 8.31C62.98 14.84 64 18.6 64 27.21v9.58c0 8.62-1.02 12.37-2.94 15.96a19.99 19.99 0 0 1-8.31 8.31C49.16 62.98 45.4 64 36.79 64H27.2c-8.62 0-12.37-1.02-15.96-2.94a19.99 19.99 0 0 1-8.31-8.31C1.02 49.16 0 45.4 0 36.79V27.2c0-8.62 1.02-12.37 2.94-15.96a19.99 19.99 0 0 1 8.31-8.31C14.84 1.02 18.6 0 27.21 0z" id="A"/><filter x="-37.5%" y="-28.1%" width="175%" height="175%" id="B"><feOffset dy="6" in="SourceAlpha"/><feGaussianBlur stdDeviation="7"/><feColorMatrix values="0 0 0 0 0 0 0 0 0 0 0 0 0 0 0 0 0 0 0.08 0" result="C"/><feMorphology radius="5" in="SourceAlpha"/><feOffset dy="10"/><feGaussianBlur stdDeviation="5"/><feColorMatrix values="0 0 0 0 0 0 0 0 0 0 0 0 0 0 0 0 0 0 0.06 0" result="G"/><feMerge><feMergeNode in="C"/><feMergeNode in="G"/></feMerge></filter><linearGradient x1="33.41%" y1="13.27%" x2="65.66%" y2="100%" id="C"><stop stop-color="#fff" offset="0%"/><stop stop-color="#cafcb2" offset="100%"/></linearGradient></defs><g fill="none" fill-rule="evenodd"><g fill-rule="nonzero" transform="translate(14 8)"><use fill="#000" filter="url(#B)" xlink:href="#A"/><use fill="#40c914" xlink:href="#A"/></g><path fill="#30a70a" d="M33 48h26l7 10H26z"/><path d="M58.45 31.41c-1.91-1.88-5.35-3.88-6-5.42-.34-.55-2.12-.69-3.08-1.12.09-1.09.51-1.89.72-2.87-1.92 0-3.28.52-4.36 1.28-5.38.27-8.54 4.33-9.08 8.77-.58 4.82 1.96 7.98 1.45 12.71.58.27 1.27.5 2.01.68l-1.65 3.35h1.87a.63.63 0 0 0-.02.15v.63c0 .1.02.19.06.27h-.56c-.47 0-.84.33-.84.74v.39H36.7c-.47 0-.85.33-.85.74L35 54.26c0 .4.38.74.85.74h18.8c.46 0 .84-.33.84-.74l-.7-2.55c0-.41-.39-.74-.85-.74h-1.55v-.39c0-.4-.38-.74-.85-.74H51a.66.66 0 0 0 .06-.27v-.63c0-.05 0-.1-.02-.15h.71c1.13 0 1.18-.8 1.44-2.38.49-6.38-3.18-9.12-6.54-12.13 2.07.49 2.8-.78 4.73-.63 1.5.1 2.24 1.63 3.45 1.75a4.65 4.65 0 0 0 3.63-1.43c.8-.87.66-2 0-2.56z" fill="#39b611"/><path d="M58.45 29.98c-1.91-2-5.35-4.11-6-5.75-.34-.59-2.12-.73-3.08-1.18.09-1.16.51-2 .72-3.05-1.92 0-3.28.55-4.36 1.35-5.38.3-8.54 4.6-9.08 9.3-.58 5.13 1.96 8.47 1.45 13.5.58.28 1.27.52 2.01.71l-1.65 3.55h1.87a.7.7 0 0 0-.02.16v.68a.67.67 0 0 0 .06.28h-.57c-.47 0-.84.35-.84.79v.4H36.7c-.47 0-.85.36-.85.8L35 54.2c0 .44.38.79.85.79h18.8c.46 0 .84-.35.84-.79l-.7-2.7c0-.43-.39-.79-.85-.79h-1.55v-.4c0-.44-.38-.8-.85-.8H51a.73.73 0 0 0 .06-.27v-.68c0-.05 0-.1-.02-.16h.71c1.13 0 1.18-.85 1.44-2.52.49-6.77-3.18-9.67-6.54-12.86 2.07.51 2.8-.83 4.73-.68 1.5.12 2.24 1.73 3.45 1.86 1.37.15 2.83-.6 3.63-1.52s.66-2.12 0-2.7z" fill="url(#C)"/><path d="M51 27a2 2 0 1 0-4 0 .47.47 0 0 0 .6.45 4.83 4.83 0 0 1 2.8 0A.47.47 0 0 0 51 27z" fill="#28840b"/></g></svg>