<svg fill="#878a9e" xmlns="http://www.w3.org/2000/svg" xmlns:xlink="http://www.w3.org/1999/xlink" viewBox="0 0 24 24" focusable="false" aria-hidden="true" class="css-6qu7l6">
    <path fill-rule="evenodd" clip-rule="evenodd"
        d="M12 19C15.866 19 19 15.866 19 12C19 8.13401 15.866 5 12 5C8.13401 5 5 8.13401 5 12C5 15.866 8.13401 19 12 19ZM12 22C17.5228 22 22 17.5228 22 12C22 6.47715 17.5228 2 12 2C6.47715 2 2 6.47715 2 12C2 17.5228 6.47715 22 12 22Z"></path>
    <path
        d="M13.5341 11.9003C14.0038 12.0259 14.3636 12.2548 14.6136 12.5873C14.8712 12.9197 15 13.3259 15 13.8061C15 14.4931 14.7348 15.0323 14.2045 15.4238C13.6742 15.8079 12.9394 16 12 16C11.0606 16 10.3258 15.8079 9.79545 15.4238C9.26515 15.0323 9 14.4931 9 13.8061C9 13.3259 9.12879 12.9197 9.38636 12.5873C9.64394 12.2475 10.0076 12.0185 10.4773 11.9003C10.0758 11.7525 9.76136 11.5235 9.53409 11.2133C9.30682 10.8957 9.19318 10.5263 9.19318 10.1053C9.19318 9.45522 9.44318 8.94183 9.94318 8.5651C10.4432 8.18837 11.1288 8 12 8C12.8712 8 13.5568 8.18837 14.0568 8.5651C14.5568 8.94183 14.8068 9.45522 14.8068 10.1053C14.8068 10.5337 14.6932 10.9067 14.4659 11.2244C14.2386 11.542 13.928 11.7673 13.5341 11.9003ZM12 9.11911C11.053 9.11911 10.5795 9.49584 10.5795 10.2493C10.5795 10.626 10.697 10.9141 10.9318 11.1136C11.1742 11.3056 11.5303 11.4017 12 11.4017C12.4697 11.4017 12.822 11.3056 13.0568 11.1136C13.2992 10.9141 13.4205 10.626 13.4205 10.2493C13.4205 9.49584 12.947 9.11911 12 9.11911ZM12 14.8809C13.0833 14.8809 13.625 14.4857 13.625 13.6953C13.625 12.9049 13.0833 12.5097 12 12.5097C10.9167 12.5097 10.375 12.9049 10.375 13.6953C10.375 14.4857 10.9167 14.8809 12 14.8809Z"></path>
</svg>
