<svg xmlns="http://www.w3.org/2000/svg" xmlns:xlink="http://www.w3.org/1999/xlink" width="92" height="92" xmlns:v="https://vecta.io/nano"><defs><path d="M27.21 0h9.58c8.62 0 12.37 1.02 15.96 2.94a19.99 19.99 0 0 1 8.31 8.31C62.98 14.84 64 18.6 64 27.21v9.58c0 8.62-1.02 12.37-2.94 15.96a19.99 19.99 0 0 1-8.31 8.31C49.16 62.98 45.4 64 36.79 64H27.2c-8.62 0-12.37-1.02-15.96-2.94a19.99 19.99 0 0 1-8.31-8.31C1.02 49.16 0 45.4 0 36.79V27.2c0-8.62 1.02-12.37 2.94-15.96a19.99 19.99 0 0 1 8.31-8.31C14.84 1.02 18.6 0 27.21 0z" id="A"/><filter x="-37.5%" y="-28.1%" width="175%" height="175%" id="B"><feOffset dy="6" in="SourceAlpha"/><feGaussianBlur stdDeviation="7"/><feColorMatrix values="0 0 0 0 0 0 0 0 0 0 0 0 0 0 0 0 0 0 0.08 0" result="C"/><feMorphology radius="5" in="SourceAlpha"/><feOffset dy="10"/><feGaussianBlur stdDeviation="5"/><feColorMatrix values="0 0 0 0 0 0 0 0 0 0 0 0 0 0 0 0 0 0 0.06 0" result="G"/><feMerge><feMergeNode in="C"/><feMergeNode in="G"/></feMerge></filter><linearGradient x1="12.65%" y1="13.33%" x2="92.74%" y2="81.21%" id="C"><stop stop-color="#ffd6c4" offset="0%"/><stop stop-color="#f16021" offset="100%"/></linearGradient><linearGradient x1="50%" y1="50%" x2="83.48%" y2="86.33%" id="D"><stop stop-color="#fff" offset="0%"/><stop stop-color="#fccdb9" offset="100%"/></linearGradient></defs><g fill="none" fill-rule="evenodd"><g fill-rule="nonzero" transform="translate(14 8)"><use fill="#000" filter="url(#B)" xlink:href="#A"/><use fill="#f88756" xlink:href="#A"/></g><g transform="translate(28 24)"><ellipse fill="#e06028" cx="18" cy="31" rx="18" ry="3"/><circle fill="url(#C)" fill-rule="nonzero" cx="18" cy="16" r="15"/><circle fill="#c45f33" cx="24" cy="8" r="3"/><path d="M33.9 14.87l-.02-.24v-.18a16.27 16.27 0 0 0-4.18-9.34c-.24-.2-.46-.42-.66-.65a1.42 1.42 0 0 0-.4-.33c-3-2.68-6.33-4-10.46-4.13A16.35 16.35 0 0 0 7.3 4.04a18.2 18.2 0 0 1-1.43 1.44 17.41 17.41 0 0 0-2.8 4.65C2.45 11.83 2.11 13.37 2 15a646.28 646.28 0 0 0 0 2.02 16.17 16.17 0 0 0 4.08 9.7c.08.1.17.19.28.26.16.2.33.4.56.58l.08.08A16.29 16.29 0 0 0 17.2 32h1.6c1.63-.14 3.2-.47 4.83-1 .16-.06.3-.15.43-.25 6.08-2.69 9.31-7.3 9.86-14.06.1-.38.1-.82.02-1.21 0-.25-.02-.45-.04-.61zM25.93 4.03c-.52.35-.57.38-1.04.64-.78-.45-2.86-1.24-3.9.2A37.5 37.5 0 0 0 16 2c2.94 0 6.56-.26 9.93 2.03zM9.5 26c-4.93-4.26-6.12-10.57-4.12-14.8 1.2-1.05 6.14-4.75 14.64-2.3.03.13 0 1.27 1.97 2.96C19.33 16.23 13.67 22.02 9.5 26zM23 9.42a2.52 2.52 0 0 1-.98-1.67c0-.06-.01-.11-.03-.16v-.05-.16c.02-.06.03-.11.03-.17.07-.59.32-.9.87-1.11.2-.07.4-.1.6-.1.79 0 1.52.48 1.9.95v.02c.49.58.68 1.18.61 1.83-.06.47-.26.76-.72 1.05-.16.1-.4.15-.66.15-.68 0-1.35-.3-1.55-.51l-.04-.03-.03-.04zm8.69 6.6c-.37 7.16-6.36 11.47-7.75 12.05 2.53-4.26 3.17-9.84 2.02-16.04 1.15-.4 1.92-.99 2.05-2.03 1.93.65 3.68 3.04 3.68 6.03z" fill="url(#D)"/></g></g></svg>