<svg xmlns="http://www.w3.org/2000/svg" xmlns:xlink="http://www.w3.org/1999/xlink" width="24" height="24"><defs><path id="A" d="M7.692 0h8.617c2.675 0 3.644.278 4.622.801a5.45 5.45 0 0 1 2.268 2.268c.523.978.801 1.948.801 4.622v8.617c0 2.675-.278 3.644-.801 4.622a5.45 5.45 0 0 1-2.268 2.268c-.978.523-1.948.801-4.622.801H7.692c-2.675 0-3.644-.278-4.622-.801a5.45 5.45 0 0 1-2.268-2.268C.278 19.953 0 18.983 0 16.308V7.692c0-2.675.278-3.644.801-4.622A5.45 5.45 0 0 1 3.069.801C4.047.278 5.017 0 7.692 0z"/></defs><g fill-rule="evenodd"><mask id="B" fill="#fff"><use xlink:href="#A"/></mask><use fill="#eee" xlink:href="#A"/><path fill="#999" d="M11.077 9.364l-3.694 3.515a1.2 1.2 0 0 0 0 1.757c.51.485 1.337.485 1.847 0L12 12l2.77 2.636c.51.485 1.337.485 1.847 0a1.2 1.2 0 0 0 0-1.757l-3.694-3.515c-.51-.485-1.337-.485-1.847 0z" mask="url(#B)"/></g></svg>