<?xml version="1.0" standalone="no"?>
<!DOCTYPE svg PUBLIC "-//W3C//DTD SVG 20010904//EN"
 "http://www.w3.org/TR/2001/REC-SVG-20010904/DTD/svg10.dtd">
<svg version="1.0" xmlns="http://www.w3.org/2000/svg"
 width="1142.000000pt" height="1142.000000pt" viewBox="0 0 1142.000000 1142.000000"
 preserveAspectRatio="xMidYMid meet">

<g transform="translate(0.000000,1142.000000) scale(0.100000,-0.100000)"
fill="#000000" stroke="none">
<path d="M3230 11385 c0 -21 5 -36 13 -36 6 -1 26 -3 42 -4 49 -3 52 -4 58
-22 4 -10 22 -45 41 -78 34 -59 36 -60 78 -60 42 -1 88 13 88 27 0 4 -7 13
-15 21 -8 8 -24 33 -37 56 -13 23 -28 52 -35 64 -7 12 -9 23 -5 24 4 1 19 4
34 7 19 4 26 11 22 21 -5 12 -31 15 -145 15 l-139 0 0 -35z"/>
<path d="M5170 11410 c0 -6 20 -30 45 -54 25 -25 45 -50 45 -57 0 -17 50 -69
67 -69 7 0 12 -6 11 -12 -4 -17 78 -23 96 -9 23 19 79 1 114 -36 32 -34 34
-35 64 -20 29 14 29 15 9 22 -26 8 -27 17 -1 33 18 11 20 10 20 -8 0 -31 14
-24 31 16 l16 36 28 -26 c32 -30 34 -30 67 -13 47 24 58 41 44 68 -9 19 -19
23 -42 21 -16 -2 -39 -10 -51 -18 -42 -27 -27 11 16 40 37 26 91 80 91 91 0 3
-124 5 -275 5 -268 0 -275 0 -275 -20 0 -11 -4 -20 -10 -20 -5 0 -10 -9 -10
-20 0 -11 -4 -20 -10 -20 -5 0 -10 12 -10 28 0 15 -4 32 -8 37 -10 14 -72 19
-72 5z m560 -160 c0 -5 -2 -10 -4 -10 -3 0 -8 5 -11 10 -3 6 -1 10 4 10 6 0
11 -4 11 -10z"/>
<path d="M8490 11390 c41 -35 41 -35 105 -80 28 -19 56 -40 63 -47 7 -7 17
-13 22 -13 5 0 15 -6 22 -13 7 -7 31 -26 53 -42 22 -17 42 -32 45 -36 3 -3 37
-27 75 -54 39 -27 75 -55 80 -61 6 -6 26 -22 45 -35 19 -13 40 -28 46 -34 6
-5 22 -17 34 -25 12 -8 28 -20 34 -25 6 -6 36 -28 66 -50 61 -44 64 -47 99
-75 13 -11 27 -20 30 -20 3 0 22 -14 41 -30 44 -38 49 -42 81 -62 14 -9 32
-23 40 -30 8 -7 37 -30 66 -50 53 -38 73 -53 128 -100 36 -31 46 -33 63 -16
13 13 -14 43 -68 74 -16 10 -30 22 -30 26 0 4 -7 8 -15 8 -8 0 -15 3 -15 8 0
4 -16 18 -35 31 -19 13 -45 32 -57 43 -13 11 -43 34 -68 51 -25 17 -47 33 -50
36 -3 3 -13 11 -22 16 -15 9 -515 384 -561 421 -9 8 -21 14 -26 14 -5 0 -11 4
-13 8 -1 5 -28 26 -58 48 -30 21 -57 41 -60 44 -3 3 -23 18 -46 33 -22 15 -50
36 -62 47 -12 12 -35 20 -54 20 l-33 0 35 -30z"/>
<path d="M8784 11395 c15 -14 29 -25 32 -25 9 0 144 -105 144 -112 0 -5 5 -8
11 -8 10 0 127 -83 190 -134 16 -13 118 -91 149 -114 10 -7 20 -9 23 -5 6 10
-105 103 -122 103 -7 0 -9 5 -6 10 3 6 2 10 -3 10 -16 0 -167 121 -164 131 1
6 -2 8 -8 4 -5 -3 -45 20 -87 52 -116 86 -156 113 -172 113 -8 0 -3 -10 13
-25z"/>
<path d="M8960 11406 c8 -7 94 -72 190 -143 97 -72 183 -138 192 -147 9 -9 19
-16 23 -16 6 0 66 -40 75 -51 3 -3 22 -18 43 -33 40 -31 56 -27 79 18 10 20 9
19 -11 -1 -12 -13 -24 -23 -27 -23 -6 0 -109 81 -137 107 -11 10 -23 17 -28
16 -5 -2 -9 1 -9 7 0 6 -7 10 -15 10 -8 0 -15 4 -15 9 0 5 -14 14 -31 21 -19
8 -28 18 -25 27 3 8 1 11 -4 8 -10 -6 -133 81 -181 129 -15 14 -30 26 -34 26
-5 0 -23 11 -41 25 -35 27 -70 36 -44 11z"/>
<path d="M9984 11395 c15 -14 29 -25 32 -25 3 0 14 -9 26 -20 29 -26 34 -25
41 8 3 15 9 35 12 45 6 15 0 17 -65 17 l-73 0 27 -25z"/>
<path d="M8970 11356 c0 -2 7 -7 16 -10 8 -3 12 -2 9 4 -6 10 -25 14 -25 6z"/>
<path d="M3555 11230 c3 -5 8 -10 11 -10 2 0 4 5 4 10 0 6 -5 10 -11 10 -5 0
-7 -4 -4 -10z"/>
<path d="M1745 11209 c-48 -29 -67 -69 -80 -169 -4 -25 -11 -66 -17 -92 -10
-47 -11 -48 -47 -48 l-37 0 -18 78 c-10 43 -21 84 -26 91 -13 21 -54 -46 -85
-139 -15 -47 -31 -89 -36 -95 -4 -5 -10 -28 -14 -50 -4 -22 -3 -35 2 -29 9 14
91 40 99 32 5 -5 -14 -104 -56 -292 -11 -50 -20 -102 -20 -116 0 -26 67 -170
101 -217 10 -14 41 -30 85 -43 38 -12 78 -25 89 -30 48 -22 208 -70 267 -80
34 -5 86 -9 113 -9 56 1 47 5 -38 14 -49 6 -59 10 -72 33 -7 15 -25 40 -39 56
-14 16 -26 32 -26 35 0 3 -11 18 -24 32 -49 53 -122 307 -136 471 -6 68 -12
138 -14 156 -4 28 -2 32 20 32 13 0 24 5 24 12 0 6 9 3 20 -7 11 -10 20 -22
20 -27 0 -6 14 -39 30 -75 17 -35 30 -69 30 -75 0 -20 142 -152 355 -330 88
-74 163 -128 176 -128 8 0 21 -6 27 -12 10 -10 15 -10 22 2 6 9 5 17 -2 21 -8
5 -9 12 -2 21 6 7 11 24 12 38 1 14 29 104 63 200 84 235 83 269 -3 314 -101
53 -174 78 -268 92 -185 28 -305 44 -337 44 l-32 0 23 44 c13 24 26 56 30 70
6 24 50 56 86 62 14 3 36 11 130 50 24 11 66 19 92 19 26 0 48 1 48 2 0 1 -19
11 -43 21 -35 16 -69 19 -178 20 -74 1 -170 4 -214 7 -54 4 -87 2 -100 -6z"/>
<path d="M9625 11140 c3 -5 8 -10 11 -10 2 0 4 5 4 10 0 6 -5 10 -11 10 -5 0
-7 -4 -4 -10z"/>
<path d="M3760 11130 c0 -5 -7 -10 -15 -10 -8 0 -15 -4 -15 -9 0 -5 -25 -11
-55 -13 -30 -3 -63 -12 -72 -20 -10 -9 -29 -16 -43 -16 -58 0 -122 -9 -128
-19 -4 -6 -58 -14 -119 -18 -86 -6 -113 -11 -113 -21 0 -10 -14 -14 -46 -14
-25 0 -43 3 -41 8 3 4 -8 7 -24 7 -25 0 -29 -4 -29 -27 0 -16 4 -28 9 -28 5 0
11 -9 14 -19 4 -17 9 -18 43 -10 22 5 68 14 104 19 36 5 90 14 120 20 90 18
200 38 275 50 39 6 90 16 115 21 132 28 302 59 353 65 59 7 67 13 42 34 -10 8
-15 9 -15 1 0 -7 -8 -8 -26 -1 -34 13 -334 13 -334 0z m67 -56 c-3 -3 -12 -4
-19 -1 -8 3 -5 6 6 6 11 1 17 -2 13 -5z"/>
<path d="M9611 11118 c-1 -10 -4 -18 -9 -18 -4 0 -13 -10 -21 -22 -11 -20 -10
-20 14 3 15 15 25 33 22 40 -4 10 -6 9 -6 -3z"/>
<path d="M9299 11112 c9 -7 10 -11 2 -15 -7 -4 -8 -5 0 -3 15 2 13 20 -3 24
-10 3 -10 2 1 -6z"/>
<path d="M6790 11099 c0 -10 26 -24 63 -33 19 -5 27 -3 27 7 0 8 -19 18 -45
24 -25 6 -45 7 -45 2z"/>
<path d="M6910 11090 c0 -6 6 -12 13 -14 6 -2 55 -16 107 -31 124 -35 143 -41
220 -60 36 -10 85 -23 110 -31 25 -7 57 -16 72 -19 15 -3 29 -13 32 -23 5 -14
37 -26 129 -51 67 -18 172 -46 232 -63 61 -17 127 -33 148 -35 20 -3 37 -9 37
-13 0 -4 17 -11 38 -14 39 -7 106 -25 207 -55 33 -10 87 -26 120 -35 33 -10
74 -21 90 -26 17 -5 68 -18 115 -30 47 -11 105 -27 130 -35 25 -8 88 -26 140
-39 52 -14 119 -31 148 -39 43 -13 52 -13 52 -1 0 7 -17 18 -37 23 -21 6 -92
24 -157 41 -66 17 -122 33 -126 35 -4 2 -58 17 -121 34 -63 16 -170 46 -239
66 -69 20 -165 47 -215 60 -87 22 -280 75 -495 134 -58 17 -121 33 -141 36
-25 5 -40 14 -48 31 -7 16 -19 24 -35 24 -14 0 -37 5 -53 11 -15 6 -75 23
-133 39 -58 16 -152 43 -210 59 -115 34 -130 36 -130 21z"/>
<path d="M11393 11061 c-13 -24 -17 -43 -12 -48 5 -5 16 -38 24 -74 l14 -64
-2 113 c-1 61 -2 112 -2 112 -1 0 -11 -18 -22 -39z"/>
<path d="M11045 11051 c-27 -11 -95 -33 -150 -50 -243 -77 -331 -105 -341
-113 -10 -7 -20 -26 -55 -101 -11 -24 -10 -32 11 -70 70 -128 76 -147 49 -147
-6 0 -40 -13 -76 -30 -35 -16 -68 -30 -73 -30 -8 0 -89 -44 -130 -70 -8 -5
-28 -16 -45 -24 -16 -7 -49 -31 -71 -52 -23 -22 -53 -49 -67 -61 -36 -30 -46
-72 -22 -90 21 -15 66 -17 81 -5 5 5 37 19 71 31 34 13 69 31 79 42 9 10 22
19 27 19 6 0 24 11 41 24 30 23 120 47 221 61 28 3 58 8 67 11 12 4 21 -2 28
-18 38 -83 67 -121 105 -134 47 -17 17 -24 370 92 l250 81 3 129 c2 100 -1
141 -14 184 -22 71 -54 136 -79 163 -31 33 -55 74 -55 94 0 10 -17 31 -37 47
-47 38 -116 44 -188 17z m115 -88 c56 -30 106 -93 131 -164 15 -45 17 -62 8
-106 -15 -74 -50 -101 -185 -146 -89 -29 -117 -34 -154 -28 -68 11 -131 47
-171 99 -78 102 -89 224 -24 281 19 16 48 32 65 36 17 4 43 13 58 21 15 8 36
14 47 14 11 1 34 7 50 15 41 19 118 9 175 -22z"/>
<path d="M10980 10925 c-19 -7 -61 -21 -93 -31 -72 -21 -103 -44 -110 -83 -14
-67 45 -174 121 -218 46 -27 67 -27 157 1 28 9 70 21 95 28 113 33 136 129 55
236 -56 75 -140 100 -225 67z m140 -57 c0 -5 -16 -30 -36 -54 -20 -25 -35 -46
-33 -47 2 -2 24 -12 49 -22 58 -24 67 -32 53 -46 -9 -9 -24 -8 -60 4 -26 8
-61 19 -78 24 -23 6 -31 15 -33 36 -3 23 2 29 27 38 17 6 31 14 31 19 0 4 12
21 27 37 26 28 53 34 53 11z"/>
<path d="M9357 11053 c-10 -9 -9 -23 2 -23 5 0 11 7 15 15 5 15 -5 20 -17 8z"/>
<path d="M9581 10937 c-13 -21 -12 -21 5 -5 10 10 16 20 13 22 -3 3 -11 -5
-18 -17z"/>
<path d="M9550 10898 c1 -7 44 -44 97 -83 52 -38 107 -79 121 -91 l26 -21 23
34 c30 44 29 56 -1 18 -23 -29 -25 -29 -43 -13 -23 23 -67 57 -134 107 -30 22
-59 45 -66 51 -16 13 -23 13 -23 -2z"/>
<path d="M9882 10839 c-19 -30 -8 -34 12 -4 9 14 13 25 9 25 -5 0 -14 -9 -21
-21z"/>
<path d="M4622 10120 c7 -10 14 -18 15 -16 6 6 -9 36 -18 36 -5 0 -4 -9 3 -20z"/>
<path d="M3483 9780 c5 -21 -7 -28 -18 -10 -8 12 -45 -6 -45 -22 0 -6 6 -5 17
3 14 12 16 12 11 -1 -2 -8 -20 -18 -39 -21 l-34 -6 36 -2 c20 0 49 4 66 9 25
9 29 15 25 40 -2 17 -9 30 -14 30 -6 0 -8 -9 -5 -20z"/>
<path d="M9249 9395 c-39 -41 -69 -63 -78 -60 -17 7 -61 -32 -61 -54 0 -9 12
-47 26 -86 14 -38 29 -81 34 -95 5 -14 18 -50 30 -80 12 -30 25 -66 30 -80 41
-126 63 -157 140 -199 25 -14 81 -47 125 -75 44 -28 97 -60 118 -71 21 -11 47
-28 57 -37 11 -10 22 -18 25 -18 3 0 24 -12 48 -27 23 -15 57 -36 76 -46 l33
-18 30 27 c15 16 27 36 26 46 -2 10 23 43 61 82 59 60 64 67 53 88 -6 13 -21
49 -33 81 -21 57 -21 58 -55 51 -45 -8 -123 28 -212 100 -70 56 -186 179 -212
224 -8 15 -17 29 -21 32 -3 3 -15 24 -27 48 -23 44 -31 132 -12 132 24 0 5 19
-57 55 -37 22 -70 41 -73 43 -4 1 -36 -27 -71 -63z m426 -540 c47 -30 88 -55
90 -55 3 0 28 -15 57 -33 29 -19 61 -36 71 -40 25 -9 21 -17 -39 -70 l-53 -49
-87 54 c-124 76 -157 96 -174 104 -64 31 -64 31 -7 90 28 30 53 54 55 54 1 0
41 -25 87 -55z"/>
<path d="M0 9332 c0 -34 47 -71 155 -121 146 -69 172 -81 238 -110 38 -17 70
-31 73 -31 2 0 35 -14 72 -31 37 -17 94 -43 127 -59 33 -15 80 -36 105 -48 25
-11 76 -35 114 -52 183 -82 268 -121 331 -151 33 -16 63 -29 67 -29 4 0 46
-18 95 -41 48 -22 113 -52 143 -65 30 -14 67 -31 82 -39 14 -8 32 -15 39 -15
7 0 20 -6 28 -14 9 -7 30 -18 46 -24 17 -6 55 -20 85 -32 39 -15 88 -23 168
-27 l113 -6 87 44 c98 50 98 50 113 103 13 46 6 58 -13 20 -19 -39 -154 -106
-226 -112 -84 -7 -233 23 -292 59 -8 5 -31 17 -50 25 -19 9 -58 27 -86 40 -28
13 -54 24 -57 24 -3 0 -41 16 -84 36 -43 20 -103 47 -133 61 -30 14 -84 38
-120 55 -36 17 -78 36 -95 43 -16 7 -64 29 -105 48 -41 19 -113 52 -160 72
-47 21 -122 55 -168 76 -46 22 -86 39 -89 39 -3 0 -48 20 -100 45 -52 25 -96
45 -98 45 -3 0 -40 16 -82 36 -43 19 -94 42 -113 51 -19 9 -42 20 -50 24 -8 5
-25 13 -37 19 -12 5 -41 23 -64 40 -52 37 -59 37 -59 2z"/>
<path d="M3094 9195 c2 -22 -1 -51 -6 -64 -4 -13 -5 -51 -2 -86 6 -55 10 -65
33 -76 14 -8 50 -29 79 -47 58 -36 68 -36 56 0 -8 23 -9 33 -12 78 -1 17 -26
50 -69 94 -47 48 -69 80 -74 105 l-8 36 3 -40z"/>
<path d="M158 9076 c-11 -8 -18 -26 -18 -44 0 -26 5 -32 34 -42 45 -15 86 1
86 33 0 44 -68 79 -102 53z"/>
<path d="M9830 9000 c8 -5 20 -10 25 -10 6 0 3 5 -5 10 -8 5 -19 10 -25 10 -5
0 -3 -5 5 -10z"/>
<path d="M11389 8803 c-15 -15 -125 -163 -245 -328 -278 -384 -356 -489 -366
-496 -4 -3 -2 -24 5 -48 10 -35 20 -48 55 -67 38 -22 48 -23 76 -13 33 12 42
23 112 137 22 35 67 105 102 158 34 52 62 96 62 98 0 2 26 43 58 92 33 49 84
130 116 181 l57 92 -3 111 -3 111 -26 -28z"/>
<path d="M2302 8702 c-8 -24 -11 -46 -9 -48 8 -8 29 54 25 73 -2 11 -8 2 -16
-25z"/>
<path d="M7454 8708 c2 -7 18 -74 36 -148 17 -74 36 -151 41 -170 32 -127 42
-168 46 -195 2 -16 8 -39 13 -50 4 -11 19 -68 31 -127 13 -60 29 -106 34 -105
15 6 10 40 -20 153 l-26 101 29 50 c16 27 42 71 57 99 15 27 46 80 68 118 l41
69 -23 18 c-31 25 -36 24 -51 -12 -7 -17 -18 -36 -25 -42 -6 -7 -30 -43 -53
-82 -23 -38 -46 -77 -51 -85 -13 -23 -20 -10 -47 87 -55 202 -66 261 -54 283
6 12 10 22 8 23 -2 1 -13 8 -25 15 -13 6 -25 12 -28 12 -2 0 -3 -6 -1 -12z"/>
<path d="M5970 8663 c0 -6 -9 -9 -19 -6 -11 3 -30 -2 -43 -11 -12 -9 -31 -16
-41 -16 -21 0 -102 -24 -155 -46 -18 -8 -41 -14 -51 -14 -10 0 -40 -8 -67 -19
-49 -19 -379 -127 -484 -158 -30 -9 -93 -29 -140 -45 -46 -15 -92 -28 -102
-28 -10 0 -26 -4 -36 -9 -23 -13 -154 -51 -173 -51 -8 0 -19 -4 -24 -9 -6 -5
-48 -23 -95 -39 -47 -17 -110 -40 -140 -52 -30 -12 -91 -33 -135 -47 -44 -14
-84 -29 -89 -34 -6 -5 -20 -9 -32 -9 -29 0 -54 -10 -54 -21 0 -5 11 -4 24 1
13 5 37 7 53 6 28 -3 28 -4 31 -75 2 -47 7 -71 15 -71 16 0 115 25 152 39 33
12 181 57 295 90 41 12 102 31 135 43 33 11 78 26 100 33 22 6 51 16 65 22 14
6 90 32 170 58 80 25 154 50 165 55 49 23 132 50 149 50 10 0 86 16 170 36 83
20 160 38 171 40 18 3 20 10 17 65 -2 35 1 66 7 72 8 8 11 8 11 -1 0 -7 16
-12 40 -12 22 0 40 -4 40 -8 0 -13 -24 -39 -42 -45 -26 -9 -22 2 5 12 20 8 20
10 4 16 -9 4 -24 2 -32 -5 -17 -14 -20 -70 -4 -70 5 0 8 4 5 8 -7 11 91 58
101 49 3 -4 1 -7 -5 -7 -15 0 -84 -41 -78 -47 2 -3 17 2 33 10 15 9 56 28 91
44 45 20 62 32 58 43 -2 8 -14 46 -25 84 -19 64 -41 106 -41 79z m-210 -188
c0 -8 -7 -15 -15 -15 -8 0 -15 7 -15 15 0 8 7 15 15 15 8 0 15 -7 15 -15z
m-1515 -515 c-3 -5 -11 -10 -16 -10 -6 0 -7 5 -4 10 3 6 11 10 16 10 6 0 7 -4
4 -10z"/>
<path d="M7170 8628 c0 -7 14 -67 31 -133 30 -119 30 -120 12 -155 -10 -19
-21 -37 -24 -40 -3 -3 -17 -23 -30 -45 -70 -118 -81 -128 -77 -73 3 28 -1 34
-19 36 -18 3 -23 -2 -23 -17 0 -14 -6 -21 -20 -21 -14 0 -20 7 -20 21 0 17 -5
20 -25 17 -14 -3 -28 -1 -31 4 -4 5 -15 -5 -26 -23 -11 -17 -25 -38 -31 -45
-27 -30 -37 -43 -37 -49 0 -4 -11 -21 -25 -39 -14 -18 -25 -36 -25 -39 0 -4
-16 -22 -35 -41 -19 -20 -35 -40 -35 -46 0 -5 -4 -10 -10 -10 -5 0 -10 6 -10
13 0 8 -19 22 -42 31 l-43 17 -32 -38 c-18 -21 -38 -49 -45 -63 -6 -14 -23
-40 -37 -59 l-24 -34 89 8 c124 12 153 14 204 20 25 3 77 5 115 6 39 1 75 5
80 9 6 5 89 15 185 24 96 9 204 21 240 27 36 6 88 10 117 10 28 -1 54 3 58 9
4 6 15 8 26 5 11 -4 19 -2 19 5 0 6 -4 9 -9 6 -5 -4 -11 -1 -13 5 -3 9 -9 9
-25 0 -29 -15 -85 -15 -63 0 11 7 3 9 -32 7 -47 -3 -48 -3 -49 27 l-2 30 -4
-27 c-5 -35 -23 -37 -23 -3 0 14 -5 25 -11 25 -8 0 -10 -15 -6 -47 4 -31 3
-41 -3 -28 -5 11 -9 33 -9 48 -1 16 -5 26 -10 23 -5 -3 -11 9 -14 27 -5 33
-26 117 -52 202 -14 46 -91 350 -102 403 -6 23 -23 31 -23 10z m108 -455 c19
-79 20 -90 6 -110 -18 -28 -32 -29 -55 -2 -9 11 -20 20 -23 20 -30 -4 -46 1
-46 14 0 8 5 15 10 15 6 0 10 7 10 15 0 8 9 23 19 32 11 9 26 36 33 60 7 24
15 43 19 43 4 0 16 -39 27 -87z m55 -231 c3 -23 2 -44 -1 -46 -4 -2 -8 13 -10
35 -1 21 -7 51 -12 65 -6 14 -10 35 -9 47 1 29 24 -46 32 -101z m-46 76 c-3
-8 -6 -5 -6 6 -1 11 2 17 5 13 3 -3 4 -12 1 -19z m-570 -134 c-3 -3 -12 -4
-19 -1 -8 3 -5 6 6 6 11 1 17 -2 13 -5z"/>
<path d="M1538 8450 c-23 -14 -22 -49 1 -79 18 -23 20 -23 62 -10 24 8 45 21
47 30 8 41 -71 83 -110 59z"/>
<path d="M7975 8240 c-38 -66 -73 -120 -77 -120 -5 0 -8 -5 -8 -11 0 -7 -16
-34 -35 -60 -19 -27 -35 -51 -35 -54 0 -3 -10 -19 -22 -35 -12 -16 -20 -32
-17 -34 2 -2 25 -2 51 1 l46 5 88 152 c48 83 95 166 103 184 8 17 19 32 23 32
4 0 8 6 8 13 0 15 -31 47 -46 47 -5 0 -40 -54 -79 -120z"/>
<path d="M6991 8314 c0 -11 3 -14 6 -6 3 7 2 16 -1 19 -3 4 -6 -2 -5 -13z"/>
<path d="M5820 8289 c-6 -10 -10 -26 -10 -36 0 -20 7 -22 240 -83 41 -11 102
-29 135 -39 33 -11 89 -27 125 -36 36 -10 85 -23 110 -30 133 -40 154 -45 169
-45 9 0 22 -5 28 -11 8 -8 13 -3 18 20 4 17 12 31 18 31 23 1 -20 19 -94 40
-151 43 -238 67 -329 90 -19 5 -66 19 -105 30 -91 29 -188 57 -248 74 -44 12
-49 12 -57 -5z"/>
<path d="M6952 8240 c0 -14 2 -19 5 -12 2 6 2 18 0 25 -3 6 -5 1 -5 -13z"/>
<path d="M5868 8113 c7 -3 16 -2 19 1 4 3 -2 6 -13 5 -11 0 -14 -3 -6 -6z"/>
<path d="M2317 8093 c-11 -10 -8 -41 3 -48 19 -12 41 15 29 36 -10 20 -21 24
-32 12z"/>
<path d="M5800 8087 c14 -8 27 -12 30 -10 7 6 -23 23 -40 23 -8 0 -4 -6 10
-13z"/>
<path d="M2659 8050 l-43 -40 31 -33 c17 -17 38 -46 47 -64 42 -83 76 -76 76
17 0 63 -34 160 -56 160 -7 0 -32 -18 -55 -40z"/>
<path d="M6010 8076 c0 -2 7 -7 16 -10 8 -3 12 -2 9 4 -6 10 -25 14 -25 6z"/>
<path d="M5900 8060 c0 -4 11 -10 25 -12 13 -3 22 -2 20 2 -7 11 -45 20 -45
10z"/>
<path d="M4050 8039 c0 -5 5 -7 10 -4 6 3 10 8 10 11 0 2 -4 4 -10 4 -5 0 -10
-5 -10 -11z"/>
<path d="M4015 8030 c-4 -6 -3 -16 3 -22 6 -6 12 -6 17 2 4 6 3 16 -3 22 -6 6
-12 6 -17 -2z"/>
<path d="M6008 8023 c6 -2 18 -2 25 0 6 3 1 5 -13 5 -14 0 -19 -2 -12 -5z"/>
<path d="M6180 8026 c0 -2 9 -6 20 -9 11 -3 18 -1 14 4 -5 9 -34 13 -34 5z"/>
<path d="M6238 8003 c7 -3 16 -2 19 1 4 3 -2 6 -13 5 -11 0 -14 -3 -6 -6z"/>
<path d="M11288 7992 c-15 -9 -60 -40 -100 -67 -40 -28 -140 -97 -223 -153
-82 -56 -161 -111 -174 -121 l-24 -18 21 -21 c12 -12 31 -40 42 -62 12 -23 27
-43 35 -46 13 -5 71 33 113 73 7 7 41 34 75 60 34 26 69 53 77 60 8 7 65 51
125 98 112 88 165 138 165 156 0 6 -9 8 -20 4 -14 -4 -18 -2 -15 7 3 8 -7 19
-27 27 -18 8 -35 16 -38 17 -3 1 -17 -5 -32 -14z"/>
<path d="M4022 7960 c0 -19 2 -27 5 -17 2 9 2 25 0 35 -3 9 -5 1 -5 -18z"/>
<path d="M6178 7973 c7 -3 16 -2 19 1 4 3 -2 6 -13 5 -11 0 -14 -3 -6 -6z"/>
<path d="M6230 7960 c8 -5 20 -10 25 -10 6 0 3 5 -5 10 -8 5 -19 10 -25 10 -5
0 -3 -5 5 -10z"/>
<path d="M7605 7950 c3 -5 10 -10 16 -10 5 0 9 5 9 10 0 6 -7 10 -16 10 -8 0
-12 -4 -9 -10z"/>
<path d="M6280 7940 c8 -5 22 -9 30 -9 10 0 8 3 -5 9 -27 12 -43 12 -25 0z"/>
<path d="M6460 7940 c0 -5 7 -10 16 -10 8 0 12 5 9 10 -3 6 -10 10 -16 10 -5
0 -9 -4 -9 -10z"/>
<path d="M6377 7919 c7 -7 15 -10 18 -7 3 3 -2 9 -12 12 -14 6 -15 5 -6 -5z"/>
<path d="M7688 7923 c7 -3 16 -2 19 1 4 3 -2 6 -13 5 -11 0 -14 -3 -6 -6z"/>
<path d="M5744 7902 c5 -9 72 -29 261 -80 22 -6 72 -21 111 -33 39 -11 80 -19
90 -17 21 5 18 6 -191 64 -71 19 -160 44 -197 55 -77 22 -81 22 -74 11z"/>
<path d="M6450 7896 c0 -2 9 -6 20 -9 11 -3 20 -1 20 4 0 5 -9 9 -20 9 -11 0
-20 -2 -20 -4z"/>
<path d="M4110 7881 c0 -5 9 -7 20 -4 11 3 20 7 20 9 0 2 -9 4 -20 4 -11 0
-20 -4 -20 -9z"/>
<path d="M4253 7813 c-32 -37 -81 -92 -109 -123 -28 -30 -73 -82 -100 -115
-48 -59 -89 -107 -109 -129 -6 -6 -37 -42 -69 -81 -32 -38 -77 -92 -100 -120
-39 -47 -107 -124 -134 -153 -16 -18 -11 -34 14 -47 74 -39 204 -119 204 -126
0 -5 -17 -9 -37 -9 -114 -1 -257 -61 -339 -141 -59 -58 -54 -64 -74 76 -6 44
-18 119 -26 166 -8 48 -14 101 -14 118 0 36 1 36 -105 17 -44 -8 -125 -22
-180 -31 -55 -9 -136 -23 -180 -30 -44 -7 -101 -16 -127 -20 l-47 -6 -31 -77
c-17 -42 -35 -86 -39 -97 -35 -85 -61 -158 -61 -170 0 -36 -26 -24 -84 38 -33
36 -112 118 -175 182 l-114 116 -61 -6 c-33 -3 -146 -10 -251 -15 -211 -12
-295 -20 -295 -29 1 -3 8 -35 16 -71 9 -36 19 -85 23 -110 8 -42 31 -153 66
-315 9 -38 23 -104 31 -145 9 -41 22 -104 30 -140 8 -36 19 -94 24 -129 6 -35
12 -67 15 -71 2 -4 16 -63 29 -131 14 -68 35 -167 47 -219 23 -106 24 -112 45
-225 25 -136 18 -125 72 -125 26 0 117 7 202 15 85 8 227 20 315 26 181 12
222 20 216 40 -2 8 -10 39 -16 71 -7 31 -16 62 -20 68 -9 15 29 5 64 -17 22
-14 25 -13 47 13 31 35 40 26 57 -59 l15 -67 -50 -63 c-27 -34 -55 -70 -63
-79 -41 -49 -90 -188 -110 -312 -12 -73 -7 -319 9 -391 16 -76 72 -231 87
-241 22 -13 8 -34 -23 -35 -18 -1 -44 -5 -58 -9 l-25 -8 26 -1 c14 -1 50 -14
79 -29 74 -40 93 -89 85 -216 -6 -75 -12 -101 -37 -146 -16 -30 -34 -57 -38
-60 -5 -3 -31 -50 -58 -105 -27 -55 -72 -148 -101 -206 l-52 -107 24 -23 c41
-41 62 -49 83 -35 27 17 95 39 101 32 3 -3 18 3 32 13 14 9 48 26 75 36 40 15
58 16 95 8 25 -6 75 -11 111 -12 36 -1 72 -4 81 -6 18 -6 22 44 35 388 4 97 9
177 12 177 3 0 24 -8 46 -19 118 -54 206 -77 355 -90 79 -7 136 -7 185 0 131
19 364 106 443 165 17 13 35 24 40 24 4 0 26 17 49 38 l41 37 17 -60 c9 -33
21 -70 26 -83 16 -37 13 -40 -61 -47 -46 -5 -67 -10 -58 -16 8 -5 22 -6 32 -3
12 4 17 0 17 -15 0 -12 4 -21 9 -21 5 0 12 -11 15 -25 4 -14 13 -25 21 -25 8
0 15 -6 15 -12 0 -10 2 -10 8 0 13 19 29 -4 100 -138 18 -36 40 -70 49 -77 8
-6 13 -16 10 -20 -3 -5 2 -9 12 -9 12 0 17 6 13 18 -2 10 -11 18 -19 18 -8 0
-11 4 -8 10 3 5 -5 21 -19 34 -14 13 -26 30 -26 37 0 8 -12 32 -27 54 -19 29
-21 35 -6 23 10 -10 29 -38 42 -63 12 -25 27 -45 32 -45 5 0 9 -4 9 -10 0 -6
9 -20 20 -32 49 -54 55 -65 55 -94 -1 -24 3 -30 15 -26 8 3 17 9 20 13 3 4 16
1 30 -7 l25 -14 -27 6 c-17 4 -28 2 -28 -4 0 -21 13 -42 26 -42 8 0 11 -6 8
-15 -4 -9 0 -15 9 -15 8 0 17 6 20 13 2 6 8 8 13 4 5 -5 1 -13 -9 -18 -33 -19
-17 -28 41 -22 64 6 73 10 52 23 -9 6 -10 10 -3 10 6 0 14 -4 18 -9 3 -6 13
-9 23 -8 9 0 47 -7 83 -17 61 -17 66 -21 83 -59 19 -44 29 -93 47 -234 6 -51
15 -90 19 -88 4 2 4 -15 -1 -38 -4 -23 -8 -44 -9 -47 0 -3 76 -4 170 -2 l170
3 0 -65 c0 -86 5 -96 46 -96 l34 0 0 -120 0 -120 40 0 40 0 0 40 0 40 81 0
c44 0 89 -5 99 -10 13 -7 21 -7 25 0 3 6 48 10 101 10 l94 0 0 40 0 40 110 0
c103 0 110 -1 110 -20 0 -11 5 -20 10 -20 6 0 10 -9 10 -20 0 -36 27 -22 35
18 6 31 9 34 15 17 5 -11 9 -33 9 -48 1 -16 5 -26 11 -22 11 7 12 103 1 150
-4 17 -4 37 0 45 29 66 37 90 29 90 -6 0 -10 -4 -10 -10 0 -5 -7 -7 -15 -4 -8
4 -15 12 -15 20 0 8 -10 14 -21 14 -16 0 -20 5 -16 20 3 10 -1 27 -9 37 -13
17 -13 17 -14 -4 0 -20 -5 -23 -40 -23 l-40 0 0 40 c0 33 3 40 20 40 13 0 20
7 20 20 0 13 -7 20 -20 20 -13 0 -20 7 -20 20 0 11 -6 20 -14 20 -20 0 -45 42
-52 90 -5 30 -13 45 -29 52 -13 6 -31 28 -41 50 -9 21 -33 52 -52 69 -20 18
-32 36 -28 44 3 8 1 15 -4 15 -5 0 -12 10 -16 23 -4 12 -26 41 -50 63 -28 27
-45 53 -49 77 -6 29 -12 36 -38 41 -25 5 -37 1 -61 -21 -30 -28 -20 -9 20 35
32 35 82 123 117 203 45 104 40 99 110 99 57 0 488 24 633 36 l60 5 12 132
c34 369 56 569 69 630 8 37 8 38 23 16 8 -11 29 -35 45 -53 17 -17 62 -73 100
-123 37 -51 70 -93 71 -93 2 0 84 61 183 135 99 74 184 135 190 135 6 0 11 -9
11 -20 0 -12 6 -49 14 -83 8 -34 22 -107 31 -162 9 -55 21 -120 26 -144 5 -24
17 -82 25 -129 18 -104 21 -102 -109 -108 -51 -3 -123 -9 -162 -14 -38 -5
-128 -14 -200 -20 -71 -5 -143 -14 -160 -19 l-30 -8 34 -8 c29 -6 43 -22 42
-47 0 -4 9 -18 22 -32 12 -13 41 -44 65 -69 23 -25 42 -52 42 -61 0 -9 7 -16
15 -16 8 0 15 -7 15 -15 0 -8 9 -15 20 -15 12 0 20 -7 20 -18 0 -10 13 -32 30
-50 48 -53 54 -70 27 -75 -12 -2 -3 -5 21 -6 24 0 41 2 39 7 -5 8 104 -1 164
-13 58 -12 89 -93 110 -295 5 -50 16 -101 24 -113 14 -21 15 -21 16 -2 0 11 3
14 6 8 2 -7 13 -13 24 -13 12 0 19 -7 19 -20 0 -13 7 -20 20 -20 17 0 20 -7
20 -39 0 -37 2 -39 38 -47 20 -4 45 -7 55 -6 9 1 17 -3 17 -8 0 -13 -57 -13
-65 0 -3 6 -18 9 -33 9 -21 -1 -23 -2 -7 -6 11 -3 25 -9 30 -13 6 -4 28 -13
51 -19 23 -6 53 -22 68 -36 15 -14 31 -25 37 -25 11 0 52 40 42 40 -5 0 -1 5
7 10 13 9 13 11 0 20 -12 8 -11 10 8 10 12 0 22 -4 22 -10 0 -5 21 -10 48 -10
42 1 45 2 29 14 -14 11 -15 15 -5 19 7 3 1 6 -14 6 -26 1 -38 -12 -20 -22 4
-2 0 -2 -8 1 -8 2 -28 8 -45 12 l-30 8 35 1 c35 2 35 2 14 19 -41 35 -34 143
11 150 11 2 35 6 53 9 31 5 32 6 17 23 -13 15 -14 23 -5 39 6 12 10 31 9 44
-1 12 -1 46 -1 75 2 45 5 52 22 52 17 0 20 7 20 40 0 29 4 40 15 40 9 0 15 9
15 25 0 16 6 25 16 25 14 0 16 8 10 52 -10 75 -18 85 -63 81 l-38 -2 35 9 c52
14 250 50 275 50 24 0 38 -36 50 -133 4 -26 13 -63 21 -82 8 -19 14 -48 14
-64 0 -16 4 -41 9 -55 9 -23 13 -24 46 -15 54 15 92 3 120 -39 27 -40 31 -68
14 -105 -8 -17 -17 -23 -30 -20 -11 3 -26 0 -34 -7 -8 -7 -24 -10 -34 -7 -24
6 -30 -7 -24 -50 5 -29 7 -31 26 -21 16 8 22 8 25 -1 2 -6 21 -11 43 -11 36 0
164 -39 232 -70 29 -14 38 -37 10 -25 -47 19 -73 23 -79 13 -4 -6 0 -16 9 -23
10 -7 17 -23 17 -36 0 -13 6 -35 13 -49 31 -59 46 -226 16 -179 -5 8 -9 9 -9
3 0 -6 -35 -19 -77 -29 -43 -11 -83 -23 -90 -28 -7 -5 -17 -6 -23 -2 -17 10
-12 -20 32 -196 35 -143 44 -168 62 -173 28 -8 166 -7 205 0 30 6 31 8 31 58
0 28 -7 96 -15 151 -20 136 -19 152 5 158 34 9 31 114 -6 193 -20 41 -24 67
-24 137 l0 85 68 11 c64 11 191 25 352 37 l75 7 19 -62 c20 -68 28 -72 91 -45
36 14 37 17 32 52 -4 20 -9 69 -12 107 -3 39 -12 133 -20 210 -8 77 -21 212
-30 300 -14 141 -26 260 -65 625 -5 52 -14 147 -20 211 -11 128 -29 272 -36
278 -4 4 -294 -17 -331 -25 -12 -2 -25 0 -28 6 -3 6 -10 54 -16 108 -5 53 -11
116 -15 140 l-5 42 63 0 c35 0 102 -5 148 -11 47 -6 150 -14 230 -19 137 -8
334 -22 553 -38 54 -4 100 -5 102 -2 1 3 6 174 10 381 l7 375 29 19 c19 14 24
22 16 27 -9 6 -8 8 3 8 8 0 21 9 28 20 7 12 17 18 22 15 6 -3 10 0 10 7 0 11
32 54 141 188 111 136 145 188 220 329 24 46 65 106 92 132 26 26 48 56 49 66
2 32 3 38 9 48 12 19 20 85 12 98 -4 6 -6 26 -4 44 1 19 -2 33 -8 33 -6 0 -11
11 -11 24 0 25 -22 51 -34 39 -4 -4 -4 0 -1 9 4 10 -2 29 -14 47 -25 35 -26
42 -6 35 8 -4 15 -10 15 -16 0 -5 8 -17 17 -26 13 -13 17 -14 21 -3 2 7 13 21
23 29 11 9 19 22 19 29 0 7 4 13 10 13 5 0 22 19 36 42 26 40 27 41 35 20 6
-15 4 -35 -6 -59 -9 -20 -13 -38 -11 -41 17 -17 76 77 76 121 0 44 -36 148
-66 192 -13 20 -24 39 -24 43 0 10 -152 154 -179 170 -66 38 -141 72 -181 81
-64 14 -139 2 -157 -26 -14 -22 -14 -22 20 -16 84 13 264 -44 316 -101 14 -14
30 -26 36 -26 7 0 17 -10 24 -22 6 -13 25 -41 41 -63 38 -51 53 -76 43 -73
-21 6 -73 -13 -73 -27 0 -10 -10 -15 -30 -15 -23 0 -30 -4 -30 -20 0 -17 -7
-20 -40 -20 -33 0 -40 -3 -40 -20 0 -18 -7 -20 -60 -20 l-60 0 0 -40 0 -40
-40 0 c-29 0 -40 4 -40 15 0 21 -36 19 -45 -2 -6 -15 -8 -14 -18 10 -12 29
-12 29 -30 9 -12 -13 -15 -22 -8 -27 6 -3 11 2 12 12 1 10 5 2 9 -17 5 -21 5
-36 -1 -38 -5 -2 -9 -10 -9 -18 0 -8 -4 -14 -9 -14 -5 0 -16 -3 -24 -6 -9 -3
-16 3 -20 15 -3 14 0 21 9 21 10 0 14 12 14 40 0 27 5 43 15 46 24 10 17 24
-11 22 -15 -2 -46 -22 -75 -50 -28 -27 -48 -48 -45 -48 3 0 -14 -18 -38 -40
-24 -22 -47 -40 -52 -40 -10 0 -54 44 -54 53 0 3 77 83 171 177 95 94 169 173
166 177 -8 8 -77 -55 -235 -213 l-123 -124 -57 38 c-31 21 -83 48 -115 61 -50
20 -62 22 -87 11 -17 -7 -30 -16 -30 -21 0 -5 -6 -9 -14 -9 -31 0 -264 -274
-407 -479 l-44 -64 -209 7 c-115 3 -212 9 -217 12 -5 3 2 22 14 42 13 20 40
67 60 103 l36 66 -62 40 c-198 129 -374 182 -598 183 -212 0 -426 -64 -614
-185 -50 -32 -235 -211 -235 -227 0 -4 -6 -8 -14 -8 -10 0 -14 21 -15 90 -1
50 -4 96 -6 103 -3 6 -9 104 -15 216 -5 112 -12 206 -14 208 -2 2 -64 -3 -137
-11 -74 -9 -199 -22 -278 -31 -80 -8 -148 -18 -152 -22 -7 -7 -20 -114 -35
-295 -3 -38 -9 -68 -12 -68 -4 0 -52 46 -107 101 -91 91 -103 100 -130 95 -59
-11 -121 -26 -190 -47 -38 -11 -88 -24 -110 -29 -22 -4 -71 -16 -108 -26 l-69
-17 7 -169 8 -168 -138 0 -137 0 7 43 c7 42 23 103 49 185 l14 42 -222 1
c-121 0 -237 3 -257 7 l-36 7 132 125 c73 69 133 128 134 132 1 3 -16 17 -36
29 -21 13 -40 25 -43 28 -8 9 -128 91 -133 91 -2 0 -74 46 -159 103 -85 56
-162 107 -170 112 -9 6 -88 57 -177 115 -89 58 -169 110 -179 115 -9 6 -37 24
-62 41 -25 17 -71 47 -102 67 l-57 36 -58 -66z m195 -176 c37 -24 185 -115
330 -203 145 -87 276 -167 290 -176 15 -10 39 -24 55 -33 15 -9 27 -19 27 -23
-1 -4 -24 -26 -53 -50 -29 -23 -81 -69 -117 -102 -36 -33 -73 -62 -83 -66 -12
-4 -52 15 -119 56 -55 34 -98 55 -95 46 12 -30 71 -368 153 -871 26 -160 51
-295 55 -300 3 -2 11 30 18 73 7 42 19 112 27 155 8 42 14 89 14 103 0 13 6
57 14 97 7 40 21 126 31 192 10 66 21 134 24 150 l7 30 173 0 c95 1 175 -3
178 -8 5 -8 -17 -107 -39 -177 -6 -19 -15 -51 -19 -70 -3 -19 -18 -80 -32
-135 -50 -194 -103 -404 -122 -485 -7 -30 -17 -73 -23 -95 -6 -22 -18 -71 -28
-110 -9 -38 -22 -90 -29 -115 -7 -25 -19 -71 -26 -104 l-13 -58 -45 6 c-25 3
-95 15 -156 26 -60 12 -136 24 -168 27 -32 3 -59 9 -62 12 -4 8 -46 213 -75
371 -11 63 -27 144 -35 180 -27 129 -44 217 -60 305 -8 50 -20 113 -25 140
-11 52 -26 133 -80 415 -17 91 -36 182 -41 203 l-10 38 -101 -100 c-56 -56
-105 -101 -109 -101 -14 0 -269 153 -269 162 0 6 301 352 330 378 7 6 211 230
225 247 13 16 8 18 83 -30z m5640 -484 c-21 -5 -24 -19 -5 -26 6 -2 9 -8 5
-12 -10 -10 -41 22 -33 35 3 5 16 9 28 9 17 -1 18 -2 5 -6z m-285 -68 c-3 -9
-8 -14 -10 -11 -3 3 -2 9 2 15 9 16 15 13 8 -4z m-2773 -37 c0 -39 13 -241 40
-603 20 -272 30 -467 25 -476 -4 -5 -18 -9 -33 -9 -15 0 -43 -5 -62 -11 -19
-5 -60 -14 -90 -19 -30 -5 -68 -11 -85 -15 -33 -7 -63 15 -205 149 -150 141
-272 251 -281 254 -12 5 -12 -13 5 -218 8 -96 17 -223 19 -281 l5 -106 -142
-12 c-77 -6 -156 -14 -173 -16 -18 -2 -35 0 -37 4 -3 4 -10 102 -16 217 -6
115 -17 324 -25 464 -8 140 -16 298 -17 349 l-2 95 74 18 c41 9 104 25 140 34
36 9 87 20 113 24 l48 7 52 -66 c28 -36 54 -68 57 -71 3 -3 28 -34 55 -70 27
-36 52 -67 55 -70 3 -3 43 -53 89 -112 45 -60 83 -108 85 -108 1 0 2 150 2
333 l-1 332 95 7 c52 4 102 9 110 12 8 2 34 4 58 5 l42 1 0 -42z m3523 -51
c-3 -5 -9 -3 -14 4 -6 9 -9 1 -9 -23 0 -21 -4 -38 -9 -38 -9 0 -11 -9 -31
-104 -16 -80 -194 -334 -339 -484 l-119 -123 -6 -67 c-4 -37 -13 -94 -21 -127
-13 -58 -13 -55 -14 115 -1 270 -2 266 89 363 42 45 97 104 121 132 24 27 49
55 54 61 6 6 30 35 55 65 25 29 55 64 68 77 12 12 22 26 22 30 0 4 17 25 38
47 21 22 51 57 67 78 26 36 30 37 42 21 7 -9 10 -21 6 -27z m-813 9 c0 -3 -4
-8 -10 -11 -5 -3 -10 -1 -10 4 0 6 5 11 10 11 6 0 10 -2 10 -4z m625 -63 c0
-7 -31 -47 -70 -90 -63 -70 -168 -187 -184 -205 -4 -4 -38 -1 -76 7 -39 9
-152 18 -252 22 -101 3 -183 8 -183 10 0 9 145 173 153 173 4 0 7 6 7 13 1 14
52 72 71 80 8 3 131 5 274 4 197 -2 260 -5 260 -14z m225 2 c0 -8 -4 -15 -10
-15 -5 0 -7 7 -4 15 4 8 8 15 10 15 2 0 4 -7 4 -15z m-7435 -16 c22 -12 51
-31 65 -42 22 -17 22 -19 5 -15 -14 3 -21 0 -22 -11 -1 -9 -4 -61 -8 -116 -4
-55 -11 -106 -15 -114 -4 -7 -4 -30 1 -50 5 -20 9 -54 9 -76 0 -22 9 -83 19
-135 11 -52 24 -142 31 -200 6 -58 17 -145 25 -195 34 -220 47 -323 43 -340
-2 -15 -15 -22 -48 -27 -320 -49 -300 -49 -300 -5 0 17 -9 88 -20 157 -11 69
-27 186 -36 260 -9 74 -18 137 -20 139 -2 2 -8 -9 -14 -24 -25 -66 -213 -435
-222 -435 -12 0 -112 68 -231 158 -54 40 -100 72 -102 70 -4 -4 3 -38 35 -153
26 -95 49 -201 50 -232 0 -19 -7 -22 -67 -28 -38 -3 -107 -11 -156 -17 -48 -6
-90 -8 -94 -5 -3 4 -9 26 -13 49 -4 24 -22 124 -40 223 -17 99 -38 217 -46
263 -14 80 -29 170 -59 335 -26 146 -56 321 -66 377 -5 30 -12 69 -15 86 l-6
30 132 18 c119 15 134 15 150 1 9 -8 20 -15 24 -15 4 0 41 -16 82 -35 89 -42
142 -92 269 -250 21 -28 49 -61 61 -75 85 -96 93 -104 97 -90 3 8 22 74 42
145 21 72 48 164 61 205 13 41 26 88 30 103 7 32 29 43 106 53 29 3 76 12 103
20 73 19 115 17 160 -7z m5150 -24 c33 -9 97 -32 143 -52 67 -30 81 -40 77
-54 -3 -10 -40 -80 -82 -156 -42 -76 -84 -155 -95 -175 -24 -49 -30 -52 -75
-29 -163 85 -430 57 -557 -58 -50 -46 -75 -97 -87 -176 -36 -237 86 -387 338
-420 73 -9 88 -2 91 42 2 21 6 40 10 43 4 3 18 20 31 39 l24 34 -78 -7 c-61
-6 -82 -4 -100 8 -18 12 -25 13 -29 3 -3 -6 -4 24 -1 68 5 74 8 82 37 108 l31
27 239 0 240 0 -7 -287 c-8 -323 -2 -302 -89 -327 -238 -67 -422 -69 -635 -5
-197 59 -395 220 -480 391 -8 15 -17 25 -21 23 -4 -3 -16 5 -26 16 -27 30 -33
256 -10 346 35 132 130 298 223 390 116 114 297 200 478 227 66 10 351 -3 410
-19z m-4340 -159 c61 -25 92 -44 192 -115 63 -45 91 -71 87 -81 -3 -8 -2 -11
2 -7 4 4 18 -15 31 -41 13 -26 27 -54 32 -62 9 -16 21 -42 46 -105 23 -55 32
-220 15 -271 -30 -93 -65 -151 -124 -209 -70 -69 -158 -123 -242 -149 -33 -10
-67 -22 -76 -27 -32 -16 -85 -8 -218 34 -162 50 -298 190 -362 370 -18 50 -22
85 -22 182 -1 123 -1 124 52 235 57 121 187 226 319 260 55 14 220 5 268 -14z
m5275 -216 c129 -5 324 -13 433 -16 169 -5 197 -8 193 -21 -3 -8 -7 -56 -8
-106 -1 -67 -3 -77 -5 -34 -2 31 -8 57 -13 57 -6 0 -11 10 -11 23 l-2 22 -4
-22 c-2 -13 -9 -23 -14 -23 -5 0 -7 11 -3 25 6 26 0 29 -41 25 -25 -2 -9 16
20 22 24 5 -145 15 -395 23 -193 7 -231 0 -89 -15 l84 -9 -100 5 c-67 3 -96 1
-90 -5 6 -6 64 -12 130 -14 66 -1 1 -3 -145 -4 -261 0 -279 4 -95 25 48 6 64
11 52 16 -9 5 -31 6 -47 4 -17 -3 -30 0 -30 5 0 5 -7 6 -15 3 -22 -8 -327 14
-345 26 -15 9 76 7 540 -12z m-362 -27 c-10 -2 -28 -2 -40 0 -13 2 -5 4 17 4
22 1 32 -1 23 -4z m5 -40 c-7 -2 -21 -2 -30 0 -10 3 -4 5 12 5 17 0 24 -2 18
-5z m-3042 -25 c2 -32 -3 -103 -16 -218 -15 -127 -41 -386 -51 -495 -3 -33 -8
-73 -11 -89 l-5 -28 -152 6 c-83 4 -166 10 -183 13 l-33 5 0 404 0 403 73 4
c201 9 377 7 378 -5z m3955 -211 c-3 -72 -5 -199 -6 -281 0 -107 -3 -147 -11
-139 -7 7 -8 97 -3 298 4 179 10 281 16 271 5 -9 7 -76 4 -149z m-366 -33
c-48 -64 -86 -101 -95 -92 -3 2 28 43 68 91 83 101 102 102 27 1z m-260 62 c0
-8 2 -20 3 -28 2 -7 2 -9 -1 -5 -5 9 -52 -51 -52 -67 0 -5 11 1 25 14 14 13
25 19 25 14 0 -13 -42 -39 -57 -36 -7 2 -13 -4 -13 -11 0 -21 -37 -64 -46 -54
-5 4 -3 16 3 25 7 9 32 50 55 89 42 71 58 87 58 59z m-2109 -466 c-21 -18 -30
-33 -26 -41 5 -7 4 -10 -3 -5 -6 3 -35 -12 -64 -34 -29 -22 -56 -40 -60 -40
-16 0 -7 16 24 40 18 14 55 44 82 67 28 23 58 42 66 42 9 0 1 -11 -19 -29z
m2715 -367 c-4 -10 -35 -12 -123 -11 -117 2 -117 2 -23 5 154 5 140 -14 142
181 l2 167 3 -165 c2 -90 1 -170 -1 -177z m-378 210 c122 -4 202 -10 202 -16
0 -6 -54 -8 -152 -3 -84 3 -222 9 -307 12 -85 4 -166 10 -180 15 -16 6 24 7
104 4 72 -3 221 -8 333 -12z m-5663 -59 c69 -17 135 -43 135 -55 0 -4 -28 3
-63 16 -67 25 -255 52 -285 40 -9 -4 -39 -9 -67 -12 -27 -3 -81 -16 -119 -29
-85 -30 -228 -112 -219 -126 3 -6 1 -8 -5 -4 -15 9 -153 -128 -194 -194 -47
-75 -67 -118 -89 -198 -18 -61 -19 -63 -13 -19 17 140 140 329 284 435 204
150 415 198 635 146z m181 -80 c18 -14 18 -14 -6 -3 -31 14 -36 19 -24 19 6 0
19 -7 30 -16z m49 -24 c3 -5 2 -10 -4 -10 -5 0 -13 5 -16 10 -3 6 -2 10 4 10
5 0 13 -4 16 -10z m3070 -10 c11 -5 -239 -9 -586 -9 l-606 -1 -7 -71 c-4 -39
-10 -68 -13 -65 -3 3 -2 39 2 81 l7 75 591 -1 c326 0 601 -4 612 -9z m2310
-30 l160 -6 -180 -1 c-99 0 -261 3 -360 6 l-180 7 200 1 c110 0 272 -3 360 -7z
m-3725 -48 c0 -11 -388 -25 -403 -14 -7 4 44 9 113 12 217 10 290 10 290 2z
m-935 -192 c-115 -3 -213 -4 -218 -2 -30 13 30 16 215 12 l213 -5 -210 -5z
m4019 -37 c4 -32 11 -83 16 -113 5 -30 19 -118 30 -195 12 -77 27 -180 35
-230 7 -49 21 -142 30 -205 9 -63 23 -146 30 -185 8 -38 17 -88 20 -111 l6
-41 -73 -11 c-81 -12 -202 -34 -323 -57 -44 -8 -118 -22 -164 -30 -46 -8 -91
-17 -100 -19 -9 -3 -45 -10 -81 -15 -36 -6 -103 -17 -150 -26 -47 -9 -121 -22
-165 -30 -44 -7 -92 -16 -107 -20 -26 -7 -26 -6 -33 62 -4 37 -13 111 -21 163
-8 52 -19 136 -25 185 -5 50 -17 142 -25 205 -7 63 -20 171 -28 240 -14 115
-34 276 -39 309 -2 14 62 28 318 65 61 9 184 27 275 41 91 14 221 33 290 41
69 9 150 19 180 24 103 14 97 17 104 -47z m-1757 -178 c-43 -42 -82 -73 -87
-70 -8 5 46 59 118 118 63 51 47 26 -31 -48z m-4140 -72 c-3 -10 -5 -4 -5 12
0 17 2 24 5 18 2 -7 2 -21 0 -30z m3320 -35 c-3 -8 -6 -5 -6 6 -1 11 2 17 5
13 3 -3 4 -12 1 -19z m-2210 -210 c-3 -8 -6 -5 -6 6 -1 11 2 17 5 13 3 -3 4
-12 1 -19z m-25 -69 c-22 -50 -81 -108 -144 -140 -59 -30 -177 -30 -236 0 -37
19 -62 41 -47 41 3 0 35 -10 72 -21 140 -46 268 -1 334 117 37 64 48 66 21 3z
m-578 29 c-12 -21 -140 -171 -168 -197 -39 -37 -31 -17 12 28 20 22 64 72 96
111 56 66 76 86 60 58z m-234 -167 c0 -6 -5 -13 -11 -16 -6 -4 -8 -14 -5 -22
3 -8 2 -12 -3 -8 -5 3 -24 -12 -41 -32 -41 -47 -32 -18 12 42 32 43 48 55 48
36z m2229 -95 c-5 -6 -9 10 -8 40 l1 49 8 -40 c5 -22 4 -44 -1 -49z m2 -112
c-18 -129 -51 -164 -152 -164 -43 0 -62 5 -80 21 -21 18 -21 20 -4 14 11 -4
43 -10 72 -12 92 -9 135 26 148 122 10 76 16 107 22 102 2 -3 -1 -40 -6 -83z
m2176 -221 c-3 -10 -5 -4 -5 12 0 17 2 24 5 18 2 -7 2 -21 0 -30z m10 -45 c-3
-8 -6 -5 -6 6 -1 11 2 17 5 13 3 -3 4 -12 1 -19z m-3100 -54 c-3 -3 -12 -4
-19 -1 -8 3 -5 6 6 6 11 1 17 -2 13 -5z m51 -69 c-3 -3 -9 2 -12 12 -6 14 -5
15 5 6 7 -7 10 -15 7 -18z m3095 -102 c2 -24 0 -40 -4 -37 -5 3 -9 24 -9 46 0
51 6 47 13 -9z m380 0 c-7 -2 -19 -2 -25 0 -7 3 -2 5 12 5 14 0 19 -2 13 -5z
m-70 -10 c-7 -2 -19 -2 -25 0 -7 3 -2 5 12 5 14 0 19 -2 13 -5z m-100 -20 c-7
-2 -21 -2 -30 0 -10 3 -4 5 12 5 17 0 24 -2 18 -5z m-80 -10 c-7 -2 -19 -2
-25 0 -7 3 -2 5 12 5 14 0 19 -2 13 -5z m-48 -13 c-3 -5 -10 -10 -16 -10 -5 0
-9 5 -9 10 0 6 7 10 16 10 8 0 12 -4 9 -10z m415 -14 c0 -8 -4 -18 -10 -21 -5
-3 -10 3 -10 14 0 12 5 21 10 21 6 0 10 -6 10 -14z m-390 -5 c0 -5 -11 -11
-25 -13 -14 -3 -25 -3 -25 -1 0 3 34 19 48 22 1 1 2 -3 2 -8z m67 -7 c-3 -3
-12 -4 -19 -1 -8 3 -5 6 6 6 11 1 17 -2 13 -5z m-3047 -134 c0 -5 -2 -10 -4
-10 -3 0 -8 5 -11 10 -3 6 -1 10 4 10 6 0 11 -4 11 -10z m105 -71 c5 -5 -5 -4
-23 2 -17 6 -32 13 -32 16 0 7 43 -8 55 -18z m795 1 c-24 -18 -60 -33 -60 -24
0 4 72 43 80 43 3 0 -6 -8 -20 -19z m-103 -46 c-3 -3 -12 -4 -19 -1 -8 3 -5 6
6 6 11 1 17 -2 13 -5z m-102 -39 c-33 -8 -71 -14 -85 -13 -33 0 77 25 115 26
17 0 4 -6 -30 -13z m-267 -12 c-10 -2 -26 -2 -35 0 -10 3 -2 5 17 5 19 0 27
-2 18 -5z m-13 -32 c3 -5 1 -12 -5 -16 -5 -3 -10 1 -10 9 0 18 6 21 15 7z
m2426 -71 c5 0 9 -4 9 -10 0 -5 -7 -10 -15 -10 -11 0 -15 10 -14 33 1 23 3 26
6 10 2 -13 9 -23 14 -23z m362 23 c-7 -2 -19 -2 -25 0 -7 3 -2 5 12 5 14 0 19
-2 13 -5z m-2766 -60 c1 -24 0 -25 -6 -8 -7 17 -6 35 2 35 2 0 3 -12 4 -27z
m2653 -153 c0 -5 -4 -10 -10 -10 -5 0 -10 5 -10 10 0 6 5 10 10 10 6 0 10 -4
10 -10z m50 -60 c0 -5 -4 -10 -10 -10 -5 0 -10 5 -10 10 0 6 5 10 10 10 6 0
10 -4 10 -10z m-1575 -185 c-1 -14 2 -25 6 -25 5 0 9 7 9 15 0 8 5 15 10 15
13 0 13 -3 -2 -35 l-11 -25 -244 0 -243 0 0 40 0 40 239 0 239 0 -3 -25z m76
-2 c-14 -25 -40 -59 -41 -52 0 14 32 69 41 69 6 0 6 -6 0 -17z m-631 -93 l0
-40 -40 0 -40 0 0 40 0 40 40 0 40 0 0 -40z m615 21 c3 -5 1 -12 -5 -16 -5 -3
-10 1 -10 9 0 18 6 21 15 7z m2425 5 c0 -3 -4 -8 -10 -11 -5 -3 -10 -1 -10 4
0 6 5 11 10 11 6 0 10 -2 10 -4z m-2473 -58 c-2 -13 -4 -5 -4 17 -1 22 1 32 4
23 2 -10 2 -28 0 -40z m20 0 c-2 -13 -4 -5 -4 17 -1 22 1 32 4 23 2 -10 2 -28
0 -40z m30 0 c-3 -8 -6 -5 -6 6 -1 11 2 17 5 13 3 -3 4 -12 1 -19z"/>
<path d="M3724 6459 c-48 -23 -84 -80 -84 -133 0 -43 39 -132 73 -166 40 -40
65 -59 71 -53 3 4 6 1 6 -6 0 -8 7 -11 15 -7 10 3 26 -10 47 -38 51 -67 72
-80 113 -66 47 15 91 63 105 115 31 109 -56 272 -184 345 -60 35 -104 37 -162
9z"/>
<path d="M9058 6473 c18 -2 45 -2 60 0 15 2 0 4 -33 4 -33 0 -45 -2 -27 -4z"/>
<path d="M8535 5084 c-131 -16 -293 -36 -355 -45 -41 -6 -111 -14 -155 -19
-280 -30 -381 -43 -386 -52 -3 -5 -2 -30 2 -56 5 -26 15 -90 24 -142 8 -52 22
-138 31 -190 28 -170 43 -263 58 -360 26 -165 24 -162 60 -156 17 3 114 17
216 31 102 14 212 29 245 35 33 5 80 12 105 15 25 2 100 12 166 21 122 17 122
17 159 -4 20 -12 40 -22 46 -22 13 0 11 39 -6 133 -17 92 -49 287 -70 422 -7
50 -23 144 -34 210 -11 66 -22 134 -23 150 -3 32 -17 37 -83 29z m-44 -200 c0
-58 -5 -104 -15 -132 -16 -44 -65 -113 -101 -143 -15 -13 -104 -64 -111 -64
-7 0 27 -189 35 -199 6 -7 30 -14 53 -15 52 -2 147 -34 159 -52 21 -33 10 -48
-38 -54 -76 -10 -303 -44 -364 -55 -80 -14 -111 -12 -139 10 -14 11 -19 20
-12 20 6 0 12 7 12 15 0 16 62 80 100 103 15 9 36 11 62 7 l40 -7 -7 58 c-19
150 -18 149 -45 152 -39 5 -112 32 -147 54 -35 21 -36 25 -26 106 l6 54 36 -5
c20 -3 49 -9 64 -12 15 -4 27 -4 25 1 -1 5 2 51 6 103 6 74 5 96 -6 102 -9 6
-3 9 17 8 17 -1 75 6 130 14 144 23 249 34 258 27 4 -3 7 -46 8 -96z m-477 35
c3 -17 6 -49 6 -71 0 -33 -3 -39 -16 -34 -9 3 -26 8 -37 10 -12 3 -35 7 -50
11 l-28 6 1 -73 c2 -95 3 -93 -16 -77 -47 39 -125 208 -98 210 74 7 142 21
184 38 40 16 47 13 54 -20z"/>
<path d="M10710 7609 c0 -5 5 -7 10 -4 6 3 10 8 10 11 0 2 -4 4 -10 4 -5 0
-10 -5 -10 -11z"/>
<path d="M10771 7555 c0 -22 25 -44 40 -34 12 7 12 9 0 9 -8 0 -20 8 -27 18
-7 9 -13 13 -13 7z"/>
<path d="M10810 7500 c-13 -9 -13 -12 3 -21 9 -5 17 -18 17 -27 0 -10 5 -23
10 -28 6 -6 14 -37 18 -70 8 -51 10 -55 16 -32 5 16 12 25 17 22 17 -10 9 61
-11 101 -14 28 -19 32 -16 15 l5 -25 -19 23 c-10 13 -16 30 -13 37 6 17 -5 19
-27 5z"/>
<path d="M10144 7481 c7 -11 46 -35 46 -28 0 3 -12 12 -26 22 -15 9 -23 12
-20 6z"/>
<path d="M10215 7330 c-3 -5 -1 -10 4 -10 6 0 11 5 11 10 0 6 -2 10 -4 10 -3
0 -8 -4 -11 -10z"/>
<path d="M10206 7274 c-5 -14 -4 -15 9 -4 17 14 19 20 6 20 -5 0 -12 -7 -15
-16z"/>
<path d="M10161 7264 c0 -11 3 -14 6 -6 3 7 2 16 -1 19 -3 4 -6 -2 -5 -13z"/>
<path d="M10135 7240 c-3 -5 -1 -10 4 -10 6 0 11 5 11 10 0 6 -2 10 -4 10 -3
0 -8 -4 -11 -10z"/>
<path d="M810 7140 c8 -5 20 -10 25 -10 6 0 3 5 -5 10 -8 5 -19 10 -25 10 -5
0 -3 -5 5 -10z"/>
<path d="M869 6412 c-84 -114 -84 -113 -57 -219 8 -32 7 -45 -3 -58 -60 -71
-84 -81 -91 -40 -4 19 -1 25 12 25 9 0 25 9 35 20 17 19 17 20 1 20 -9 0 -14
-4 -11 -10 3 -5 -1 -10 -9 -10 -13 0 -14 3 -4 19 7 11 21 24 33 30 12 6 15 10
6 10 -30 2 -101 -41 -101 -60 0 -18 -15 -27 -22 -11 -1 4 -21 19 -44 35 -22
15 -50 36 -61 47 -25 22 -37 16 -22 -12 6 -12 17 -17 26 -14 11 5 13 2 9 -10
-6 -17 57 -98 68 -87 3 3 18 7 34 9 23 3 31 -2 40 -21 7 -15 8 -25 2 -25 -6 0
-10 7 -10 15 0 12 -3 13 -19 3 -16 -10 -17 -14 -5 -25 18 -18 18 -28 -1 -43
-14 -12 -21 -40 -9 -40 3 0 12 7 20 15 21 21 35 19 41 -5 4 -17 8 -18 20 -8
11 9 16 9 23 -2 11 -19 -71 -172 -101 -187 -13 -7 -18 -13 -11 -13 6 0 21 -9
33 -21 28 -28 83 -23 87 8 2 12 16 54 31 93 25 66 29 71 43 56 9 -9 21 -16 27
-16 5 0 15 -8 20 -17 16 -27 13 -9 -3 23 -8 15 -12 32 -9 37 3 6 -1 15 -9 21
-19 14 -26 46 -13 65 5 10 4 16 -3 19 -7 2 -9 8 -6 14 4 6 7 45 6 87 0 42 2
66 5 54 8 -38 21 -26 28 25 3 26 7 58 9 72 2 14 1 32 -4 40 -4 8 -4 41 1 74 6
32 8 60 6 62 -2 2 -19 -18 -38 -44z"/>
<path d="M871 6134 c0 -11 3 -14 6 -6 3 7 2 16 -1 19 -3 4 -6 -2 -5 -13z"/>
<path d="M1020 5998 c0 -14 22 -46 53 -79 28 -30 80 -86 115 -124 66 -72 122
-120 92 -79 -48 66 -115 144 -140 162 -16 12 -36 37 -44 55 -15 30 -61 87 -71
87 -3 0 -5 -10 -5 -22z"/>
<path d="M1020 5903 c0 -5 11 -21 25 -37 18 -21 25 -25 25 -13 0 9 -8 26 -17
37 -18 20 -33 26 -33 13z"/>
<path d="M10880 5838 c0 -14 6 -29 13 -32 10 -5 10 -7 0 -12 -20 -9 -15 -85 6
-111 11 -13 24 -23 30 -23 6 0 11 -5 11 -10 0 -6 8 -14 17 -17 28 -11 101 -94
139 -158 59 -99 87 -134 129 -155 47 -24 55 -25 55 -5 0 8 5 15 10 15 6 0 10
7 10 16 0 12 8 15 34 13 19 -2 38 0 42 4 4 4 16 7 26 7 16 0 18 10 18 94 l0
94 -67 6 c-81 7 -173 23 -182 32 -3 3 2 11 12 18 30 23 21 52 -23 70 -27 11
-40 22 -40 35 0 16 -10 20 -60 26 -60 7 -84 25 -33 25 18 0 24 3 17 10 -6 6
-22 6 -43 0 -30 -8 -37 -6 -55 13 -12 12 -25 22 -29 22 -5 0 -15 11 -22 25
l-14 25 -1 -27z"/>
<path d="M1090 5840 c-16 -10 -3 -33 16 -26 8 3 11 0 8 -8 -3 -7 13 -29 36
-49 43 -39 50 -57 23 -57 -9 0 -14 3 -10 6 3 3 -6 16 -21 28 -108 88 -125 100
-119 82 4 -10 2 -25 -4 -33 -7 -7 -10 -15 -8 -17 93 -72 149 -121 141 -124 -6
-2 -41 6 -78 17 -38 11 -70 18 -72 16 -3 -3 1 -7 9 -9 8 -2 40 -14 71 -25 32
-11 64 -18 73 -15 8 4 15 1 15 -5 0 -6 -10 -11 -22 -11 -21 0 -21 -1 -5 -17
15 -15 19 -16 26 -4 6 8 11 9 15 3 13 -21 -24 -26 -239 -32 -147 -3 -227 -9
-242 -18 -28 -16 -33 -15 -33 3 0 12 -3 13 -19 3 -15 -9 -23 -9 -34 0 -18 15
-30 3 -15 -15 9 -11 9 -16 -2 -23 -7 -5 -10 -15 -6 -26 4 -9 2 -20 -4 -24 -6
-4 -7 -17 -1 -38 5 -17 7 -41 4 -53 -4 -15 -3 -20 5 -15 7 4 12 2 12 -3 0 -6
-4 -11 -10 -11 -15 0 -12 -68 5 -123 8 -26 14 -50 14 -53 0 -3 1 -7 3 -9 7 -7
3 190 -4 201 -4 6 -10 29 -14 52 -6 40 -5 42 38 69 l45 29 258 3 c188 2 260 0
265 -9 9 -14 56 43 96 118 27 50 27 53 10 70 -18 16 -18 16 -7 -5 7 -13 8 -23
3 -23 -11 0 -122 96 -117 101 2 2 -8 12 -21 22 -13 10 -24 13 -24 7 0 -5 5
-10 10 -10 6 0 10 -5 10 -11 0 -18 -28 9 -36 34 -10 30 -29 47 -44 37z m130
-230 c0 -5 -4 -10 -10 -10 -5 0 -10 5 -10 10 0 6 5 10 10 10 6 0 10 -4 10 -10z
m-450 -80 c-8 -5 -24 -9 -35 -9 -16 1 -16 2 5 9 35 11 48 11 30 0z m-158 -255
c3 -13 1 -22 -3 -19 -9 5 -13 44 -5 44 2 0 6 -11 8 -25z"/>
<path d="M1315 5830 c-4 -6 5 -10 19 -10 21 0 26 -5 27 -27 0 -16 3 -22 6 -15
9 24 -7 62 -27 62 -10 0 -22 -4 -25 -10z"/>
<path d="M594 5751 c1 -22 26 -26 26 -4 0 14 -2 15 -9 4 -8 -12 -10 -12 -13 0
-4 12 -5 12 -4 0z"/>
<path d="M825 5730 c6 -10 2 -12 -16 -7 -23 6 -23 5 -5 -8 14 -10 22 -12 27
-4 4 8 17 8 45 0 56 -16 88 -12 34 4 -25 7 -56 16 -69 21 -19 5 -22 4 -16 -6z"/>
<path d="M1320 5721 c0 -6 4 -13 10 -16 6 -3 7 1 4 9 -7 18 -14 21 -14 7z"/>
<path d="M885 5686 c17 -8 32 -12 34 -10 7 6 -2 11 -34 17 l-30 6 30 -13z"/>
<path d="M1573 5677 c-7 -14 -15 -41 -18 -61 -4 -20 -10 -36 -14 -36 -3 0 -13
-15 -20 -32 -53 -119 -181 -257 -181 -194 0 14 -41 36 -66 36 -11 0 -14 6 -9
23 6 18 5 20 -6 10 -18 -18 -29 -16 -29 5 0 13 -5 11 -23 -11 -12 -15 -43 -40
-70 -56 l-47 -27 76 -38 c59 -30 87 -38 125 -37 28 0 58 -3 67 -8 9 -5 37 -19
62 -32 25 -12 83 -42 130 -65 47 -24 89 -44 93 -44 5 0 15 -7 23 -15 9 -8 24
-15 34 -15 10 0 22 -4 25 -10 10 -16 33 -12 54 9 17 17 17 18 0 30 -10 6 -28
11 -39 11 -25 0 -72 23 -89 44 -7 8 -21 13 -32 11 -11 -2 -32 8 -52 27 -34 32
-87 59 -99 51 -5 -2 -11 3 -14 12 -4 10 -13 13 -25 10 -12 -4 -19 -2 -19 7 0
16 29 60 47 71 7 4 13 14 13 21 0 8 6 19 14 25 8 7 21 26 30 44 9 18 21 39 26
47 34 56 62 161 50 194 -5 16 -7 15 -17 -7z"/>
<path d="M950 5680 c-8 -5 -12 -11 -10 -14 3 -2 14 2 24 10 22 15 10 19 -14 4z"/>
<path d="M1035 5634 c22 -8 45 -16 50 -17 6 -2 16 -6 23 -10 6 -5 12 -4 12 1
0 11 -78 42 -105 42 -12 -1 -3 -7 20 -16z"/>
<path d="M10133 5494 c-2 -7 1 -23 8 -36 7 -13 13 -25 14 -28 0 -3 10 -16 22
-29 13 -14 25 -32 28 -42 3 -10 19 -24 35 -31 17 -7 30 -16 30 -19 0 -7 21
-11 185 -35 90 -13 146 -32 238 -79 38 -20 98 -20 91 -1 -7 19 32 45 57 39 12
-3 26 -16 31 -29 12 -25 51 -33 63 -14 4 6 15 8 26 5 22 -7 99 3 99 13 0 4
-33 7 -74 7 -41 0 -74 -3 -73 -6 1 -4 -1 -7 -5 -8 -21 -3 -29 0 -24 8 8 12
-25 39 -54 43 -17 2 -26 10 -28 26 -2 14 -10 22 -23 22 -10 0 -19 6 -19 13 0
17 -42 37 -77 37 -25 0 -136 38 -175 60 -10 6 -38 10 -63 10 -25 0 -45 4 -45
9 0 5 -21 11 -47 15 -27 4 -57 13 -67 21 -11 8 -28 15 -39 15 -10 0 -16 4 -12
9 3 5 -3 12 -14 16 -29 9 -83 2 -88 -11z"/>
<path d="M1356 5381 c-4 -7 -5 -15 -2 -18 9 -9 19 4 14 18 -4 11 -6 11 -12 0z"/>
<path d="M1800 5120 c0 -5 5 -10 10 -10 6 0 10 5 10 10 0 6 -4 10 -10 10 -5 0
-10 -4 -10 -10z"/>
<path d="M10090 4601 c0 -6 -9 -11 -19 -11 -17 0 -19 -5 -14 -37 7 -41 30
-103 38 -103 3 0 16 6 28 14 30 19 116 27 163 15 21 -6 64 -14 94 -18 106 -17
475 -134 503 -161 5 -4 -14 -32 -41 -61 -129 -139 -121 -124 -120 -219 0 -68
6 -100 30 -165 27 -73 29 -87 22 -155 -8 -81 -6 -134 4 -174 7 -25 9 -23 37
30 24 43 39 59 65 69 56 19 153 66 183 87 17 12 31 35 38 62 8 34 21 49 65 81
30 22 54 43 54 48 0 4 5 5 10 2 17 -11 32 5 20 21 -16 18 -3 114 15 114 7 0
16 11 19 25 l7 26 32 -23 c18 -12 34 -25 37 -28 3 -3 18 -13 33 -23 l28 -18
-3 78 -3 78 -36 18 c-34 16 -37 21 -43 77 l-7 60 -39 0 c-38 0 -40 2 -40 30 0
24 -14 44 -67 98 -57 56 -76 70 -118 79 -27 6 -50 11 -50 10 0 -1 -10 -16 -23
-34 -12 -18 -22 -41 -22 -51 0 -29 -24 -46 -47 -33 -10 6 -36 17 -58 25 -22 7
-78 28 -125 46 -84 31 -171 58 -220 67 -14 3 -40 12 -59 20 -66 30 -371 57
-371 34z m968 -343 c49 -12 72 -30 113 -88 21 -31 24 -44 22 -113 -3 -81 -17
-124 -62 -187 -43 -60 -89 -97 -137 -110 -40 -12 -53 -11 -90 3 -109 40 -160
115 -152 220 11 128 90 249 181 274 56 15 70 15 125 1z"/>
<path d="M10853 4098 c-25 -12 -39 -38 -20 -38 7 0 1 -6 -13 -13 -17 -9 -29
-29 -42 -70 -16 -53 -16 -61 -2 -88 20 -40 41 -46 83 -23 46 25 82 83 95 157
6 31 3 41 -18 62 -27 27 -48 30 -83 13z m68 -35 c13 -16 12 -17 -3 -4 -10 7
-29 11 -43 9 -13 -3 -22 -1 -19 3 9 15 51 10 65 -8z"/>
<path d="M1767 4462 c-42 -44 -34 -123 13 -122 20 1 65 41 90 82 25 42 25 42
-5 56 -41 19 -69 14 -98 -16z"/>
<path d="M1721 4414 c0 -11 3 -14 6 -6 3 7 2 16 -1 19 -3 4 -6 -2 -5 -13z"/>
<path d="M2258 4423 c-9 -2 -20 -13 -23 -24 -4 -10 -10 -19 -14 -19 -5 0 -11
-17 -14 -37 -12 -72 51 -153 118 -153 41 0 85 52 85 102 0 45 -11 71 -48 111
-25 26 -57 33 -104 20z"/>
<path d="M2500 4121 c-53 -54 -87 -79 -159 -115 -51 -25 -123 -64 -161 -86
-38 -22 -72 -40 -77 -40 -21 0 -145 -136 -187 -205 -25 -42 -46 -78 -46 -82 0
-10 -93 -125 -156 -192 -103 -110 -127 -180 -109 -311 7 -49 1 -59 -65 -110
-18 -14 -50 -40 -71 -58 l-38 -33 -153 -5 c-144 -4 -208 -15 -208 -35 0 -5 -6
-9 -14 -9 -18 0 -28 -42 -20 -85 4 -23 18 -43 43 -62 l36 -28 152 2 c131 3
158 6 190 23 21 11 43 20 50 20 7 0 13 4 13 10 0 5 12 13 27 16 15 4 70 27
121 51 l94 43 -7 37 c-4 21 -13 50 -21 65 -22 42 -17 86 22 194 20 54 39 113
42 129 2 17 25 53 51 81 55 62 113 143 148 210 14 27 35 57 47 67 72 62 138
121 186 166 30 28 58 51 62 51 4 0 45 27 90 60 45 33 85 60 89 60 5 0 28 28
53 63 24 34 56 73 70 86 14 14 26 30 26 38 0 16 -31 53 -44 53 -6 0 -40 -31
-76 -69z"/>
<path d="M11256 3995 c-3 -9 -6 -29 -5 -43 1 -22 3 -19 10 12 10 40 6 60 -5
31z"/>
<path d="M10338 3850 c-51 -34 -61 -57 -49 -113 12 -51 36 -85 67 -93 37 -9
125 1 134 16 4 7 15 10 23 7 10 -4 13 0 10 11 -2 9 3 38 11 65 8 26 10 47 5
47 -5 0 -11 10 -14 23 -8 30 -67 67 -108 67 -21 0 -51 -12 -79 -30z"/>
<path d="M10726 3833 c-6 -14 -5 -15 5 -6 7 7 10 15 7 18 -3 3 -9 -2 -12 -12z"/>
<path d="M11364 3722 c-1 -9 -5 -26 -9 -37 -8 -19 -8 -19 8 -3 18 17 22 43 9
52 -4 2 -8 -3 -8 -12z"/>
<path d="M10250 3715 c0 -8 -6 -15 -14 -15 -9 0 -12 -7 -9 -20 5 -17 0 -20
-31 -20 -29 0 -36 4 -36 20 0 17 -7 20 -40 20 -25 0 -40 5 -40 13 0 8 -4 7
-10 -3 -7 -11 -10 -11 -10 -2 0 7 -5 10 -10 7 -6 -4 -8 -10 -5 -15 3 -5 -3 -7
-14 -5 -11 2 -22 -3 -25 -11 -3 -9 -1 -12 4 -9 6 3 10 1 10 -4 0 -6 -6 -11
-14 -11 -8 0 -17 -13 -21 -29 -12 -56 -66 -97 -116 -86 -28 6 -29 6 -29 -35 0
-23 5 -50 11 -61 14 -28 75 -83 135 -123 61 -42 237 -136 253 -136 6 0 14 13
17 29 4 17 11 32 18 34 27 10 137 -12 185 -38 57 -32 65 -55 31 -98 l-21 -26
113 -35 c242 -74 344 -83 412 -40 33 21 50 45 89 123 44 88 168 324 217 413
22 42 23 47 11 67 -8 12 -12 12 -25 -2 -9 -9 -23 -14 -31 -11 -9 4 -15 0 -15
-10 0 -15 -43 -23 -102 -18 -11 1 -18 -5 -18 -16 0 -10 -18 -36 -40 -57 -24
-23 -40 -48 -40 -62 0 -16 -6 -23 -20 -23 -11 0 -20 -7 -20 -15 0 -9 -9 -25
-20 -37 l-20 -22 0 37 c0 30 -4 37 -20 37 -13 0 -20 -7 -20 -20 0 -13 -7 -20
-20 -20 -11 0 -20 -7 -20 -15 0 -12 -12 -15 -52 -14 -29 0 -47 3 -40 6 14 6
17 63 2 63 -5 0 -10 7 -10 15 0 9 -12 18 -29 21 -17 4 -31 14 -34 25 -4 14
-14 19 -41 19 -35 0 -36 1 -36 40 l0 40 -99 0 c-97 0 -99 0 -105 25 -4 14 -11
25 -17 25 -8 0 -8 -4 0 -13 8 -11 6 -18 -9 -32 -11 -10 -23 -16 -26 -12 -9 9
6 27 23 27 13 0 13 3 3 15 -15 18 -41 20 -37 3 1 -7 -5 -13 -13 -13 -8 0 -14
8 -14 18 1 10 -5 17 -17 17 -11 0 -19 -7 -19 -17 0 -13 -4 -11 -20 7 -22 26
-25 36 -10 45 6 3 10 -1 10 -9 0 -9 5 -16 11 -16 5 0 8 4 5 9 -3 4 -11 21 -17
37 l-11 29 -14 -40 -14 -40 5 43 c3 23 3 42 0 42 -3 0 -5 -7 -5 -15z m1011
-158 c-10 -9 -11 -8 -5 6 3 10 9 15 12 12 3 -3 0 -11 -7 -18z m-64 -49 c-3 -7
-5 -2 -5 12 0 14 2 19 5 13 2 -7 2 -19 0 -25z m-397 -228 c0 -5 -2 -10 -4 -10
-3 0 -8 5 -11 10 -3 6 -1 10 4 10 6 0 11 -4 11 -10z"/>
<path d="M10542 3685 c0 -16 2 -22 5 -12 2 9 2 23 0 30 -3 6 -5 -1 -5 -18z"/>
<path d="M11170 3620 c0 -32 14 -40 24 -14 10 27 7 44 -9 44 -10 0 -15 -10
-15 -30z"/>
<path d="M11316 3635 c4 -8 10 -15 14 -15 4 0 10 7 14 15 4 10 -1 15 -14 15
-13 0 -18 -5 -14 -15z"/>
<path d="M8067 3623 c-12 -12 -7 -43 7 -43 9 0 12 8 8 25 -5 27 -6 28 -15 18z"/>
<path d="M10450 3620 c0 -5 6 -10 14 -10 8 0 18 5 21 10 3 6 -3 10 -14 10 -12
0 -21 -4 -21 -10z"/>
<path d="M1140 3605 c-9 -11 -17 -12 -31 -4 -15 8 -19 6 -19 -8 0 -23 60 -93
80 -93 8 0 28 19 44 42 l29 41 -22 19 c-28 22 -64 23 -81 3z"/>
<path d="M10733 3555 c0 -33 2 -45 4 -27 2 18 2 45 0 60 -2 15 -4 0 -4 -33z"/>
<path d="M10751 3584 c0 -11 3 -14 6 -6 3 7 2 16 -1 19 -3 4 -6 -2 -5 -13z"/>
<path d="M10701 3563 c0 -12 -7 -24 -13 -26 -10 -4 -9 -8 2 -16 12 -8 16 -6
18 9 2 11 1 28 -1 38 -4 13 -5 12 -6 -5z"/>
<path d="M8083 3478 c0 -77 3 -98 13 -98 8 0 14 -9 14 -20 0 -11 4 -20 10 -20
5 0 7 6 5 13 -2 6 -6 30 -9 52 -2 22 -7 51 -11 65 -4 14 -10 43 -14 65 -6 29
-8 14 -8 -57z"/>
<path d="M10831 3531 c-12 -8 -12 -14 -1 -40 15 -37 50 -43 50 -9 0 17 -3 19
-12 10 -20 -20 -27 -14 -23 18 2 17 3 30 2 30 -1 0 -8 -4 -16 -9z"/>
<path d="M10861 3524 c0 -11 3 -14 6 -6 3 7 2 16 -1 19 -3 4 -6 -2 -5 -13z"/>
<path d="M10755 3500 c-3 -5 -1 -10 4 -10 6 0 11 5 11 10 0 6 -2 10 -4 10 -3
0 -8 -4 -11 -10z"/>
<path d="M4690 3410 c-8 -5 -12 -11 -10 -14 3 -2 14 2 24 10 22 15 10 19 -14
4z"/>
<path d="M1166 3373 c-21 -21 -26 -35 -26 -75 0 -106 74 -175 124 -116 38 44
4 177 -54 208 -14 7 -24 4 -44 -17z"/>
<path d="M8129 3323 c0 -5 -3 -20 -5 -35 -3 -19 0 -28 9 -28 9 0 12 10 9 35
-4 32 -11 47 -13 28z"/>
<path d="M8080 3270 c0 -5 5 -10 11 -10 5 0 7 5 4 10 -3 6 -8 10 -11 10 -2 0
-4 -4 -4 -10z"/>
<path d="M1410 3177 c0 -14 5 -29 10 -32 7 -4 8 3 4 22 -9 38 -14 42 -14 10z"/>
<path d="M1460 3167 c0 -14 -7 -30 -15 -37 -19 -16 -19 -35 1 -54 14 -15 14
-16 -5 -16 -12 0 -21 -6 -21 -15 0 -7 -8 -19 -17 -24 -14 -8 -8 -10 27 -11 55
0 92 9 84 21 -2 5 -6 21 -8 36 -11 80 -46 158 -46 100z"/>
<path d="M1442 3160 c0 -14 2 -19 5 -12 2 6 2 18 0 25 -3 6 -5 1 -5 -13z"/>
<path d="M1392 3128 c-7 -7 -12 -19 -11 -27 0 -12 2 -13 6 -2 5 11 7 11 14 0
6 -10 9 -6 9 14 0 31 -1 32 -18 15z"/>
<path d="M2271 3076 l-33 -34 13 -116 c7 -64 16 -116 19 -116 4 0 17 11 30 25
13 14 28 25 34 25 12 0 46 86 46 117 0 10 4 23 9 29 6 5 -7 27 -35 57 -25 26
-46 47 -48 47 -1 0 -17 -15 -35 -34z"/>
<path d="M1300 3053 c8 -3 21 -10 28 -16 9 -7 11 -6 6 7 -3 9 -16 16 -28 15
-14 0 -16 -2 -6 -6z"/>
<path d="M1350 3029 c0 -5 5 -7 10 -4 6 3 10 8 10 11 0 2 -4 4 -10 4 -5 0 -10
-5 -10 -11z"/>
<path d="M3156 3024 c-3 -9 -2 -23 4 -32 7 -14 9 -10 10 16 0 35 -5 41 -14 16z"/>
<path d="M9525 2953 c-3 -10 -2 -19 4 -21 5 -2 7 -10 4 -18 -3 -9 0 -12 9 -9
10 4 13 15 10 31 -6 31 -18 39 -27 17z"/>
<path d="M9500 2924 c0 -14 4 -23 9 -20 5 3 7 15 4 26 -7 28 -13 25 -13 -6z"/>
<path d="M9481 2906 c-1 -12 -6 -16 -16 -12 -8 3 -15 1 -15 -4 0 -6 -7 -10
-15 -10 -18 0 -20 -79 -4 -185 18 -121 18 -126 -5 -119 -12 4 -29 13 -40 20
-16 11 -23 8 -54 -24 -75 -80 -101 -118 -104 -153 -1 -19 -10 -47 -21 -62 -11
-16 -21 -53 -24 -86 -5 -56 -4 -59 25 -80 19 -13 33 -17 37 -11 3 5 10 10 15
10 18 0 -15 -55 -60 -101 -62 -63 -83 -89 -96 -120 -10 -21 -21 -27 -59 -32
-109 -15 -97 -30 -133 166 -18 94 -32 184 -32 200 0 34 -13 34 -158 10 -85
-14 -101 -20 -96 -33 4 -8 11 -42 16 -75 23 -149 30 -174 57 -198 15 -13 34
-26 44 -30 25 -9 21 -51 -8 -85 -48 -57 -42 -60 128 -64 l153 -3 38 -43 c34
-37 40 -51 42 -95 4 -73 11 -127 18 -135 4 -3 73 2 154 11 81 9 193 20 250 23
87 6 102 9 98 23 -2 9 -7 42 -11 75 l-7 59 28 -7 c38 -10 93 -74 94 -109 0
-21 -7 -30 -27 -39 -47 -20 -73 -50 -79 -90 -7 -40 -24 -53 -24 -17 0 20 -4
21 -42 15 -23 -4 -48 -12 -55 -18 -18 -14 -16 -58 2 -72 13 -10 12 -16 -4 -51
-22 -46 -50 -163 -44 -185 2 -8 17 -30 34 -49 29 -33 29 -34 74 -21 54 15 63
25 95 104 24 59 26 61 59 58 39 -4 85 12 124 45 16 13 36 23 45 23 18 0 142
116 142 132 0 5 18 48 41 96 23 48 45 98 50 111 7 17 14 21 27 16 50 -21 59
-18 83 30 17 33 31 48 49 52 23 4 31 18 63 105 29 77 35 104 26 114 -6 8 -18
14 -25 14 -8 0 -14 4 -14 9 0 5 -9 11 -20 14 -24 6 -25 21 -5 76 8 22 11 41 7
41 -4 0 -2 4 4 8 6 4 14 23 17 42 l6 35 -19 -38 c-10 -21 -21 -51 -25 -67 -4
-18 -11 -27 -17 -24 -7 5 -9 0 -6 -14 4 -15 2 -22 -9 -22 -12 0 -14 13 -11 72
3 66 1 74 -24 100 -14 15 -33 28 -42 28 -9 0 -16 8 -16 20 0 17 -7 20 -40 20
-28 0 -40 4 -40 14 0 9 -15 17 -40 21 -33 6 -40 11 -40 29 0 28 -51 78 -82 81
-37 4 -38 4 -38 19 0 8 -9 18 -20 21 -11 3 -20 11 -20 16 0 5 -8 9 -17 9 -10
0 -31 7 -47 15 -15 8 -37 15 -48 15 -22 0 -60 18 -70 34 -5 7 -15 4 -30 -9
-62 -54 -87 -65 -128 -59 -22 4 -40 9 -40 13 0 3 13 20 28 38 28 31 28 33 20
115 -16 171 -25 252 -27 234z m-31 -405 c0 -5 -6 -16 -13 -23 -7 -7 -18 -25
-24 -40 -12 -27 -53 -41 -53 -18 0 6 7 10 16 10 8 0 13 4 10 9 -3 5 7 23 23
40 30 32 41 38 41 22z m271 -88 c19 -9 36 -19 39 -23 5 -8 18 -14 144 -78 95
-48 95 -47 34 -119 -14 -17 -29 -41 -33 -52 -3 -12 -11 -21 -17 -21 -22 0
-174 65 -227 97 -30 18 -59 33 -64 33 -9 0 1 41 12 50 6 5 29 44 56 98 10 17
18 32 20 32 1 0 17 -8 36 -17z m-357 -61 c-25 -23 -49 -59 -63 -94 -26 -65
-48 -80 -26 -19 30 85 78 151 109 151 18 -1 16 -6 -20 -38z m-311 -493 c-4
-20 -10 -25 -24 -22 -23 6 -24 12 -3 42 20 27 34 16 27 -20z"/>
<path d="M5080 2889 c0 -5 9 -9 20 -9 11 0 20 -4 20 -10 0 -5 7 -10 16 -10 23
0 8 17 -26 28 -18 7 -30 7 -30 1z"/>
<path d="M5210 2881 c0 -11 -6 -21 -12 -24 -7 -2 1 -8 17 -11 17 -4 49 -16 73
-27 23 -10 49 -19 57 -19 8 0 15 -4 15 -10 0 -5 5 -10 11 -10 6 0 20 -11 31
-25 20 -26 38 -33 38 -14 0 5 -5 7 -10 4 -7 -4 -9 3 -5 22 5 21 4 24 -4 13 -8
-12 -11 -12 -17 3 -4 10 -13 16 -20 13 -8 -3 -14 0 -14 7 0 7 -8 13 -17 14
-30 2 -79 25 -65 30 7 3 18 1 25 -5 7 -5 20 -12 31 -16 14 -5 17 -2 12 9 -3 8
-1 15 4 15 6 0 10 5 10 11 0 8 -4 8 -12 2 -7 -5 -42 -10 -78 -10 -36 -1 -59 1
-52 4 17 7 15 43 -3 43 -8 0 -15 -9 -15 -19z"/>
<path d="M7821 2878 c0 -16 2 -28 7 -28 4 0 7 -19 6 -42 l-2 -43 7 40 c4 22 4
45 0 50 -4 6 -9 19 -12 30 -4 15 -5 13 -6 -7z"/>
<path d="M7840 2880 c0 -6 17 -10 37 -10 43 0 41 5 -4 13 -19 4 -33 2 -33 -3z"/>
<path d="M7860 2835 c0 -9 9 -15 25 -15 28 0 34 15 9 24 -25 10 -34 7 -34 -9z"/>
<path d="M8005 2840 c3 -5 8 -10 11 -10 2 0 4 5 4 10 0 6 -5 10 -11 10 -5 0
-7 -4 -4 -10z"/>
<path d="M7944 2825 c-10 -8 -14 -15 -8 -15 6 0 17 7 24 15 16 19 9 19 -16 0z"/>
<path d="M7890 2763 c0 -22 2 -25 10 -13 13 20 13 40 0 40 -5 0 -10 -12 -10
-27z"/>
<path d="M5434 2705 c9 -45 19 -143 18 -190 l0 -50 8 60 c10 65 2 188 -11 180
-4 -3 -10 1 -13 7 -3 7 -4 4 -2 -7z"/>
<path d="M132 2703 c3 -11 -80 -91 -87 -85 -3 3 -5 1 -5 -5 0 -14 31 -40 76
-65 35 -19 57 -21 224 -22 102 -1 205 -5 230 -10 45 -8 46 -7 104 46 l59 54
-134 12 c-89 7 -159 8 -209 3 -69 -9 -80 -7 -140 16 -36 14 -73 34 -83 44 -18
19 -39 26 -35 12z"/>
<path d="M5470 2676 c0 -14 5 -28 10 -31 6 -3 11 -43 12 -88 1 -60 3 -68 6
-32 5 65 -7 175 -19 175 -5 0 -9 -11 -9 -24z"/>
<path d="M3140 2614 c0 -25 -28 -47 -55 -41 -16 2 -25 0 -25 -8 0 -16 -23 -25
-63 -25 -18 0 -43 -9 -57 -20 -33 -26 -55 -25 -68 3 -10 21 -11 21 -11 -6 -1
-36 -21 -26 -22 11 0 15 -3 21 -6 14 -10 -26 18 -182 36 -192 15 -9 14 -9 -1
-10 -21 0 -21 1 -3 -74 8 -33 12 -63 10 -67 -3 -3 2 -62 10 -130 8 -68 15
-149 15 -180 0 -31 2 -58 5 -61 3 -3 31 1 63 8 31 8 71 14 87 14 17 0 43 10
58 23 l29 22 4 226 5 227 -33 5 c-18 4 -73 12 -123 18 -49 7 -94 16 -99 20
-13 12 3 11 104 -5 47 -8 100 -11 118 -9 l32 5 0 124 c0 68 -2 124 -5 124 -3
0 -5 -7 -5 -16z m-273 -171 c-3 -10 -5 -4 -5 12 0 17 2 24 5 18 2 -7 2 -21 0
-30z"/>
<path d="M1693 2583 c-11 -10 -23 -27 -25 -37 -2 -13 -15 -23 -36 -28 -19 -5
-45 -21 -59 -36 -20 -22 -24 -34 -20 -67 4 -37 25 -103 37 -115 10 -10 10 -31
0 -25 -5 3 -10 3 -10 -2 0 -4 -15 -20 -33 -34 -27 -22 -49 -28 -110 -34 l-77
-7 0 31 c0 17 -4 31 -10 31 -5 0 -10 24 -10 53 0 65 -22 101 -55 93 -14 -4
-27 0 -35 8 -6 8 -25 14 -43 14 -17 -1 -33 4 -35 10 -2 7 -11 12 -20 12 -13 0
-10 -7 13 -30 55 -54 59 -63 62 -124 2 -59 1 -61 -45 -107 -35 -35 -58 -49
-87 -54 -22 -3 -47 -10 -56 -15 -9 -5 -27 -6 -40 -3 -22 6 -22 6 -4 -18 27
-36 67 -34 152 8 60 30 76 34 83 23 5 -8 6 -18 3 -23 -3 -5 0 -13 8 -18 11 -6
9 -16 -10 -48 -12 -23 -25 -53 -27 -68 -7 -36 -12 -43 -33 -43 -22 0 -45 -25
-36 -40 10 -16 -6 -12 -27 7 -25 22 -36 8 -13 -17 23 -25 30 -25 82 3 23 12
62 33 87 46 25 14 46 28 46 33 0 15 38 8 44 -9 11 -28 17 -137 8 -151 -5 -7
-28 -16 -52 -20 l-43 -7 24 -28 c22 -25 27 -26 62 -17 20 6 37 14 37 18 0 4
12 15 28 24 15 9 45 33 67 53 45 40 120 95 130 95 13 0 64 48 58 54 -4 3 0 6
9 6 8 0 25 12 39 26 13 14 39 32 57 41 25 12 30 18 20 25 -9 7 -6 8 11 4 32
-7 114 36 162 85 34 35 39 46 39 87 l0 48 -58 -10 c-32 -5 -69 -6 -83 -3 -32
8 -68 57 -73 100 -5 37 12 59 67 87 15 7 27 16 27 19 0 16 -54 62 -66 57 -8
-3 -13 0 -11 6 2 13 -33 33 -73 42 -16 4 -33 0 -47 -11z m-563 -463 c0 -5 -8
-10 -17 -10 -15 0 -16 2 -3 10 19 12 20 12 20 0z m120 -150 c-8 -5 -19 -10
-25 -10 -5 0 -3 5 5 10 8 5 20 10 25 10 6 0 3 -5 -5 -10z"/>
<path d="M2822 2580 c0 -14 2 -19 5 -12 2 6 2 18 0 25 -3 6 -5 1 -5 -13z"/>
<path d="M5800 2583 c0 -7 -6 -13 -14 -13 -8 0 -17 -3 -20 -8 -2 -4 14 -5 37
-3 23 2 35 6 27 9 -8 3 -18 10 -22 16 -5 8 -8 7 -8 -1z"/>
<path d="M6321 2563 c0 -12 -9 -27 -18 -32 -17 -10 -17 -10 0 -11 20 0 31 20
24 47 -4 15 -5 14 -6 -4z"/>
<path d="M5919 2545 c-3 -2 -30 -7 -60 -11 -63 -7 -77 -14 -28 -14 l34 0 -29
-15 c-15 -8 -40 -15 -55 -14 l-26 1 25 7 25 7 -28 6 c-21 4 -31 1 -40 -13 -12
-19 -57 -27 -57 -10 0 13 -27 21 -45 15 -8 -4 -15 -15 -15 -26 0 -15 -5 -18
-22 -13 -18 5 -20 4 -8 -4 15 -11 140 -4 150 8 3 3 37 6 75 6 67 0 70 1 69 23
-1 18 6 24 28 29 15 3 28 9 28 14 0 10 -14 12 -21 4z"/>
<path d="M6220 2530 c-15 -5 -18 -8 -8 -9 9 -1 25 -4 35 -7 13 -4 15 -3 4 4
-11 8 -11 10 0 15 21 8 -3 6 -31 -3z"/>
<path d="M5963 2508 c-29 -5 -53 -14 -53 -19 0 -6 8 -8 18 -5 45 12 90 18 168
21 47 1 88 5 91 9 10 9 -165 5 -224 -6z"/>
<path d="M10535 2470 c-3 -5 -1 -10 4 -10 6 0 11 5 11 10 0 6 -2 10 -4 10 -3
0 -8 -4 -11 -10z"/>
<path d="M5491 2454 c0 -11 3 -14 6 -6 3 7 2 16 -1 19 -3 4 -6 -2 -5 -13z"/>
<path d="M10355 2420 c-4 -12 -5 -24 -2 -27 3 -2 8 5 12 17 4 12 5 24 2 27 -3
2 -8 -5 -12 -17z"/>
<path d="M10798 2323 c-23 -6 -23 -5 12 -70 38 -68 39 -111 4 -147 -45 -44
-108 -29 -184 43 -24 22 -45 41 -46 41 -13 0 -34 -69 -34 -112 0 -49 4 -58 53
-118 35 -43 69 -72 99 -87 43 -20 87 -72 92 -108 4 -24 12 -26 57 -12 24 8 73
22 109 32 36 10 66 20 68 21 2 1 -9 28 -23 60 -17 38 -30 88 -36 144 -14 136
-12 177 11 200 11 11 20 25 20 31 0 22 -46 54 -101 72 -56 17 -69 19 -101 10z
m99 -449 c-3 -3 -12 -4 -19 -1 -8 3 -5 6 6 6 11 1 17 -2 13 -5z"/>
<path d="M10323 2282 c-1 -22 0 -24 9 -8 6 10 6 22 2 26 -5 5 -10 -3 -11 -18z"/>
<path d="M2290 1936 c0 -8 5 -18 10 -21 6 -3 10 3 10 14 0 12 -4 21 -10 21 -5
0 -10 -6 -10 -14z"/>
<path d="M2213 1891 c-50 -45 -53 -59 -17 -86 14 -10 35 -37 46 -59 l20 -39
-50 37 c-47 34 -57 37 -160 48 -113 11 -162 7 -162 -15 0 -12 49 -61 86 -84
10 -7 36 -24 57 -38 21 -14 49 -25 63 -25 16 0 27 -8 33 -22 5 -13 23 -36 41
-53 l31 -30 45 48 c38 39 48 45 64 37 28 -15 30 -13 24 33 -8 67 -10 98 -12
164 -2 54 -6 66 -32 93 -16 16 -31 30 -32 30 -2 -1 -22 -18 -45 -39z"/>
<path d="M8545 1921 c3 -5 -5 -11 -17 -13 -19 -3 -20 -4 -6 -10 10 -4 25 1 39
13 l22 19 -22 0 c-12 0 -20 -4 -16 -9z"/>
<path d="M7015 1890 c-11 -5 -60 -9 -110 -9 -49 -1 -106 -5 -125 -11 -19 -5
-61 -11 -92 -13 -32 -2 -59 -5 -61 -8 -2 -2 1 -28 6 -57 8 -52 10 -54 35 -49
15 3 83 11 152 17 69 6 172 18 230 26 150 20 188 19 211 -8 10 -13 18 -30 19
-38 0 -23 -94 -46 -235 -59 -285 -26 -356 -34 -360 -42 -3 -4 -13 -5 -21 -2
-14 5 -15 0 -9 -38 4 -24 9 -46 11 -48 8 -8 555 51 613 66 18 5 21 13 21 64 0
57 -10 84 -56 155 -9 13 -34 29 -58 36 -22 6 -45 15 -50 20 -13 10 -95 9 -121
-2z m218 -267 c-7 -2 -21 -2 -30 0 -10 3 -4 5 12 5 17 0 24 -2 18 -5z"/>
<path d="M6495 1840 c-27 -4 -102 -11 -165 -15 -63 -3 -161 -13 -216 -21 -56
-8 -135 -16 -175 -19 -41 -3 -90 -7 -109 -10 -19 -2 -93 -9 -165 -14 -71 -6
-164 -15 -205 -20 -41 -6 -102 -11 -136 -11 -33 0 -64 -3 -68 -7 -4 -4 -22 -8
-39 -9 -80 -4 -191 -15 -292 -29 -60 -8 -160 -16 -221 -18 -103 -5 -116 -7
-185 -42 -74 -36 -75 -37 -93 -96 -11 -32 -16 -62 -13 -66 4 -3 10 8 13 26 8
39 10 40 76 46 252 20 312 26 373 34 39 6 94 11 123 11 l53 0 -7 46 c-8 54 1
64 59 64 25 0 37 -4 36 -12 -1 -7 -1 -28 0 -47 l1 -33 83 6 c45 3 147 13 227
21 307 31 548 56 627 65 45 6 139 15 210 21 70 5 155 13 188 17 l60 7 0 48 c0
46 1 47 32 47 17 0 35 5 38 10 7 11 -34 11 -110 0z m-1982 -287 c-7 -2 -19 -2
-25 0 -7 3 -2 5 12 5 14 0 19 -2 13 -5z"/>
<path d="M3059 1766 c-3 -3 -35 -6 -72 -7 l-67 -2 0 -116 c0 -64 3 -125 6
-137 3 -13 23 -27 55 -40 28 -10 56 -25 62 -33 10 -12 9 -12 -9 -3 -11 6 -40
17 -62 25 l-42 15 0 -63 c0 -61 -1 -64 -27 -69 -31 -6 -136 -17 -191 -21 -21
-1 -87 -8 -148 -15 -61 -7 -118 -10 -127 -7 -10 4 -20 29 -28 67 -6 33 -14 59
-16 56 -3 -3 2 -71 11 -153 8 -81 20 -197 25 -257 6 -60 12 -111 14 -112 2 -2
61 3 133 11 71 8 132 15 135 15 4 0 10 46 14 103 5 81 12 110 31 144 27 46 52
57 168 74 33 4 62 12 65 16 3 4 28 9 55 11 88 6 90 9 81 121 -4 53 -7 105 -6
116 0 11 2 73 5 138 3 107 2 117 -15 117 -9 0 -24 2 -31 5 -8 3 -16 3 -19 1z
m-154 -461 l40 -14 -35 -1 c-20 0 -46 -7 -59 -16 -27 -19 -43 -8 -35 24 7 26
31 28 89 7z"/>
<path d="M2868 1743 c6 -2 18 -2 25 0 6 3 1 5 -13 5 -14 0 -19 -2 -12 -5z"/>
<path d="M11080 1743 c-19 -3 -37 -8 -40 -12 -3 -4 -38 -26 -78 -49 -60 -34
-82 -41 -120 -40 -26 1 -72 -6 -102 -16 -56 -17 -111 -34 -197 -60 -27 -8
-104 -34 -172 -58 -108 -37 -128 -48 -158 -83 -33 -38 -89 -177 -79 -194 3 -4
10 -108 16 -232 6 -123 12 -231 14 -239 2 -8 6 -26 9 -40 3 -14 8 -68 10 -120
3 -52 10 -122 16 -155 6 -33 17 -114 26 -180 8 -66 20 -138 26 -160 6 -22 13
-55 16 -72 l5 -33 574 0 574 0 0 70 0 70 -51 0 -50 0 6 158 c3 86 10 247 17
357 6 110 9 225 5 255 -3 30 -8 206 -11 390 l-7 335 -27 55 -27 55 -80 1 c-44
1 -96 -1 -115 -3z"/>
<path d="M877 1602 c-63 -65 -77 -84 -77 -110 0 -22 -5 -32 -15 -32 -8 0 -15
-4 -15 -9 0 -5 7 -16 15 -25 8 -8 15 -17 15 -21 0 -4 7 -14 16 -23 21 -20 3
-28 -27 -12 -12 7 -34 14 -48 15 -14 2 -82 11 -151 20 -168 22 -426 17 -522
-11 l-68 -19 0 -232 c0 -135 4 -233 9 -233 5 0 22 14 38 31 62 68 171 148 213
158 23 5 45 12 48 16 4 4 7 35 7 71 0 35 6 69 12 75 9 9 11 -15 10 -99 -1 -73
-6 -115 -14 -124 -7 -6 -13 -22 -13 -34 0 -12 -13 -32 -30 -45 -16 -13 -30
-30 -30 -37 0 -7 -7 -27 -16 -43 -8 -17 -13 -33 -11 -36 3 -2 25 8 49 23 23
16 66 39 93 53 62 30 168 100 215 141 29 26 41 30 70 26 19 -3 46 -15 60 -26
33 -26 86 -62 130 -86 19 -10 37 -22 40 -25 3 -3 15 -11 27 -18 12 -6 40 -46
61 -89 54 -106 75 -145 88 -157 6 -5 24 -32 40 -59 34 -57 41 -68 77 -123 15
-24 27 -47 27 -52 0 -5 5 -11 12 -13 15 -5 16 -77 2 -86 -6 -4 -17 -34 -25
-67 -13 -53 -13 -68 0 -123 11 -45 12 -65 4 -73 -8 -8 -13 -2 -18 20 -11 51
-23 35 -13 -17 20 -103 9 -93 96 -90 l77 3 5 51 c4 39 16 67 53 122 27 39 56
92 65 119 15 40 25 52 62 70 25 12 52 20 60 17 8 -3 40 -10 70 -16 30 -5 61
-14 67 -20 20 -16 93 -168 93 -193 0 -12 -9 -51 -20 -85 -11 -34 -20 -64 -20
-66 0 -2 194 -4 430 -4 l430 0 2 28 c1 15 1 36 0 47 -1 11 -3 56 -3 100 -1 57
-3 70 -8 45 l-7 -35 -7 29 c-5 17 -4 33 2 39 6 6 12 22 12 37 1 20 2 21 6 5 3
-11 11 -27 19 -36 8 -9 11 -19 7 -23 -5 -4 -8 -59 -8 -122 l-1 -114 55 0 54 0
-7 46 c-4 31 -1 54 9 74 10 20 13 46 9 96 -6 68 -32 168 -34 129 -1 -21 -22
-55 -35 -55 -4 0 -18 9 -32 20 -27 21 -68 27 -78 10 -3 -5 1 -10 9 -10 10 0
16 -9 16 -22 0 -19 -2 -20 -11 -8 -7 11 -9 -1 -6 -45 2 -33 0 -73 -3 -90 -6
-28 -7 -27 -14 18 -5 26 -12 50 -17 52 -8 6 -49 -52 -62 -86 -3 -9 -22 -29
-41 -44 -52 -40 -116 -33 -219 24 -71 39 -80 48 -108 103 -17 33 -43 78 -60
100 -16 23 -29 45 -29 49 0 4 -27 65 -61 136 -33 70 -64 137 -68 148 -33 82
-55 132 -62 145 -17 29 -48 75 -56 85 -30 37 -63 85 -63 91 0 4 -17 30 -39 58
-21 29 -53 76 -70 106 -17 30 -40 65 -50 77 -20 24 -83 53 -115 53 -12 0 -35
13 -51 30 -16 16 -31 28 -33 25 -3 -2 -18 5 -35 17 l-29 21 7 -22 c3 -12 24
-49 45 -84 65 -105 186 -319 207 -368 12 -26 24 -68 27 -95 6 -43 4 -52 -19
-79 -28 -32 -49 -73 -61 -120 l-7 -30 -8 35 c-5 19 -6 56 -2 81 9 74 -8 105
-115 215 -98 100 -160 182 -182 239 -17 45 -53 95 -69 95 -27 0 10 29 45 36
19 3 34 8 34 10 0 3 -25 50 -55 106 -30 55 -55 106 -55 112 0 15 -78 156 -97
179 -9 9 -23 17 -32 17 -9 0 -51 -35 -94 -78z"/>
<path d="M6450 1623 c-58 -7 -163 -17 -234 -22 -167 -14 -204 -21 -182 -33 15
-9 75 -27 157 -48 40 -10 352 9 366 23 2 3 3 24 1 48 l-3 44 -105 -12z"/>
<path d="M5615 1543 c-27 -2 -104 -10 -170 -17 -66 -8 -157 -18 -202 -21 l-83
-7 0 -37 c0 -63 3 -64 136 -47 65 9 135 16 156 16 23 0 53 9 76 23 20 13 54
30 75 38 20 7 37 17 37 21 0 4 7 8 16 8 8 0 22 7 30 15 14 13 13 15 -3 13 -10
-1 -40 -3 -68 -5z"/>
<path d="M7280 1521 c0 -12 -99 -28 -255 -41 -65 -6 -149 -15 -185 -20 -36 -5
-89 -10 -118 -10 l-53 0 3 -52 c3 -53 3 -53 38 -54 19 -1 62 3 95 8 33 5 75 9
93 8 17 0 42 4 53 11 14 7 19 7 15 1 -7 -12 -6 -12 169 14 61 9 115 20 121 25
6 5 24 5 40 0 26 -7 30 -6 31 11 1 12 -6 22 -18 25 -21 6 -25 38 -9 63 8 11 9
8 4 -12 -4 -18 -2 -28 5 -28 6 0 11 14 11 30 0 23 -4 30 -20 30 -11 0 -20 -4
-20 -9z m-3 -43 c-3 -8 -6 -5 -6 6 -1 11 2 17 5 13 3 -3 4 -12 1 -19z"/>
<path d="M5025 1484 c-11 -1 -90 -10 -175 -18 -85 -9 -202 -20 -258 -26 -57
-5 -109 -7 -115 -3 -10 6 -4 -4 42 -65 20 -26 32 -32 61 -32 20 0 39 3 43 6 3
3 36 8 74 10 37 3 91 7 118 10 28 2 57 5 65 5 8 0 22 3 30 6 8 3 31 7 50 9 19
2 51 5 70 7 25 3 35 9 34 20 -1 10 -2 31 -3 47 0 17 -4 29 -8 29 -5 -1 -17 -3
-28 -5z"/>
<path d="M4410 1440 c0 -5 5 -10 11 -10 5 0 7 5 4 10 -3 6 -8 10 -11 10 -2 0
-4 -4 -4 -10z"/>
<path d="M6515 1429 c-27 -4 -82 -8 -120 -8 -64 -1 -77 -5 -140 -42 -39 -23
-94 -52 -123 -66 -30 -13 -52 -27 -49 -30 3 -3 45 0 94 6 48 6 117 13 153 15
36 3 107 10 158 16 l92 13 0 41 c0 57 -7 62 -65 55z"/>
<path d="M4458 1375 c-2 -25 0 -45 4 -45 5 0 8 20 8 45 0 25 -2 45 -4 45 -2 0
-6 -20 -8 -45z"/>
<path d="M3140 1397 c0 -3 13 -12 29 -20 25 -13 31 -13 35 -1 3 8 0 14 -7 14
-7 0 -22 3 -34 6 -13 4 -23 4 -23 1z"/>
<path d="M4508 1333 c7 -3 16 -2 19 1 4 3 -2 6 -13 5 -11 0 -14 -3 -6 -6z"/>
<path d="M9166 1225 c3 -66 10 -160 15 -210 6 -49 14 -137 19 -195 11 -135 37
-382 51 -488 6 -46 9 -86 6 -89 -3 -2 -79 -6 -168 -8 -90 -2 -222 -11 -294
-19 -71 -8 -204 -22 -295 -31 -91 -9 -235 -22 -320 -30 -85 -9 -195 -20 -245
-25 -49 -5 -147 -14 -216 -20 -69 -5 -132 -12 -140 -14 -8 -3 -75 -10 -149
-16 -157 -12 -291 -27 -297 -34 -3 -2 -2 -14 2 -25 6 -21 11 -21 385 -21 l379
0 4 33 4 32 1 -32 2 -33 145 0 c90 0 145 4 145 10 0 6 -27 10 -60 10 -53 0
-60 2 -60 20 0 14 -7 20 -22 20 -21 1 -21 2 -5 11 9 5 21 8 26 5 5 -3 42 -1
82 4 110 15 322 40 341 40 13 0 18 -13 24 -60 l7 -60 418 0 c231 0 420 4 423
9 3 5 2 22 -3 37 -5 16 -12 87 -15 159 -6 158 -21 297 -46 430 -11 55 -22 124
-26 152 -4 35 -14 60 -29 75 -12 13 -25 41 -28 63 -4 22 -11 74 -17 115 -6 41
-20 127 -30 190 l-18 115 4 -120z"/>
<path d="M5262 1307 l-93 -10 7 -46 c3 -25 9 -49 13 -52 6 -6 30 -4 330 27
l164 18 -114 38 c-122 41 -142 42 -307 25z"/>
<path d="M7285 1301 c-25 -10 -483 -62 -563 -63 -33 -1 -33 -1 -30 -47 l3 -45
90 2 c50 2 146 9 215 17 69 8 148 16 175 18 42 2 49 6 47 21 -2 10 1 15 7 12
5 -4 14 0 18 9 5 8 22 16 38 19 17 2 23 1 15 -1 -29 -9 -34 -23 -9 -24 l24 -1
-25 -8 c-24 -9 -24 -9 5 -7 25 2 31 7 33 31 4 33 -5 76 -16 75 -4 0 -16 -4
-27 -8z"/>
<path d="M4930 1274 c-63 -7 -173 -18 -245 -24 -71 -6 -142 -14 -157 -16 -27
-5 -27 -6 -13 -35 9 -16 23 -29 33 -30 14 0 14 -2 -3 -8 -17 -7 -15 -10 18
-19 41 -12 67 -7 67 12 0 8 3 7 8 -1 10 -17 216 -1 239 18 14 12 16 12 8 0 -6
-11 -3 -13 16 -8 13 3 61 9 107 13 79 7 83 8 78 28 -3 12 -6 36 -6 54 0 24 -4
32 -17 31 -10 -1 -70 -8 -133 -15z"/>
<path d="M6535 1218 c-27 -4 -104 -12 -170 -18 -66 -5 -192 -16 -280 -25 -88
-9 -209 -20 -270 -25 -60 -6 -168 -16 -240 -24 -71 -8 -187 -20 -257 -27 -140
-14 -135 -11 -122 -79 l7 -32 56 5 c31 3 81 8 111 12 30 3 98 10 150 14 52 5
120 12 150 16 30 3 100 10 155 15 230 19 457 41 555 55 58 8 131 16 163 16
l57 2 -2 43 c0 24 -4 47 -7 51 -3 5 -28 5 -56 1z"/>
<path d="M4435 1187 c-4 -10 -5 -21 -1 -24 10 -10 18 4 13 24 -4 17 -4 17 -12
0z"/>
<path d="M4472 1180 c0 -14 2 -19 5 -12 2 6 2 18 0 25 -3 6 -5 1 -5 -13z"/>
<path d="M4454 1133 c7 -7 77 -5 85 2 2 3 -17 5 -44 5 -27 0 -45 -3 -41 -7z"/>
<path d="M7245 1090 c-3 -6 1 -7 9 -4 18 7 21 14 7 14 -6 0 -13 -4 -16 -10z"/>
<path d="M4970 1064 c-231 -27 -358 -39 -427 -38 -40 1 -73 -2 -73 -6 0 -4 11
-5 24 -3 17 4 26 0 30 -14 4 -11 25 -32 49 -48 l42 -28 110 13 c61 7 153 16
205 21 52 5 106 10 120 12 14 2 31 5 38 5 7 1 12 17 12 41 0 21 -6 43 -12 48
-8 6 -51 5 -118 -3z"/>
<path d="M7018 1048 c16 -8 28 -8 45 0 19 9 17 11 -23 11 -40 0 -42 -2 -22
-11z"/>
<path d="M6930 1040 c0 -5 7 -10 16 -10 8 0 12 5 9 10 -3 6 -10 10 -16 10 -5
0 -9 -4 -9 -10z"/>
<path d="M6738 1033 c-16 -2 -28 -8 -28 -12 0 -5 18 -5 41 -1 22 4 50 5 61 2
14 -3 19 -1 14 6 -7 12 -34 13 -88 5z"/>
<path d="M6473 999 c11 -7 23 -7 35 0 14 9 11 10 -18 10 -29 0 -32 -1 -17 -10z"/>
<path d="M6388 993 c12 -2 30 -2 40 0 9 3 -1 5 -23 4 -22 0 -30 -2 -17 -4z"/>
<path d="M7430 980 c-14 -11 -20 -20 -14 -20 6 0 19 9 29 20 23 25 17 25 -15
0z"/>
<path d="M6309 978 c23 -6 37 -6 44 1 8 8 -2 11 -33 10 l-45 -1 34 -10z"/>
<path d="M6113 973 c-18 -2 -33 -8 -33 -13 0 -11 101 -1 115 11 9 9 -20 10
-82 2z"/>
<path d="M5880 950 c-41 -6 -42 -7 -10 -8 19 0 55 3 80 7 40 8 41 8 10 8 -19
0 -55 -3 -80 -7z"/>
<path d="M7385 950 c-3 -5 -1 -10 4 -10 6 0 11 5 11 10 0 6 -2 10 -4 10 -3 0
-8 -4 -11 -10z"/>
<path d="M7338 936 c-8 -7 -43 -15 -81 -18 -38 -2 -72 -10 -79 -17 -11 -11 -9
-12 12 -6 24 7 68 13 117 14 12 1 28 8 36 16 8 8 18 11 22 7 5 -4 5 -1 1 6 -9
15 -11 15 -28 -2z"/>
<path d="M5773 933 c9 -2 25 -2 35 0 9 3 1 5 -18 5 -19 0 -27 -2 -17 -5z"/>
<path d="M5658 923 c7 -3 16 -2 19 1 4 3 -2 6 -13 5 -11 0 -14 -3 -6 -6z"/>
<path d="M5548 913 c12 -2 30 -2 40 0 9 3 -1 5 -23 4 -22 0 -30 -2 -17 -4z"/>
<path d="M465 896 c-27 -7 -73 -25 -101 -41 -45 -25 -53 -35 -68 -80 -27 -88
-21 -92 72 -47 119 58 284 73 391 35 36 -12 65 -21 66 -20 0 1 6 9 13 18 11
14 3 24 -58 69 -55 41 -84 55 -137 66 -80 16 -111 17 -178 0z"/>
<path d="M5472 905 c10 -11 48 -14 48 -4 0 5 -12 9 -27 9 -14 0 -24 -2 -21 -5z"/>
<path d="M4312 880 c0 -14 2 -19 5 -12 2 6 2 18 0 25 -3 6 -5 1 -5 -13z"/>
<path d="M5418 893 c7 -3 16 -2 19 1 4 3 -2 6 -13 5 -11 0 -14 -3 -6 -6z"/>
<path d="M6980 892 c0 -4 -46 -8 -103 -10 -96 -2 -147 -14 -147 -34 0 -5 14
-1 30 9 27 16 32 16 40 3 7 -11 12 -12 18 -3 7 11 89 20 246 28 95 5 93 12 -4
13 -44 1 -80 -2 -80 -6z"/>
<path d="M5248 878 c9 -9 15 -9 24 0 9 9 7 12 -12 12 -19 0 -21 -3 -12 -12z"/>
<path d="M4948 848 c17 -8 26 -8 34 0 9 9 4 12 -22 11 -33 0 -34 -1 -12 -11z"/>
<path d="M6556 849 c-32 -5 -61 -11 -64 -14 -10 -9 112 7 123 16 5 5 7 8 5 8
-3 -1 -32 -5 -64 -10z"/>
<path d="M6630 850 c0 -6 12 -10 27 -10 29 0 24 12 -7 17 -11 2 -20 -2 -20 -7z"/>
<path d="M4870 840 c19 -13 30 -13 30 0 0 6 -10 10 -22 10 -19 0 -20 -2 -8
-10z"/>
<path d="M6450 839 c0 -7 -15 -9 -42 -5 -32 4 -36 3 -18 -3 40 -14 77 -12 84
4 3 9 0 15 -9 15 -8 0 -15 -5 -15 -11z"/>
<path d="M4788 833 c6 -2 18 -2 25 0 6 3 1 5 -13 5 -14 0 -19 -2 -12 -5z"/>
<path d="M6285 820 c-18 -8 -18 -9 5 -9 14 0 32 4 40 9 12 8 12 10 -5 9 -11 0
-29 -4 -40 -9z"/>
<path d="M6155 809 c-10 -15 -4 -18 27 -12 15 3 25 9 22 14 -7 12 -41 11 -49
-2z"/>
<path d="M6350 810 c0 -13 11 -13 30 0 12 8 11 10 -7 10 -13 0 -23 -4 -23 -10z"/>
<path d="M6068 803 c6 -2 18 -2 25 0 6 3 1 5 -13 5 -14 0 -19 -2 -12 -5z"/>
<path d="M5931 789 c-81 -14 -76 -20 13 -18 44 2 74 5 67 7 -6 2 -9 8 -5 13 6
10 0 10 -75 -2z"/>
<path d="M6120 790 c-13 -8 -12 -10 3 -10 9 0 17 5 17 10 0 12 -1 12 -20 0z"/>
<path d="M4336 765 c9 -14 19 -24 21 -21 6 6 -20 46 -30 46 -4 0 0 -11 9 -25z"/>
<path d="M6038 783 c7 -3 16 -2 19 1 4 3 -2 6 -13 5 -11 0 -14 -3 -6 -6z"/>
<path d="M5768 773 c7 -3 16 -2 19 1 4 3 -2 6 -13 5 -11 0 -14 -3 -6 -6z"/>
<path d="M5835 760 c4 -6 11 -8 16 -5 14 9 11 15 -7 15 -8 0 -12 -5 -9 -10z"/>
<path d="M5660 752 c0 -4 21 -6 48 -4 82 5 89 9 20 11 -38 0 -68 -2 -68 -7z"/>
<path d="M9523 695 c0 -38 2 -53 4 -32 2 20 2 52 0 70 -2 17 -4 1 -4 -38z"/>
<path d="M5448 743 c6 -2 18 -2 25 0 6 3 1 5 -13 5 -14 0 -19 -2 -12 -5z"/>
<path d="M5523 743 c-13 -2 -23 -9 -23 -15 0 -6 9 -7 23 -3 12 4 45 11 72 15
l50 7 -50 0 c-27 0 -60 -2 -72 -4z"/>
<path d="M9385 738 c-2 -7 -6 -28 -7 -45 -2 -18 -12 -39 -22 -46 -16 -12 -16
-16 -2 -57 13 -39 13 -46 1 -53 -15 -8 -21 -38 -7 -36 4 1 27 1 50 0 l44 -1
-6 -37 c-4 -21 -2 -44 3 -52 6 -9 11 5 15 42 7 53 0 107 -13 107 -3 0 -4 43
-3 95 l4 95 -26 0 c-15 0 -29 -6 -31 -12z"/>
<path d="M9627 743 c-4 -3 -7 -11 -7 -17 0 -6 5 -5 12 2 6 6 9 14 7 17 -3 3
-9 2 -12 -2z"/>
<path d="M5340 731 c-22 -7 -19 -9 22 -16 26 -4 60 -4 75 0 26 7 26 8 8 15
-25 10 -72 11 -105 1z m47 -7 c-3 -3 -12 -4 -19 -1 -8 3 -5 6 6 6 11 1 17 -2
13 -5z m40 0 c-3 -3 -12 -4 -19 -1 -8 3 -5 6 6 6 11 1 17 -2 13 -5z"/>
<path d="M4371 709 c16 -38 153 -80 226 -70 67 9 75 17 18 16 -25 -1 -48 -4
-51 -8 -11 -11 -26 -8 -19 3 4 6 -6 10 -22 10 -47 0 -127 29 -146 53 l-18 22
12 -26z"/>
<path d="M5130 711 c-8 -6 -28 -7 -45 -5 -20 4 -26 3 -17 -4 9 -6 -10 -9 -57
-7 -39 1 -71 -2 -71 -7 0 -12 196 -1 222 13 11 6 45 9 74 7 30 -3 54 -1 54 4
0 11 -141 10 -160 -1z"/>
<path d="M9590 712 c0 -14 25 -62 32 -62 15 0 18 20 6 39 -13 21 -38 36 -38
23z"/>
<path d="M4840 690 c-14 -4 -43 -9 -65 -9 -30 -1 -36 -4 -25 -11 12 -8 12 -10
1 -10 -8 0 -12 -3 -9 -6 4 -3 16 0 28 6 18 10 21 9 15 -1 -6 -9 -3 -10 11 -5
10 5 44 12 74 16 30 4 42 8 27 9 -16 0 -26 5 -22 11 7 11 0 11 -35 0z"/>
<path d="M700 670 c-98 -7 -185 -38 -270 -95 -76 -50 -110 -90 -110 -126 0
-33 13 -38 32 -10 35 50 243 160 263 139 3 -3 -2 -22 -11 -44 -13 -31 -15 -57
-10 -129 4 -49 12 -111 19 -136 24 -90 97 -149 163 -133 29 6 104 70 104 87 0
5 7 24 16 42 12 25 14 58 12 141 -2 60 -7 118 -11 129 -5 11 6 -7 23 -39 24
-44 34 -56 41 -45 14 23 11 39 -23 110 -29 59 -39 70 -86 93 -29 14 -56 25
-60 24 -4 -1 -45 -4 -92 -8z"/>
<path d="M9690 672 c0 -6 -10 -12 -22 -14 -20 -3 -40 -28 -21 -28 16 1 58 39
50 46 -4 4 -7 2 -7 -4z"/>
<path d="M4688 663 c6 -2 18 -2 25 0 6 3 1 5 -13 5 -14 0 -19 -2 -12 -5z"/>
<path d="M9595 638 c5 -13 -1 -18 -32 -24 l-38 -8 30 -7 c26 -6 23 -7 -20 -9
-27 -2 -55 -3 -62 -3 -13 1 -9 -124 7 -207 18 -95 20 -119 10 -125 -6 -4 -10
5 -10 22 0 19 -3 24 -9 15 -6 -11 -10 -10 -15 4 -6 15 -9 16 -16 4 -5 -9 -5
-17 1 -21 14 -8 0 -59 -16 -59 -7 0 -15 6 -18 13 -9 26 -18 -3 -14 -49 3 -39
5 -44 11 -26 10 26 66 33 66 7 0 -8 -9 -15 -20 -15 -11 0 -20 -4 -20 -10 0 -5
11 -10 25 -10 23 0 25 4 25 43 0 50 13 67 51 67 30 0 36 15 65 180 31 179 32
194 11 215 -15 16 -17 16 -12 3z"/>
<path d="M9470 620 c0 -5 6 -10 14 -10 8 0 18 5 21 10 3 6 -3 10 -14 10 -12 0
-21 -4 -21 -10z"/>
<path d="M9344 458 c3 -16 8 -39 11 -53 4 -17 12 -25 25 -25 17 0 20 7 20 40
0 32 -4 40 -18 40 -10 0 -24 6 -31 13 -10 10 -11 7 -7 -15z"/>
<path d="M9360 320 c0 -13 7 -20 20 -20 13 0 20 7 20 20 0 13 -7 20 -20 20
-13 0 -20 -7 -20 -20z"/>
<path d="M2491 204 c0 -11 3 -14 6 -6 3 7 2 16 -1 19 -3 4 -6 -2 -5 -13z"/>
<path d="M9495 163 c4 -32 8 -82 9 -110 1 -38 5 -53 15 -53 10 0 12 10 8 42
-3 24 -9 73 -13 111 -4 37 -11 67 -17 67 -6 0 -7 -21 -2 -57z"/>
</g>
</svg>
