<svg xmlns="http://www.w3.org/2000/svg" width="18" height="14" fill="none"  xmlns:v="https://vecta.io/nano"><path fill-rule="evenodd" d="M12.267 12.65L13.284 14C16.69 13.883 18 11.467 18 11.467 18 6.1 15.781 1.75 15.781 1.75 13.562-.05 11.45 0 11.45 0l-.216.267c2.62.867 3.837 2.117 3.837 2.117-1.603-.95-3.175-1.417-4.639-1.6C9.324.65 8.26.684 7.32.817c-.081 0-.15.013-.227.027L7.058.85C6.519.9 5.209 1.117 3.56 1.9l-.909.483S3.93 1.067 6.704.2L6.55 0S4.439-.05 2.22 1.75C2.219 1.75 0 6.1 0 11.467c0 0 1.295 2.417 4.7 2.533l1.033-1.383c-1.957-.633-2.697-1.967-2.697-1.967s.154.117.432.283a.21.21 0 0 0 .062.05.62.62 0 0 0 .069.042l.069.042a8.79 8.79 0 0 0 1.125.567c.632.267 1.387.533 2.265.717a10 10 0 0 0 3.991.017c.724-.133 1.464-.367 2.235-.717.539-.217 1.14-.533 1.772-.983 0 0-.771 1.367-2.789 1.983zM6.113 6.519c-.902 0-1.613.715-1.613 1.587s.728 1.587 1.613 1.587c.902 0 1.613-.715 1.613-1.587.016-.872-.712-1.587-1.613-1.587zm5.773 0c-.902 0-1.613.715-1.613 1.587s.728 1.587 1.613 1.587c.902 0 1.613-.715 1.613-1.587s-.712-1.587-1.613-1.587z" fill="#000"/></svg>