<svg xmlns="http://www.w3.org/2000/svg" xmlns:xlink="http://www.w3.org/1999/xlink" width="27" height="26" viewBox="59 0 27 26"><defs><path d="M6.213 24.966l-.022-4.347a1.21 1.21 0 0 0-.475-.84C1.942 17.248.245 13.06 1.316 8.826c1.049-4.145 4.617-7.302 9.112-7.619 3-.212 6.065-.451 9.043.34 4.21 1.117 7.881 5.196 7.502 10.636-.297 4.262-3.919 8.355-8.467 9.005-2.225.319-4.52.176-6.782.271-.314.013-.674.119-.921.299L6.487 25l-.274-.034z" id="A"/><mask id="B" x="0" y="0" width="26" height="24" fill="#fff"><use xlink:href="#A"/></mask><path id="C" d="M9.497 10c-.803.015-1.516.739-1.497 1.52.019.8.734 1.486 1.54 1.48.838-.007 1.471-.666 1.459-1.518s-.672-1.495-1.502-1.48V10z"/></defs><g fill-rule="evenodd" transform="translate(59)"><use stroke="#bbb" mask="url(#B)" stroke-width="2" fill="#fff" xlink:href="#A"/><g fill="#bbb"><use xlink:href="#C"/><use xlink:href="#C" x="5"/><use xlink:href="#C" x="10"/></g></g></svg>