<svg xmlns="http://www.w3.org/2000/svg" xmlns:xlink="http://www.w3.org/1999/xlink" width="24" height="24"><defs><path id="A" d="M7.692 0h8.617c2.675 0 3.644.278 4.622.801a5.45 5.45 0 0 1 2.268 2.268c.523.978.801 1.948.801 4.622v8.617c0 2.675-.278 3.644-.801 4.622a5.45 5.45 0 0 1-2.268 2.268c-.978.523-1.948.801-4.622.801H7.692c-2.675 0-3.644-.278-4.622-.801a5.45 5.45 0 0 1-2.268-2.268C.278 19.953 0 18.983 0 16.308V7.692c0-2.675.278-3.644.801-4.622A5.45 5.45 0 0 1 3.069.801C4.047.278 5.017 0 7.692 0z"/></defs><g fill-rule="evenodd"><mask id="B" fill="#fff"><use xlink:href="#A"/></mask><use fill="#eee" xlink:href="#A"/><path fill="#999" d="M12.017 5c-3.417 0-4.899 2.659-4.899 5.341 0 3.529 2.261 5.129 2.261 6.306 0 .471-.327 1.035-1.281 1.506l-4.999 2.518C1.341 21.565 2.22 25 2.22 25h19.57s.854-3.459-.879-4.329l-4.999-2.494c-.93-.471-1.331-.965-1.331-1.412 0-1.082 2.311-2.612 2.311-6.424C16.891 7.165 15.082 5 12.017 5h0z" mask="url(#B)"/></g></svg>