<svg xmlns="http://www.w3.org/2000/svg" width="40" height="44"  fill-rule="evenodd"><path d="M1.931 22.838l9.907-9.907c2.575-2.575 6.749-2.575 9.324 0l9.907 9.907c2.575 2.575 2.575 6.749 0 9.324l-9.907 9.907c-2.575 2.575-6.749 2.575-9.324 0l-9.907-9.907c-2.575-2.575-2.575-6.749 0-9.324z" fill-opacity=".301" fill="#68c600"/><path d="M2.341 14.349L14.349 2.341c3.121-3.121 8.181-3.121 11.302 0l12.008 12.008c3.121 3.121 3.121 8.181 0 11.302L25.651 37.659c-3.121 3.121-8.181 3.121-11.302 0L2.341 25.651c-3.121-3.121-3.121-8.181 0-11.302z" fill-opacity=".695" fill="#5db100"/><path d="M16.667 27.333V30h-1.333v-2.667h1.333zm2.667 0V30H18v-2.667h1.333zm2.667 0V30h-1.333v-2.667H22zm2.667 0V30h-1.333v-2.667h1.333zM24.998 14c.554 0 1.002.456 1.002 1.002v9.995c0 .554-.456 1.002-1.002 1.002h-9.995C14.449 26 14 25.544 14 24.998v-9.995c0-.554.456-1.002 1.002-1.002h9.995zm-12.331 9.333v1.333H10v-1.333h2.667zm17.333 0v1.333h-2.667v-1.333H30zM18 22h-1.333v1.333H18V22zm2.667 0h-1.333v1.333h1.333V22zm2.667 0H22v1.333h1.333V22zm-10.667-1.333V22H10v-1.333h2.667zm17.333 0V22h-2.667v-1.333H30zm-12-1.333h-1.333v1.333H18v-1.333zm2.667 0h-1.333v1.333h1.333v-1.333zm2.667 0H22v1.333h1.333v-1.333zM12.667 18v1.333H10V18h2.667zM30 18v1.333h-2.667V18H30zm-12-1.333h-1.333V18H18v-1.333zm2.667 0h-1.333V18h1.333v-1.333zm2.667 0H22V18h1.333v-1.333zm-10.667-1.333v1.333H10v-1.333h2.667zm17.333 0v1.333h-2.667v-1.333H30zM16.667 10v2.667h-1.333V10h1.333zm2.667 0v2.667H18V10h1.333zM22 10v2.667h-1.333V10H22zm2.667 0v2.667h-1.333V10h1.333z" fill="#fff"/></svg>