<svg xmlns="http://www.w3.org/2000/svg" width="22" height="18" fill="none"  xmlns:v="https://vecta.io/nano"><path fill-rule="evenodd" d="M6.919 18c8.302 0 12.843-6.926 12.843-12.932 0-.197 0-.393-.013-.587A9.22 9.22 0 0 0 22 2.128a8.96 8.96 0 0 1-2.593.715A4.55 4.55 0 0 0 21.391.329a9.02 9.02 0 0 1-2.866 1.103C17.126-.066 14.903-.433 13.102.538a4.56 4.56 0 0 0-2.269 5.039C7.204 5.395 3.823 3.669 1.531.829a4.57 4.57 0 0 0 1.397 6.067C2.21 6.875 1.508 6.68.88 6.328v.058a4.54 4.54 0 0 0 3.621 4.455c-.665.182-1.362.209-2.038.078.591 1.851 2.286 3.12 4.217 3.156-1.598 1.265-3.573 1.951-5.606 1.949-.359-.001-.718-.023-1.074-.066C2.064 17.292 4.466 18 6.919 17.997" fill="#000"/></svg>