<svg xmlns="http://www.w3.org/2000/svg" width="14" height="12"><defs><filter id="A"><feColorMatrix in="SourceGraphic" values="0 0 0 0 0.000000 0 0 0 0 0.000000 0 0 0 0 0.000000 0 0 0 1.000000 0"/></filter></defs><g filter="url(#A)" transform="translate(-5 -43)" fill-rule="evenodd"><path d="M19 49.012a.91.91 0 00-.903-.919h-9.9l3.669-3.481c.25-.22.36-.562.29-.89a.912.912 0 00-.63-.685.892.892 0 00-.892.234l-5.347 5.068a.926.926 0 000 1.343l5.347 5.07a.892.892 0 001.276-.044.93.93 0 00-.044-1.299l-3.67-3.479h9.901a.91.91 0 00.903-.918z" fill="#666" fill-rule="nonzero"/></g></svg>