<svg xmlns="http://www.w3.org/2000/svg" width="44" height="44"  fill-rule="evenodd"><circle fill-opacity=".301" fill="#0bf" cx="27.5" cy="27.5" r="16.5"/><circle fill-opacity=".701" fill="#0084f0" cx="20" cy="20" r="20"/><path d="M25.583 20.833l3.468 2.808a1 1 0 0 1 .148 1.406l-2.808 3.468a1 1 0 0 1-1.406.148l-3.468-2.808a1 1 0 0 1-.148-1.406l2.808-3.468a1 1 0 0 1 1.406-.148zM14.012 22.03a3.74 3.74 0 0 1 4.109 3.327 3.74 3.74 0 0 1-3.327 4.109 3.74 3.74 0 0 1-4.109-3.327 3.74 3.74 0 0 1 3.327-4.109zm9.876-11.72a.85.85 0 0 1 .374.292l3.903 5.423c.272.378.176.901-.216 1.168-.12.082-.26.133-.405.148l-6.544.688c-.474.05-.898-.283-.947-.743a.82.82 0 0 1 .063-.41l2.641-6.111c.185-.428.691-.631 1.131-.455zm-8.153.553a1 1 0 0 1 1.099.89l.573 5.447a1 1 0 0 1-.89 1.099l-5.447.573a1 1 0 0 1-1.099-.89l-.573-5.447a1 1 0 0 1 .89-1.099l5.447-.573z" fill="#fff"/></svg>