<svg xmlns="http://www.w3.org/2000/svg" width="44" height="44"  fill-rule="evenodd"><path d="M3.151 18.993l9.622-9.624c2.165-2.165 3.176-2.725 4.391-3.093a6.24 6.24 0 0 1 3.672 0c1.173.356 2.156.89 4.171 2.875l9.624 9.622c2.165 2.165 2.725 3.176 3.093 4.391a6.24 6.24 0 0 1 0 3.672c-.356 1.173-.89 2.156-2.875 4.171l-9.622 9.624c-2.165 2.165-3.176 2.725-4.391 3.093a6.24 6.24 0 0 1-3.672 0c-1.173-.356-2.156-.89-4.171-2.875l-9.624-9.622C1.204 29.062.644 28.051.276 26.836a6.24 6.24 0 0 1 0-3.672c.356-1.173.89-2.156 2.875-4.171z" fill-opacity=".304" fill="#ff5e21"/><path d="M14.052 4.28L27.121.778 27.807.6c2.956-.743 4.218-.7 5.563-.386a7.29 7.29 0 0 1 3.715 2.145c1.014 1.082 1.709 2.239 2.635 5.694l3.502 13.069c.926 3.455.902 4.804.565 6.248a7.29 7.29 0 0 1-2.145 3.715c-1.045.979-2.159 1.661-5.344 2.54l-13.418 3.597c-3.455.926-4.804.902-6.248.565a7.29 7.29 0 0 1-3.715-2.145l-.205-.226c-.906-1.027-1.568-2.251-2.43-5.468L6.778 16.879l-.178-.686c-.743-2.956-.7-4.218-.386-5.563a7.29 7.29 0 0 1 2.145-3.715l.226-.205c1.027-.906 2.251-1.568 5.468-2.43z" fill-opacity=".699" fill="#ff2401"/><path d="M26.384 23.928c.841-.21 1.229-.783 1.165-1.721l-.013-.939a2.86 2.86 0 0 1 .07-.554c.042-.189.124-.407.246-.653a9.15 9.15 0 0 1 .512-.877l1.645-2.563c.299-.501.525-1.064.678-1.689s.137-1.304-.046-2.038c-.232-.932-.702-1.732-1.409-2.399s-1.584-1.116-2.633-1.345-2.183-.192-3.402.112c-1.312.327-2.391.89-3.237 1.687s-1.421 1.681-1.724 2.651-.352 1.864-.148 2.684c.099.397.353.726.762.986s.849.332 1.32.214c.799-.199 1.22-.822 1.262-1.869.07-1.008.264-1.806.582-2.394s.939-.998 1.864-1.228c.79-.197 1.495-.121 2.114.229s1.014.87 1.186 1.561c.088.354.088.702-.001 1.045a3.82 3.82 0 0 1-.4.973l-.894 1.385-1.106 1.796c-.262.492-.435 1.03-.522 1.615s-.039 1.241.142 1.966c.144.578.402.977.774 1.196s.776.274 1.213.165zm1.479 5.086a2.01 2.01 0 0 0 1.212-.854c.301-.443.375-.967.224-1.573-.136-.545-.435-.958-.898-1.238s-.964-.352-1.506-.217c-.55.137-.968.439-1.253.905a1.91 1.91 0 0 0-.224 1.517c.153.614.468 1.044.944 1.288a2.08 2.08 0 0 0 1.501.17z" fill="#fff" fill-rule="nonzero"/></svg>